<!-- Created with Inkscape (http://www.inkscape.org/) -->
<svg xmlns:rdf="http://www.w3.org/1999/02/22-rdf-syntax-ns#" xmlns="http://www.w3.org/2000/svg" height="105.68" width="515.23" version="1.1" xmlns:cc="http://creativecommons.org/ns#" xmlns:dc="http://purl.org/dc/elements/1.1/">
 <metadata>
  <rdf:RDF>
   <cc:Work rdf:about="">
    <dc:format>image/svg+xml</dc:format>
    <dc:type rdf:resource="http://purl.org/dc/dcmitype/StillImage"/>
    <dc:title/>
   </cc:Work>
  </rdf:RDF>
 </metadata>
 <g fill="#222b00" transform="translate(-47.256026,-334.69739)">
  <path d="m140.79,354.7v62.37h-21.539c-1.0863,0-1.9231-0.20791-2.513-0.61589-0.58992-0.41062-0.88358-0.99794-0.88358-1.7594,0-1.2474,0.60552-2.0712,1.8165-2.4662,0.99792-0.33526,1.58-0.53796,1.7464-0.61332,0.16629-0.0754,0.34043-0.25468,0.52236-0.52755,0.36381-0.48856,0.54311-1.263,0.54311-2.3285v-45.73c0-1.0707-0.18193-1.8477-0.54311-2.3311-0.18193-0.27028-0.35604-0.45219-0.52236-0.52756-0.16629-0.0727-0.74846-0.28067-1.7464-0.61592-1.211-0.39239-1.8165-1.2214-1.8165-2.4662,0-0.76664,0.29366-1.354,0.88358-1.762,0.58992-0.4106,1.4267-0.6185,2.513-0.6185h21.539v-0.007zm14.155,30.086c2.7391,0.54834,4.8467,1.0811,6.3254,1.5956,1.4761,0.51716,2.8093,1.172,3.9969,1.9621,2.04,1.3097,3.5993,3.0405,4.6804,5.1871s1.6216,4.5426,1.6216,7.1934c0,5.2079-1.9179,9.2698-5.7536,12.191-1.9803,1.5229-4.1632,2.5962-6.5515,3.2199-2.3908,0.62109-5.5197,0.93553-9.3841,0.93553h-5.4392v-4.7973c1.2188-0.0911,2.1778-0.27028,2.8768-0.52755,0.69908-0.25728,1.3254-0.69386,1.8737-1.2994,1.0057-1.1305,1.5073-2.8768,1.5073-5.2521v-10.364c0-1.5229-0.12999-2.7105-0.3872-3.5629-0.25728-0.85239-0.73545-1.6294-1.4319-2.3285-0.51456-0.55094-1.0759-0.94334-1.6814-1.1876-0.60552-0.24687-1.4683-0.44439-2.591-0.59513v-4.7453c1.1201-0.0909,1.9906-0.24688,2.6118-0.46,0.62109-0.21044,1.1902-0.56391,1.7048-1.0473,0.48597-0.45737,0.89398-1.0473,1.2266-1.7828,0.33264-0.73025,0.51456-1.4007,0.54574-2.0088v-10.442c0-0.82121-0.13777-1.6788-0.41059-2.578-0.27287-0.90178-0.60812-1.6086-1.0057-2.1258-0.57954-0.70167-1.2266-1.2188-1.9413-1.5541-0.71465-0.33524-1.6814-0.56394-2.9002-0.68606v-5.026h5.2573c6.9439,0,12.243,1.4319,15.897,4.2983,1.6762,1.3098,2.9548,2.8898,3.8384,4.7505,0.88357,1.8633,1.3254,3.8696,1.3254,6.0317,0,2.1336-0.4496,4.1476-1.3488,6.0317-0.8992,1.8945-2.1544,3.4616-3.7682,4.7116-1.1876,0.97453-2.5598,1.7672-4.1138,2.3753-1.554,0.60809-3.7474,1.2448-6.58,1.8867z"/>
  <path d="m184.29,399.6v-35.819c0-1.0707-0.18192-1.8477-0.54315-2.3311-0.18193-0.27028-0.35861-0.45217-0.52233-0.52754-0.16375-0.0727-0.75105-0.28068-1.7464-0.61592-1.2136-0.39241-1.8165-1.2032-1.8165-2.4246,0-0.79522,0.29366-1.3955,0.88358-1.8035,0.59514-0.41062,1.4345-0.61851,2.5234-0.61851h22.763l1.6476,0.18192c0.50418,0.15341,0.92517,0.42362,1.2552,0.81862,0.32743,0.39762,0.48855,0.87319,0.48855,1.4215,0,1.2188-0.60032,2.027-1.8165,2.4246-0.99531,0.33525-1.5748,0.54315-1.7464,0.61591-0.1663,0.0754-0.34045,0.25728-0.52235,0.52756-0.36124,0.48856-0.54314,1.2604-0.54314,2.3311v38.326c0,2.5884,0.0701,4.3919,0.20791,5.4158,0.13777,1.0213,0.41579,1.9387,0.84201,2.7625,0.395,0.76144,0.83677,1.3098,1.3254,1.645,0.48858,0.33524,1.4163,0.71465,2.7859,1.1408v5.9849h-1.0057c-3.9631,0-7.2531-0.35081-9.8753-1.0499-3.0795-0.81859-5.7796-2.04-8.0926-3.6538-2.3129-1.6138-3.9631-3.42-4.9376-5.4314-1.0369-2.1414-1.5541-5.2417-1.5541-9.3218zm29.641,19.454v-5.9849c3.0302-0.39502,5.564-1.645,7.591-3.7422,2.3025-2.4064,3.4538-5.8602,3.4538-10.366v-29.784c0-4.1736-1.5956-7.092-4.7869-8.7344-0.94075-0.48856-1.5593-0.90958-1.8477-1.2552-0.28846-0.34564-0.43139-0.86279-0.43139-1.5333,0-0.79521,0.28847-1.3565,0.868-1.6944,0.57951-0.33524,1.5229-0.49895,2.8326-0.49895h11.208c0.94076,0,1.5696,0.0234,1.8945,0.0651,0.32226,0.0467,0.62889,0.16377,0.93295,0.34563,0.79262,0.45739,1.1877,1.0811,1.1877,1.8789,0,0.67047-0.2469,1.2344-0.73026,1.6892-0.15341,0.15341-0.81081,0.56391-1.9647,1.237-1.341,0.73284-2.3857,1.8555-3.1471,3.3628-0.76144,1.5125-1.1408,3.2276-1.1408,5.1455v29.831c0,5.117-1.1279,9.3166-3.3758,12.604-1.645,2.4376-3.9995,4.3867-7.0712,5.8472-1.5177,0.71985-3.3472,1.2526-5.473,1.5878z"/>
  <path d="m271.66,354.84v5.0754c-2.6533,0.64187-3.9787,2.7755-3.9787,6.4059v42.531c0,1.645,0.22608,2.908,0.67826,3.789,0.38983,0.73025,1.2214,1.354,2.4896,1.8737v5.1611c-0.97453,0-1.8659-0.0754-2.6715-0.22863-0.80562-0.15341-1.8815-0.45737-3.2199-0.91477-3.1964-1.0966-6.0915-2.7703-8.6798-5.0286-2.5884-2.2583-4.7194-4.9506-6.3955-8.0873-2.5884-4.9065-3.8825-10.704-3.8825-17.409,0-6.4865,1.1564-12.243,3.4693-17.271,2.3129-5.0286,5.6315-8.9709,9.9558-11.837,2.4948-1.6788,5.1741-2.8768,8.0354-3.6123,1.1876-0.29626,2.5858-0.44701,4.1996-0.44701zm24.449,55.98c-1.224,1.2188-2.8456,2.4558-4.8675,3.7214-2.0296,1.263-3.9423,2.2583-5.738,2.9886-1.645,0.63931-3.4668,1.1565-5.4626,1.5541-1.9958,0.39762-3.7552,0.59513-5.2781,0.59513v-5.1585c0.88359-0.21298,1.5463-0.47558,1.9881-0.77962,0.44178-0.30146,0.81339-0.72766,1.12-1.276,0.51715-0.94335,0.77703-2.1466,0.77703-3.6123v-13.324c0-1.1876-0.22863-2.04-0.68347-2.5546-0.21297-0.30405-0.42621-0.49118-0.6367-0.57171-0.21299-0.0727-0.91215-0.25208-2.0972-0.52496-1.4579-0.36644-2.1855-1.2162-2.1855-2.552,0-0.79262,0.34044-1.4007,1.0265-1.8269,0.68347-0.42621,1.6918-0.6393,3.0301-0.6393h18.235c1.3826,0,2.3571,0.18722,2.9262,0.57173,0.57173,0.382,0.85501,1.0421,0.85501,1.988,0,0.58212-0.11428,1.0551-0.34826,1.4397-0.22861,0.37941-0.65487,0.78483-1.2682,1.211-0.6159,0.42619-1.0057,0.81602-1.1538,1.185-0.15847,0.36904-0.23391,1.0317-0.23391,2.0062v15.561h-0.004zm-20.712-50.995v-4.9376c4.9636,0.45997,9.0463,1.3696,12.245,2.7443,0.94337,0.4262,1.6762,0.6393,2.1934,0.6393,0.48857,0,0.86278-0.11171,1.1252-0.34304,0.25988-0.22862,0.78223-0.87317,1.5696-1.9309,0.54835-0.75623,1.2344-1.1383,2.0608-1.1383,0.8498,0,1.4527,0.23909,1.8009,0.70427,0.34824,0.46779,0.52495,1.2474,0.52495,2.3389v17.796c0,2.2947-0.85237,3.4408-2.5572,3.4408-0.85497,0-1.4839-0.22861-1.8945-0.68865-0.40801-0.45741-0.80302-1.354-1.1642-2.6923-0.45997-1.6996-1.2786-3.6902-2.4662-5.9538-1.1876-2.2687-2.3285-4.0593-3.4252-5.3638-1.2474-1.5229-2.6507-2.6404-4.2048-3.355-1.5567-0.71725-3.4927-1.1383-5.8082-1.2604z"/>
  <path d="m338.91,359.77c-1.5437,0.55093-2.6352,1.2994-3.2692,2.2427-0.63409,0.94075-0.95375,2.3285-0.95375,4.1632v40.842c0,2.6793,0.36384,4.566,1.0889,5.6627,0.5743,0.91738,1.619,1.5697,3.1341,1.9647v5.0286c-6.7646-0.54833-12.43-3.0873-16.999-7.6326-5.9408-5.907-8.9085-14.148-8.9085-24.722,0-5.2963,0.78481-10.088,2.3519-14.366,1.567-4.2802,3.8929-7.9132,6.9673-10.899,2.3441-2.2843,4.8727-4.0203,7.5832-5.2079s5.7121-1.8607,9.0021-2.0088l0.003,4.9324zm3.737,0v-4.9376c3.2952,0.15341,6.3046,0.8212,9.0359,2.0088,2.7287,1.1876,5.2677,2.9236,7.6196,5.2079,6.2214,6.0655,9.3321,14.485,9.3321,25.27,0,10.569-2.9756,18.81-8.9215,24.722-4.5764,4.5712-10.265,7.1102-17.066,7.6326v-5.0286c0.79262-0.17941,1.4111-0.41322,1.8529-0.70427,0.44179-0.28586,0.8472-0.70686,1.2136-1.2552,0.82382-1.2448,1.237-3.1367,1.237-5.6653v-40.842c0-1.6164-0.27547-2.895-0.82378-3.8436-0.36644-0.63931-0.80302-1.1383-1.3046-1.5073-0.50416-0.36644-1.2292-0.71988-2.1752-1.0577z"/>
  <path d="m440.99,355.46h12.019v5.538c-1.4319,0.82122-2.5442,1.8737-3.3368,3.1549-1.3098,2.0738-2.1934,4.5296-2.6508,7.3649l-0.45737,2.7885c-0.15342,0.8862-0.48076,1.5748-0.98232,2.0816-0.50157,0.50157-1.1357,0.75625-1.8945,0.75625-0.79262,0-1.4397-0.27288-1.9439-0.82122-0.50416-0.54832-0.75364-1.263-0.75364-2.1466v-18.716zm36.06,0v53.69c0,1.1876,0.22862,2.04,0.68866,2.5546,0.24428,0.30406,0.473,0.49375,0.68868,0.57692,0.21299,0.0727,0.91995,0.26508,2.1128,0.56914,1.4631,0.33524,2.2012,1.172,2.2012,2.513,0,0.79261-0.39762,1.4319-1.1902,1.9179-0.58472,0.36641-1.5644,0.54834-2.9366,0.54834h-23.413c-1.3358,0-2.3467-0.20539-3.0302-0.61592-0.68347-0.41059-1.0265-1.0291-1.0265-1.8503,0-1.341,0.72766-2.1778,2.1856-2.513,1.185-0.30406,1.8841-0.49116,2.0972-0.56914,0.21298-0.078,0.42358-0.27026,0.63668-0.57692,0.4548-0.51456,0.68348-1.3669,0.68348-2.5546v-53.69h20.302zm15.751,0v18.708c0,0.88877-0.25207,1.6008-0.75363,2.1492-0.50156,0.55094-1.1513,0.82122-1.9439,0.82122-0.76143,0-1.3929-0.25208-1.8945-0.75625-0.50156-0.50156-0.82901-1.1954-0.98493-2.0842l-0.4574-2.7859c-0.45738-2.8378-1.3409-5.2911-2.6507-7.3649-0.8212-1.2812-1.9361-2.3285-3.3368-3.1549v-5.5406h12.019v0.007z"/>
  <path d="m382.36,400.92v-35.819c0-1.0707-0.18193-1.8477-0.54314-2.3311-0.18193-0.27027-0.35864-0.45217-0.52236-0.52755-0.16376-0.0727-0.75104-0.28066-1.7464-0.61591-1.2136-0.39241-1.8165-1.2032-1.8165-2.4246,0-0.79522,0.29366-1.3955,0.88357-1.8035,0.59512-0.41063,1.4345-0.61852,2.5234-0.61852h22.763l1.6476,0.18192c0.50416,0.15341,0.92515,0.42362,1.2552,0.81862,0.32744,0.39762,0.48855,0.8732,0.48855,1.4215,0,1.2188-0.60029,2.027-1.8165,2.4246-0.99533,0.33525-1.5748,0.54315-1.7464,0.61592-0.16629,0.0754-0.34044,0.25727-0.52236,0.52755-0.36122,0.48856-0.54314,1.2604-0.54314,2.3311v38.326c0,2.5884,0.0701,4.3919,0.20793,5.4158,0.13777,1.0213,0.4158,1.9387,0.842,2.7625,0.39502,0.76144,0.83681,1.3098,1.3254,1.645,0.48856,0.33524,1.4163,0.71465,2.7859,1.1409v5.9849h-1.0057c-3.9631,0-7.2531-0.35084-9.8753-1.0499-3.0795-0.81862-5.7796-2.04-8.0925-3.6539-2.3129-1.6138-3.9631-3.42-4.9376-5.4314-1.0369-2.1414-1.5541-5.2417-1.5541-9.3218zm29.641,19.454v-5.985c3.0302-0.39502,5.5639-1.645,7.591-3.7422,2.3025-2.4064,3.4537-5.8602,3.4537-10.366v-29.784c0-4.1736-1.5956-7.092-4.7869-8.7344-0.94076-0.48856-1.5592-0.90958-1.8477-1.2552-0.28847-0.34565-0.43138-0.8628-0.43138-1.5333,0-0.79524,0.28843-1.3566,0.86797-1.6944,0.57952-0.33524,1.5229-0.49895,2.8326-0.49895h11.208c0.94075,0,1.5696,0.0234,1.8945,0.0651,0.32226,0.0467,0.6289,0.16376,0.93296,0.34564,0.79264,0.45737,1.1876,1.0811,1.1876,1.8789,0,0.67049-0.24688,1.2344-0.73024,1.6892-0.15341,0.15341-0.81081,0.56394-1.9647,1.237-1.341,0.73284-2.3857,1.8555-3.1471,3.3628-0.76144,1.5125-1.1409,3.2276-1.1409,5.1455v29.831c0,5.117-1.1278,9.3166-3.3758,12.604-1.645,2.4376-3.9995,4.3867-7.0712,5.8472-1.5177,0.71985-3.3472,1.2526-5.473,1.5878z"/>
  <g style="writing-mode:lr-tb;letter-spacing:0px;text-anchor:middle;word-spacing:0px;text-align:center;" font-weight="normal" font-size="103.95037079px" font-stretch="normal" font-variant="normal" font-style="normal" font-family="Arial" line-height="125%">
   <path style="" d="m67.256,385.57,2.3348-7.2075c5.3802,1.895,9.2885,3.5361,11.725,4.9234-0.64294-6.1246-0.98132-10.337-1.0151-12.638h7.3598c-0.10154,3.35-0.49067,7.5459-1.1674,12.588,3.4853-1.7595,7.4782-3.3837,11.979-4.8727l2.3348,7.2075c-4.2975,1.4213-8.5103,2.3687-12.638,2.8424,2.0641,1.7935,4.9742,4.9912,8.7302,9.5931l-6.0908,4.3144c-1.9626-2.6732-4.2805-6.3107-6.9537-10.913-2.504,4.7712-4.7035,8.4088-6.5984,10.913l-5.9893-4.3144c3.9252-4.8388,6.7338-8.0365,8.4257-9.5931-4.3651-0.84589-8.5103-1.7934-12.435-2.8424"/>
  </g>
  <g style="writing-mode:lr-tb;letter-spacing:0px;text-anchor:middle;word-spacing:0px;text-align:center;" font-weight="normal" font-size="103.95037079px" font-stretch="normal" font-variant="normal" font-style="normal" font-family="Arial" line-height="125%">
   <path style="" d="m508.94,385.57,2.3348-7.2075c5.3802,1.895,9.2885,3.5361,11.725,4.9234-0.64294-6.1246-0.98132-10.337-1.0151-12.638h7.3598c-0.10154,3.35-0.49067,7.5459-1.1674,12.588,3.4853-1.7595,7.4782-3.3837,11.979-4.8727l2.3348,7.2075c-4.2975,1.4213-8.5103,2.3687-12.638,2.8424,2.0641,1.7935,4.9742,4.9912,8.7302,9.5931l-6.0908,4.3144c-1.9626-2.6732-4.2805-6.3107-6.9537-10.913-2.504,4.7712-4.7035,8.4088-6.5984,10.913l-5.9893-4.3144c3.9252-4.8388,6.7338-8.0365,8.4257-9.5931-4.3651-0.84589-8.5103-1.7934-12.435-2.8424"/>
  </g>
 </g>
</svg>
