<!-- Created with Inkscape (http://www.inkscape.org/) -->
<svg xmlns:rdf="http://www.w3.org/1999/02/22-rdf-syntax-ns#" xmlns="http://www.w3.org/2000/svg" height="244.19" width="751.96" version="1.1" xmlns:cc="http://creativecommons.org/ns#" xmlns:dc="http://purl.org/dc/elements/1.1/">
 <metadata>
  <rdf:RDF>
   <cc:Work rdf:about="">
    <dc:format>image/svg+xml</dc:format>
    <dc:type rdf:resource="http://purl.org/dc/dcmitype/StillImage"/>
    <dc:title/>
   </cc:Work>
  </rdf:RDF>
 </metadata>
 <g transform="translate(5.3808612,21.334195)">
  <path d="m433.54,174.73c-4.191-1.5655-2.0344-10.385-1.8107-15.426-1.4858-3.7629,2.4049-13.324-3.8185-13.581-7.6232-1.054-14.19-0.72966-22.042-0.12327-5.6467,0.59602-13.436,0.2805-19.931,1.2095-6.5449-0.6944-14.359,1.6394-21.265-1.1953-2.7001,1.2742-8.1757,0.80123-11.724,0.30917-0.71904-0.72028-6.7872,1.0131-10.023,0.5574-9.871-0.82475-20.186,0.32002-30.192,0.7848-10.074-0.48751-19.311,0.22177-29.311,0.52735-5.9286-0.82948-11.067,0.90059-16.194,0.29719-3.0729-0.38205-12.268-0.49112-14.688,1.0748-5.1591-1.9407-10.745-0.35034-16.447-0.82454-2.8906-1.0133-10.052-0.45425-15.489-0.35995-7.7944-0.59347-12.082-3.8835-12.397,4.6249-3.2273,4.3487,1.8005,17.998-3.7669,17.497-4.9194-3.2927-11.788-9.8078-17.133-14.776-4.5476-4.9422-6.9407-6.8328-10.231-10.699-3.2826-5.9592-15.63-11.912-11.99-18.005-3.0865-4.3348,3.7637-7.452,5.9004-11.203,5.665-5.7054,10.472-12.117,16.364-18.326,2.4173-0.51079,10.07-17.031,13.837-6.6811,0.69641,8.5234,1.4666,18.619,11.923,15.17,9.9619,0.5904,20.098,1.1391,30.035,0.60869,10.917,1.1282,22.888,0.25502,33.211,0.98142,7.3307-0.65574,14.88-0.34741,22.757-0.019,7.5404,1.1661,18.398-1.6265,24.848,0.89614,6.2478-2.8845,15.676-0.7242,23.366-2.6182,5.3816-0.0683,12.163,0.005,17.647-0.0862,10.005,0.11316,20.456,0.66076,30.507,2.8156,9.2101-1.5698,18.996-0.27248,27.683,1.4513,3.1349-6.8949,0.2084-18.651,5.0434-24.87,8.3421,5.6028,15.934,10.789,23.211,17.007,6.0398,4.0242,12.758,9.4356,19.932,14.464,5.0456,4.8577,12.449,8.5255,17.867,13.352,2.3857,6.5768-10.491,10.918-14.662,16.618-5.2916,3.8783-8.7401,7.0396-14.231,10.866-4.298,2.742-7.6795,5.4364-12.246,8.5982-5.3216,2.4096-7.8566,6.7148-13.679,9.663l-0.8587-0.57871-0.001-0.00011zm6.326-3.1098zm-2.0857-2.8778c8.1904-7.2778,17.904-12.187,25.917-19.146,6.7804-5.8709,18.652-13.589,21.318-19.687-6.6462-5.1797-13.412-9.7544-19.886-15.122-5.9761-4.58-13.747-9.1576-19.851-14.707-4.3422-1.9709-14.252-13.364-16.474-8.395-0.21845-1.5503-0.48279,7.4738-0.69829,9.5844,2.2658,8.3016-1.5801,11.951-5.3101,10.54-7.4885-0.46936-9.5819-0.72241-17.082-2.0171-5.8993,3.1287-15.192,0.35603-20.639,0.29074-11.164-1.3522-22.327-1.7085-33.172-1.1273-8.5593,0.34648-19.61,0.15767-26.246,1.5584-9.2397,0.11176-18.612,0.43521-27.599,0.38169-9.8566-0.6381-19.802-0.92628-29.662-0.88862-5.5724-0.12132-18.959,0.0944-27.077-0.72306-5.1536,0.9523-15.651-0.0967-22.178,0.13128-5.1958,0.40244-11.686-0.16787-17.457,0.20576-2.0887-1.3446-1.8778-8.731-3.1711-12.946-1.0645-10.69-9.8246,7.311-14.691,10.193-6.2636,5.8795-11.166,11.783-14.657,19.566-4.4702,7.6623,11.695,14.877,15.693,22.398,5.6015,3.9552,12.796,16.281,18.599,14.303-0.80537-6.3467,1.5806-10.343,2.035-14.448-2.6546-10.368,11.902-2.4846,19.155-3.5942,6.6172,0.75521,4.3591,0.70921,12.817,0.2562,10.189,0.71593,20.038,0.45398,30.189,0.0101,10.845-0.0756,21.963,0.002,32.892-0.95466,4.7832,0.8279,14.412-1.4122,16.633,0.3101,4.2983-1.8816,11.887-0.30441,15.391-0.58687,6.0461-0.33,13.083-0.81047,19.742-0.50703,5.1006-0.56404,11.533-0.0277,15.613,0.48824,7.6701-0.25553,14.913,0.43862,21.855-0.77576,8.8473,0.61699,20.109-2.4651,30.043-1.5369,6.8109-1.9657,18.153,2.2756,15.066,13.025,0.56962,2.8937-2.9146,20.591,2.8941,13.921zm29.098-48.216zm-281.39,31.491zm51.22-4.5248zm45.013-0.79684zm67.611-1.436zm-36.141-0.55612zm14.739-37.229zm-64.133,40.814zm218.29-28.71z" fill="#000000"/>
 </g>
 <g transform="translate(2.344016,-208.68609)">
  <path d="m585.48,432.61c-5.2242-1.7806-12.345-0.56276-18.614-1.8094-5.6361-0.58762-10.453-1.8104-16.703-1.5587-6.7619-0.0413-11.478,1.3958-17.385,1.5136-4.8961-1.2562-8.7579,1.1013-13.229-1.1158-2.1577-2.7094,2.0157-5.9436-0.13982-10.795,0.57084-4.7614,0.47062-11.247-0.0456-14.646,0.27482-4.0164,0.28285-5.1379,0.0684-9.6256-0.065-5.1434,1.1226-8.0576,0.12888-13.453-0.3828-5.2549-0.2809-11.396-0.6619-16.368-0.0651-8.0822-0.54503-16.469-0.59365-24.361,0.34748-5.9998-0.66877-11.65-0.72964-17.755-0.95265-6.2847,0.15955-9.9632-1.1241-15.852,0.46373-2.8379,0.51679-8.5401-0.15324-12.782,1.0552-4.1792-0.35579-9.616-1.4666-14.573,3.4939-0.0936,3.8362-3.4311,6.1937-2.4527-0.44176-0.0386,9.185-0.38273,12.387,0.5621,5.6524-0.67228,10.434,1.168,15.646,0.76512,2.8372-0.65182,7.7759-0.85953,11.686-0.56383,2.5584,1.4804,9.826-2.3566,11.585,0.44836,0.53817-1.585,2.2755-0.0171,4.813-0.88563,3.7684,0.8524,9.5142-0.17654,12.407,0.97997,4.5643-1.0751,9.7912,1.3982,8.5428,7.2556,0.0603,5.9816-0.70213,13.084-2.1118,18.276,0.12353,5.4986-1.5858,12.287-1.9874,18.261-0.91921,5.6782-1.2153,9.8292-1.5211,15.507-0.49923,6.3065-0.29702,11.889-0.72383,17.809,0.88496,4.2358-0.70433,7.3139-0.0476,11.561-0.12459,4.2661,0.60559,8.5866-0.19129,13.244,0.73903,5.3732-1.9386,7.4996,0.0821,12.409-1.6419,6.4818-0.86236,9.4304-0.73857,15.601-0.0447,5.8605-0.14561,10.338-0.54537,16.435,0.64213,4.1948,0.71572,9.4835-4.8269,7.9706zm0.79151-8.2702c0.50332-5.0845-0.112-8.2991,0.43268-13.347,0.50429-5.0944,1.1469-7.7944-0.52956-12.61-4.5658-1.251-3.6157,0.95033-8.6947-0.4845-4.195-1.3183-9.7883,0.0365-13.937-1.0922-4.75-0.91285-11.118,0.17309-16.395-0.22804-5.6168-0.0901-12.076,1.309-18.122,0.33302-3.9336,0.17598-7.8293-2.02-5.635,4.0975-0.0821,6.014,0.37813,13.757-0.35868,18.743,2.089,4.2597-0.34426,8.1305,5.7786,7.3769,6.2108,0.26264,12.14-1.8181,18.553-2.2254,4.1151,1.111,8.0963,0.77963,12.977,1.3796,8.6134,0.94397,17.302,1.0085,25.931,1.8414,0.00028-1.2613-0.00056-2.5241,0.00044-3.7845zm-12.22-16.738c-3.3606,0.90185-14.48-5.5448-5.2073-3.5717,3.8249,1.648,13.667-1.5927,13.344,3.4273-2.7062,0.13581-5.4292,0.2923-8.1372,0.14446zm15.606,10.387zm-0.92293-7.8674zm-6.8448-16.115c3.257,1.0363,6.666,0.12738,5.1168-4.8051,1.5246-3.7463-0.45795-9.9046,0.88782-11.651-0.48938-4.4027,0.41926-8.8024-0.67091-13.208-0.061-3.9615,1.6595,0.33061,1.1463-2.8818-0.84277-6.9905-0.0614-13.613-0.11727-20.661-0.21531-6.6326,0.92644-13.61,1.3668-19.849,0.0562-3.8223,1.4098-10.891,2.2322-16.082,0.70436-5.9145,1.6233-8.8715,2.0531-14.784-1.1196,0.0387,0.43965-5.45-0.0642-7.9802-5.7093-0.46233-11.494,0.24207-17.159-0.54939-1.2212-0.96823-7.4954,0.50313-9.8297,0.11732-6.741-0.50854-13.674,0.4281-20.494,0.28248-7.305-0.33696-10.25-1.1059-16.863-1.2001-4.1862-0.61496-12.836-0.42567-9.9017,5.6017,2.1167,6.0036,0.0446,11.884,1.1399,17.872,0.48636,5.1461-0.70641,10.734,0.38894,14.399,0.17065,6.5484,0.68012,10.327,1.1224,16.949-0.52905,6.8867-0.009,12.633-0.47141,19.445,0.90313,5.2898,1.6229,11.193,0.54205,16.221,0.16885,4.4093,1.2562,8.5009,1.1057,13.188-0.9103,2.528-0.40141,6.5688,0.69292,9.2988,4.6955-2.1097,10.715,1.1203,15.714-0.62273,3.1567,0.13635,11.926-0.13753,14.714-1.1036,4.2056,0.41865,8.0176,1.1138,11.693,1.8136,5.1952-0.37963,6.9146-0.23163,11.87,0.26202,1.2546,0.75371,2.4898-0.32426,3.7841-0.0722zm-13.66-61.82c-3.5381-1.187-9.6623,0.13792-13.636-0.49872-2.4471-0.30698-8.1646,0.31226-9.9123-0.6737-2.0284,0.27089-8.4539,1.7211-9.5772-2.0309,2.5349-3.7682,9.9588-1.0972,14.709-1.6544,6.1668-0.20205,12.733-0.0472,18.824,0.11782,3.5433,0.66009,8.4074-1.4061,10.767,1.6297,6.2122,2.6528-3.5457,4.3779-7.2082,3.0505-1.4097-1.7568-1.49,0.92936-3.9674,0.0597zm-18.416-3.6626zm-12.601-0.4838zm32.764-14.144c-5.7185-0.65251-11.018-0.75968-15.644-0.78745-5.7755,0.35343-15.12,2.51-19.062-2.9072,1.0831-3.3978,10.354,0.0291,14.349-1.2403,5.9538-0.6377,11.424-0.45124,17.378,0.29254,4.6499-0.32386,10.386-0.0893,13.931,0.88427,4.2041-0.73804,4.8661,5.3553-0.83203,3.82-3.3596,0.12915-6.7748,0.27913-10.12-0.0618zm12.98-13.542c-5.246-0.55019-12.622,0.5128-18.539-1.1112-3.3179,1.6069-11.271,0.41164-15.959,0.3505-5.029-0.5808-11.616-0.24979-15.306-2.974-0.90585-2.8646-0.97665-2.6794,0.63207-1.3142,3.767-3.48,9.7638,1.6623,14.492-0.42706,6.3088,0.7455,12.667-0.67414,19.162,0.40488,6.1622,0.70246,10.694-0.47581,16.368,1.4798,1.539,0.99183,3.1125,5.6454-0.85151,3.5912zm-5.2594-3.5465zm-41.246-1.3243zm13.76,98.225zm40.631-12.593zm1.195-8.9879zm-69.71-11.331zm70.109-49.252zm0.79668-1.5231zm-0.79668-2.6132zm-16.068-28.387zm-38.107-0.47451zm81.727,73.062c-4.1412-3.1078-11.053-6.0443-11.777-12.03,1.0238-3.3896,7.6163-10.087,10.807-5.5102,2.6635,3.3943-5.8719,3.9136,1.1811,4.2859,7.2112,0.79174,14.369-1.5801,20.805-4.6524,5.5376-4.1257,9.311-9.1814,13.077-14.941,1.7212-2.5242,0.77384-11.284,3.8545-4.0386,1.5144,5.0989-2.7965,11.28-5.1575,13.8-2.4333,1.8239-5.2107,7.1284-9.1271,8.8823-4.3243,1.4055-6.7798,3.0454-11.491,4.0554-5.2904,2.0515-11.645,0.7161-16.751-0.46986-5.0579,0.18305-1.1271,2.8843,2.2784,5.7351,1.6664-0.47827,5.8569,6.6857,2.3013,4.8836zm-4.192-15.218z" fill="#000000"/>
 </g>
 <g transform="translate(-2.6191388,-98.665801)">
  <path d="m64.336,321.75c-5.0563-1.4436-8.4445-0.34284-13.988-0.62255-5.7201-0.0851-12.062,0.64427-17.297-1.8837-3.8724,0.75538-4.1661-7.1205-4.3233-11.292-0.27563-7.5564,0.2923-15.147-1.1076-22.618-0.62707-7.9713-1.3896-16.386-0.98551-24.127-0.89-5.1586,1.155-11.114,0.67396-16.09,0.95807-2.4908,0.48702-10.941,1.0419-16.558,0.51308-13.467-0.23617-26.968,0.95916-40.411-2.5502-5.8771,3.1597-11.482,8.355-8.5401,7.5976-0.6076,15.248-0.226,22.847-0.77158,5.4967,0.59343,12.027-0.0261,18.127-0.21588,8.492-0.31541,17.106-0.75641,25.53-0.93449,4.1636,1.0672,2.7435-3.3385,2.9378-5.7349-1.9224-6.2092,2.2365-9.2593,7.1167-7.3811,8.8125,0.27759,17.662,0.91132,26.449,1.7118,5.9787-1.2555,11.624,2.0967,10.132,8.1396,0.45714,4.8256,1.6853,10.701,1.8016,16.072-0.6522,7.6582,1.0049,15.399-0.22403,22.982,0.72275,3.442,0.48558,9.8468,0.0849,14.53,0.0151,7.1423-0.60393,14.363-0.35143,21.669,0.11628,7.1912-0.24534,14.53,0.55421,21.614-0.77459,5.2809,0.70265,11.466,0.28599,17.909,0.55243,5.4216,0.58505,10.588-0.70919,16.138-0.20953,5.84-2.6786,12.634-10.327,12.659-4.0375,0.0464-8.8612,0.0696-10.031,1.7024-0.59418-3.84-7.7613,0.76822-8.3395-1.5102-5.6972,0.95318-11.983,1.1164-17.405,0.3339-2.2662,1.0493-6.5052,0.81162-10.235,1.6441-4.7283,0.30423-9.5106,0.28784-13.955,0.90071-6.1431,0.439-11.729-1.1537-17.616,0.68384l-0.0022,0.00069zm19.026-4.1569c14.58-0.89412,29.159-2.3861,43.795-2.3148,3.9386-0.30195,8.5196-0.41049,12.772-0.30708,3.6095,0.86175,6.529-2.6214,7.3033-5.8333,2.0799-7.8972,1.9486-16.24,1.3524-24.318,0.15314-4.2956-0.69217-9.6978-0.32447-14.389-0.35338-16.217-0.42397-32.458,0.0246-48.67,0.63278-6.4104-0.25387-13.135-0.0812-19.67-0.48889-6.6888,1.0396-13.728-1.0693-20.102-5.2891-1.8108-12.643-1.9381-18.859-1.7469-13.197-0.37988-26.291,1.59-39.49,1.4635-5.6863-0.00065-11.809,0.9013-17.764,0.83203-6.3675-0.27926-12.624,0.18216-18.882,0.0423-7.7888,0.24068-10.095-0.36801-17.723,0.0267-2.6418,22.428-0.77018,45.293-2.8473,67.84-0.36408,9.1722-0.35641,18.393-0.08944,27.56,1.8131,10.981,0.873,22.242,2.2796,33.206-2.1628,9.3023,9.8308,5.6292,15.432,6.5147,11.389,0.0149,22.788,0.15777,34.171-0.13492zm-21.71-18.455c-2.773,0.16928-8.3802-2.6106-2.1062-1.685,2.5535,0.79584,7.2312,0.27127,7.226,1.6773-0.89932-0.96327-3.6136,1.4755-5.1198,0.008zm37.644-0.6282c-5.7602-2.4098-12.672,0.60245-17.803-1.3166-4.4315-1.6457-11.858,2.9324-13.908,0.15921,3.2115,0.35497,9.3345-2.7167,12.982-0.9085,5.1557-0.65208,6.7268,1.2461,10.74-0.55687,5.7299-0.65985,9.6667,3.5901,15.14,0.63361,4.8206,0.24038,9.8761-0.84618,14.358-0.55875,1.8559-2.2292,8.8348,3.8185,1.3884,1.7468-4.5355-0.98133-8.9618,0.5366-12.53,0.38896-2.1621-0.47733,2.5243-1.839-1.95-0.21684-3.2106,0.0271-4.032,2.2572-8.4163,0.62907zm-45.013-1.23c0.23026-1.3267,2.2364,0.9402,0.34942,0.28138l-0.34942-0.28138zm7.5388-13.196c-2.3446-0.78194-10.908-0.9592-7.8739-4.3988,4.9016,3.1573,7.337,1.8385,13.783,3.2888,4.913-1.1641,11.428-1.8845,14.085-1.805,3.5535-1.8885,10.459,0.13189,15.368,0.65115,4.2955-0.50141,6.2009,2.2332,2.4447,1.7968-6.6968-0.80492-13.493-2.3522-20.201-0.55136-1.9724-0.81579-5.1433,1.6643-6.9733,0.50511-2.4989,1.6793-7.4522,0.52409-10.633,0.51321zm12.868-1.3878zm1.5021-0.55612zm26.49,0.59762c0.60801-0.64354,7.8775-2.5358,12.141-2.834,2.602-0.45419,14.547,1.1969,6.8983,2.256-4.3022,0.44445-12.341-0.68662-12.447,0.55422-2.5614,0.38534-5.2065,1.5346-6.592,0.0238zm15.934-1.5702zm7.2468,1.0417zm-6.8485-3.6549zm-55.417-6.1567c-2.4525-1.0334-10.243-0.73088-9.3193-2.9105,4.3689-0.0817,9.6658,1.4131,14.521,0.98679,3.0439-0.24565,7.7966-2.5586,9.9705-1.5386,2.3212-1.9113,7.2734-1.49,11.001-2.4309,5.7735,0.46387,7.2655-0.54171,10.611,0.39087,3.1873-0.56555,8.7228,1.4769,10.591,1.9416-5.1991,1.8088-9.5646-2.7082-14.025-0.76261-4.0555-1.0855-1.7901-0.23636-6.0065-0.0324-4.4956,0.39789-12.271,1.7028-17.719,3.6343-3.2452,1.0946-6.9316,0.35559-9.6242,0.72137zm20.762-3.9794zm43.214,2.1581c-2.7759-1.3886-7.051,1.2435-8.9038-1.7128,2.8869,0.84749,5.5834-1.1552,8.8944-0.0661,1.046,0.3438,1.4849,2.6347,0.009,1.779zm-15.729-1.0148c1.9402-3.7355,9.5204,0.68199,3.318-0.40336-0.9622-0.85349-2.0369,0.79353-3.318,0.40336zm-53.115-8.7368c-2.7599-1.3493-8.084-1.69-5.2325-2.798,5.3591,0.57786,11.752,0.99987,17.352,0.64823,3.2926-1.3467,8.9305-1.0719,13.353-2.1925,4.9452,0.72752,9.4728,0.71008,14.798,1.6575,1.1791-0.47,5.7737-1.1772,9.2599-0.47099,1.0667,0.43518,5.2268-0.94027,6.2749-0.28673,1.5364-2.1533,8.0961-1.687,9.4765,0.74951-3.0294,1.3903-8.0246-1.4487-9.3252,0.10278-0.87201,0.2454-9.163,3.0142-11.337-0.1496-1.417,1.6105-4.6193,1.6495-8.4683,1.4725-5.7376-0.68139-9.1763-2.1156-14.802-0.29274-6.8604,0.38817-13.684,2.4833-20.557,1.1471-0.34324,0.20426-0.55115,1.9025-0.79229,0.41289zm37.978-2.1913zm-24.817-15.393c-5.6527-0.72421-11.728-0.80037-17.122-1.7737-9.9066,3.0472-6.9574-9.4493-8.7801-15.277,0.01118-4.6366,0.81948-14.836,6.4041-10.659,3.6795-2.7872,8.9793,0.12135,2.888,0.88034-3.4573,2.4029-6.3878-1.8144-6.513,4.3787-1.9869,6.4139,0.31268,9.7321,0.59912,16.775,1.2684,3.5881,9.2958,2.3304,11.342,2.6057,4.5916,1.4522,6.8711-0.35135,12.099,1.3796-2.3445-3.6688-0.82139-8.7056-1.1342-12.798-0.43238-3.2148,2.2792,2.7443,0.85072-1.5019-2.03-5.3391,4.2316-5.0834,0.18526-9.16-2.5567-0.21039-14.856-3.5254-6.383-3.1368,3.3209,1.4694,11.229-0.69122,9.0007,5.9564-0.90747,5.5144-2.0756,12.409-0.58314,18.614,1.9389,3.5015,1.1079,4.4656-2.8531,3.717zm36.179-2.1242c-4.7286-1.3932-10.304-3.8757-11.871-9.1792-1.3439-2.665-4.0684-4.9194-0.60957-5.8456-2.1508-0.5329,0.90603-5.044,2.3324-7.3774,5.8003-4.8367,11.466-0.32364,17.991-0.75036,4.5603-0.46605,8.7363,3.506,6.6406,7.8575,0.35054,3.4463,0.50039,9.1649-1.3983,10.772,0.23078,1.9861-4.837,5.8628-9.3924,4.8678-1.2023-0.0678-2.6005,0.2699-3.693-0.34464zm6.4039-2.4251c5.6439-1.1536,5.1959-10.07,5.1345-12.934,1.6952-7.3932-4.5088-4.566-9.2497-6.4025-5.5625-2.4034-11.794-0.16675-12.567,6.4851-2.3859,4.9068,2.182,9.4493,5.8511,11.738,2.9129,1.0882,7.1452,1.5661,10.832,1.1133zm-60.513-17.29zm6.4131-6.0752zm37.544-10.965c-3.6479-0.22163-9.7669-0.6226-12.116-0.60735-4.5068,0.35403-6.4159-1.1642-10.095-0.22493-2.4035-0.46525-5.0932-0.62871-9.2234-0.6682-5.8187,0.11898-11.673-0.23694-17.439-1.0962-3.9566,1.0353-15.125,3.832-12.471-4.2058-1.806-9.9868,9.6345-7.3189,15.734-7.3001,14.426,0.44127,28.858,1.4608,43.294,0.85704,3.9587,0.45242,10.175-0.68254,15.761-0.79452,5.6602,0.36553,11.855,0.19021,17.826,0.60686,5.2441,0.37939,15.842-3.3083,12.665,5.9419,1.0798,7.1385-5.2771,6.3502-10.186,6.2926-4.689-0.0961-6.7994,0.8762-11.055,0.89193-5.4717-0.14666-10.422,0.15546-13.831,0.17748-3.5415,0.0417-6.1449,0.35294-8.863,0.12923zm-2.9608-4.1238c5.8231,0.44269,12.101,0.32677,18.301,0.32775,4.8208,0.0395,10.277-0.95887,14.53-0.71894,3.1098-1.7128,9.7565,1.2913,10.982-2.3395,2.4055-7.5649-9.3253-0.90979-13.325-3.2793-6.5175-1.0325-13.046,0.0358-19.579,0.36958-5.5223,0.35752-11.532,0.91756-17.032-0.0879-3.3594,1.1843-9.3666,0.33119-12.596-0.2846-4.0556,1.4323-8.7848-0.2577-13.874,0.29651-6.1444-0.62044-13.143-0.91404-19.802-0.8595-4.6754-0.80217-4.0697,9.2558,1.5392,5.1734,5.6069,0.44892,9.9739-0.86477,16.139,0.24055,3.261-0.0819,6.3113,0.14998,9.3628,0.36274,6.2449-0.58509,12.824,0.43271,19.195,0.60577,2.4649,0.34942,3.5888,0.65215,6.1589,0.19339zm57.408,80.237zm-5.55-104.87c0.32652-4.4902-0.70398-6.8306-5.441-5.6734-6.5811-0.64243-12.716-0.94843-19.153-1.296-4.8614-0.52142-13.319-2.577-10.737,5.3973-1.65,6.1309,5.903,1.45,9.1432,2.6281,8.6762-0.24246,17.652-0.0793,25.955,1.7924,0.58781-0.82168,0.0147-1.9726,0.23302-2.8484z" fill="#000000"/>
 </g>
 <g style="word-spacing:0px;letter-spacing:0px;writing-mode:lr-tb;text-anchor:middle;text-align:center;" font-family="ChrisMcCormickTwentyEleven" font-size="40px" line-height="125%" font-stretch="normal" font-variant="normal" font-weight="bold" font-style="normal" fill="#000000">
  <path style="" d="m24.16,21.048c0.76822,0.93753,1.1523,2.168,1.1523,3.6914-0.15626,0.20836-0.23438,0.59899-0.23438,1.1719h0.23438c-0.000006,0.76826-0.15626,1.1524-0.46875,1.1523,0.15624,0.29951,0.23437,0.52737,0.23438,0.68359l-0.23438,2.0898c0.15624,0.28648,0.23437,0.51435,0.23438,0.68359l-0.46875,0.23438c0.15624,0.84638,0.23437,1.4584,0.23438,1.8359-0.000006,2.1485-0.22787,3.8477-0.68359,5.0977h0.23438c0.20833,0.000018,0.74218-0.54035,1.6016-1.6211,0.87239-0.76821,2.1094-1.1523,3.7109-1.1523,1.5495,0.000021,3.164,0.612,4.8438,1.8359,2.1484,1.849,3.2226,3.4636,3.2227,4.8438v2.3242c-0.57294,0.72918-0.95705,1.5755-1.1523,2.5391-0.58596,0.00001-1.4323,0.9961-2.5391,2.9883-1.224,0.67709-1.9141,1.5234-2.0703,2.5391l-0.46875-0.21484h-0.23438c-0.000013,1.0156-1.3086,1.9401-3.9258,2.7734h-2.0703c-1.028,0-2.799-0.39-5.312-1.171v-1.6016c0.61198,0.000004,0.91797-0.23437,0.91797-0.70312l-0.23438-1.1523c0.46875-3.7109,0.85937-6.25,1.1719-7.6172v-0.23438c-0.15625-0.27342-0.23438-0.57941-0.23438-0.91797-0.000003-0.15624,0.07812-0.23436,0.23438-0.23438-0.000003-0.15624-0.07813-0.23436-0.23438-0.23438l0.44922-2.0703-0.21484-0.46875,0.21484-1.1523c-0.144-0.276-0.216-0.582-0.216-0.92l0.44922-0.23438c-0.000003-0.15623-0.07813-0.23436-0.23438-0.23438,0.1302-1.6927,0.28646-2.539,0.46875-2.5391-0.000003-0.15623-0.07813-0.23435-0.23438-0.23438l0.23438-2.7734v-0.91797c-0.000003-0.15622,0.07812-0.23435,0.23438-0.23438l-0.23438-0.44922c-0.000003-0.15622,0.07812-0.23435,0.23438-0.23438l-0.23438-0.46875v-2.0703c-0.000003-0.35153-0.07813-0.66403-0.23438-0.9375l0.23438-0.44922c-0.000003-0.7682-0.22787-1.1523-0.68359-1.1523,0.14323-1.3932,0.91145-2.0898,2.3047-2.0898m1.6211,18.945c0.14322,0.2995,0.21484,0.52736,0.21484,0.68359-0.42969,0.000015-0.96355,1.4649-1.6016,4.3945-0.000005,0.15626,0.07161,0.23439,0.21484,0.23438-0.45573,2.0573-0.6836,3.4375-0.68359,4.1406v0.9375l-1.3867,0.23438v0.44922c0.53385,0.92448,0.91796,1.3867,1.1523,1.3867h2.0898c1.1979,0.000003,3.1966-1.5365,5.9961-4.6094,2.0703-2.5781,3.2226-4.4271,3.457-5.5469h0.23438c-1.1068-3.2292-2.7995-4.8437-5.0781-4.8438-0.000012-0.10415-0.22788-0.2604-0.68359-0.46875-1.875,0.65106-3.1836,1.6537-3.9258,3.0078"/>
  <path style="" d="m43.086,36.302,0.70312,0c-0.000004,0.15627,0.07161,0.38413,0.21484,0.68359l0.46875-0.23438h0.23438c0.45572,0.15627,0.68359,0.61851,0.68359,1.3867v0.46875c-0.5599,1.0287-0.94402,2.1029-1.1523,3.2227l-0.44922,0.23438c-0.000004,0.15626,0.07161,0.23439,0.21484,0.23438-0.29948,1.25-0.52735,2.7149-0.68359,4.3945,0.15625,0.000009,0.23437,0.07162,0.23438,0.21484-0.15625,0.000009-0.23438,0.07813-0.23438,0.23438h0.23438c1.0677-1.9922,1.7578-2.9883,2.0703-2.9883,0.53385-1.3802,1.5365-2.6172,3.0078-3.7109,1.6797-2.3047,3.4505-3.457,5.3125-3.457,1.8489,0.15627,2.7734,1.0026,2.7734,2.5391h-0.23438c0.15623,0.46877,0.30597,0.70314,0.44922,0.70312l-0.21484,1.1523v0.68359h-0.9375c-0.41668,0.000014-0.72267-0.76822-0.91797-2.3047-0.37762-0.31248-0.68361-0.46873-0.91797-0.46875-1.3932,0.37762-2.0899,0.99611-2.0898,1.8555-1.9792,1.224-3.0534,2.2982-3.2227,3.2227-1.1589,1.4714-2.0833,2.9362-2.7734,4.3945-1.276,2.5521-2.4284,4.1667-3.457,4.8438-1.237,0.000002-1.8555-1.1523-1.8555-3.457v-3.9258c-0.000001-0.15624,0.07812-0.23436,0.23438-0.23438-0.000001-0.15624-0.07813-0.23436-0.23438-0.23438,0.18229-1.3672,0.33854-2.2135,0.46875-2.5391-0.15625,0.000012-0.23438-0.07811-0.23438-0.23438h0.68359c-0.15625-0.28644-0.23438-0.51431-0.23438-0.68359,0.40364-3.2292,0.71614-4.8437,0.9375-4.8438,0.61198-0.46873,0.91796-0.85284,0.91797-1.1523"/>
  <path style="" d="m67.773,35.365c1.2239,0.15627,1.8359,0.39064,1.8359,0.70312l0.46875-0.23438c2.0833,0.00002,3.9323,1.6927,5.5469,5.0781,0.29946,1.4193,0.4492,2.2656,0.44922,2.5391-0.000018,2.0573-0.84637,4.3685-2.5391,6.9336-0.24741,0.000006-0.5534,0.306-0.91797,0.91797l-2.5391,2.7734c-2.0052,0.61198-3.4701,0.91797-4.3945,0.91797-2.7214-0.80729-4.5638-2.2656-5.5273-4.375-0.000002-0.15624,0.07161-0.23437,0.21484-0.23438-0.29948-0.55989-0.44922-1.1784-0.44922-1.8555-0.000001-0.33853,0.07812-0.64452,0.23438-0.91797-0.15625-0.27343-0.23438-0.57942-0.23438-0.91797v-0.46875l0.23438-0.46875c-0.3125,0.00001-0.46875-0.14973-0.46875-0.44922,0.97656-4.6224,1.9792-6.9336,3.0078-6.9336-0.000004-0.22134,0.6901-0.7617,2.0703-1.6211-0.000006-0.15623,0.23437-0.23436,0.70312-0.23438l-0.23438-0.44922,0.23438-0.46875,1.1523,0.23438c0.29947-0.15623,0.52734-0.23436,0.68359-0.23438-0.000008,0.15627,0.07812,0.2344,0.23438,0.23438l0.23438-0.46875m-6.0156,10.391,0.23438,0.46875c-0.000003,0.15626-0.07813,0.23438-0.23438,0.23438-0.000003,3.8412,1.6927,5.7617,5.0781,5.7617,1.25-0.0651,2.5586-0.7552,3.9258-2.0703-0.000012-0.52083,0.54035-1.2109,1.6211-2.0703,0.92446-2.2135,1.3867-3.5221,1.3867-3.9258v-0.46875c-0.000015-2.6562-1.3086-4.6549-3.9258-5.9961-1.3802,0.612-2.3828,0.91799-3.0078,0.91797-2.4609,0.85939-3.6914,1.8555-3.6914,2.9883-0.70313,1.6016-1.1654,2.9883-1.3867,4.1602"/>
  <path style="" d="m80.684,36.068c0.33854,0.2995,1.1068,0.68361,2.3047,1.1523-0.000005,0.23439,0.14973,0.54038,0.44922,0.91797l-0.21484,1.1523c0.14322,0.2995,0.21484,0.53387,0.21484,0.70312h-0.21484l0.21484,0.44922v0.70312c-0.000006,0.63804,0.07812,1.4844,0.23438,2.5391-0.15626,0.29949-0.23438,0.52736-0.23438,0.68359,0.31249,0.0521,0.46874,0.20834,0.46875,0.46875v0.23438l-0.23438,0.44922c0.26041,0.000011,0.57291,1.237,0.9375,3.7109l0.68359,0.44922c1.4323-3.151,2.3568-4.9935,2.7734-5.5273-0.15626,0.000011-0.23438-0.07811-0.23438-0.23438,1.6667-2.7734,2.7474-4.1601,3.2422-4.1602,0.45572,0.000017,0.68358-0.23436,0.68359-0.70312l0.70312,0.46875c0.03905-0.31248,0.18879-0.46873,0.44922-0.46875,0.46874,1.4844,0.93097,3.2552,1.3867,5.3125h-0.23438l0.23438,0.46875v0.68359h0.23438v2.0898h0.46875c0.67706-3.737,1.289-5.8919,1.8359-6.4648,1.263-3.2291,2.6497-4.8437,4.1602-4.8438h0.23438c0.37758,0.2995,0.68357,0.44924,0.91797,0.44922-0.00003,0.10419-0.30602,0.64455-0.91797,1.6211-1.5625,2.9037-2.7214,5.7487-3.4766,8.5352v0.23438c0.31248,0.000009,0.46873,0.07813,0.46875,0.23438-0.76825,1.8099-1.3867,3.6589-1.8555,5.5469-0.2995,0.000003-0.60549,0.22787-0.91797,0.68359-1.5365-0.20833-2.3047-0.97656-2.3047-2.3047-0.15626,0.000005-0.23439-0.07812-0.23438-0.23438-0.000015-0.15624,0.07811-0.23437,0.23438-0.23438-0.45574-1.5365-0.99611-4.1536-1.6211-7.8516-1.0807,1.0938-1.849,2.6367-2.3047,4.6289-1.3412,3.5417-2.5716,5.3125-3.6914,5.3125h-0.46875c-1.9271,0.000003-3.4635-3.5417-4.6094-10.625v-0.91797c-0.625,0.000015-0.9375-0.15624-0.9375-0.46875l0.23438-0.46875c-0.33854,0.000016-0.56641-0.30597-0.68359-0.91797h-0.23438v-0.23438c1.237-1.7969,1.8555-2.8711,1.8555-3.2227"/>
  <path style="" d="m116.46,36.986,0.46875-0.23438c1.5234,0.000019,2.6758,0.84637,3.457,2.5391v0.46875h-1.6211c-0.50783,0.000017-1.0417-0.23436-1.6016-0.70312-0.35158,0.000017-0.66408,0.07814-0.9375,0.23438l-0.44922-0.23438c-1.4453,0.000017-2.9883,0.46226-4.6289,1.3867-0.29948,0.0521-0.44922,0.20835-0.44921,0.46875v0.23438c0.53384,0.88543,1.8424,1.9596,3.9258,3.2227,2.4609,2.4219,3.6914,4.4271,3.6914,6.0156-0.26043,0.000006-0.72267,0.53386-1.3867,1.6016-1.3542,0.15625-2.2005,0.39063-2.5391,0.70312h-3.2422l-1.15,0.232c-0.00001-0.3125-0.0781-0.46875-0.23437-0.46875l-0.44922,0.23438c-2.0443-0.53385-3.5091-1.224-4.3945-2.0703v-0.46875c0.45572-0.50781,0.68359-0.89192,0.68359-1.1523h0.23437l0.46875,0.23438v-0.46875h0.23438c0.50781,0.000007,1.1979,0.38412,2.0703,1.1523,0.15625,0.000006,0.23437-0.07812,0.23438-0.23438,1.3151,0.31251,2.4674,0.46876,3.457,0.46875,2.1614-0.10416,3.2422-0.41015,3.2422-0.91797-1.7188-2.2526-3.4115-3.8737-5.0781-4.8633-0.52084-0.61197-1.0612-0.91796-1.6211-0.91797l-1.8555-2.3047c0.19531-2.0052,1.1979-3.0078,3.0078-3.0078,0.31249-0.83332,2.4674-1.3737,6.4648-1.6211v0.46875"/>
  <path style="" d="m135.37,35.13c0.29947,0.0521,0.44921,0.20835,0.44922,0.46875l0.46875-0.23438c0.36457,0.000021,0.90494,0.46226,1.6211,1.3867h0.21484c0.15623,1.9271,0.23436,3.0078,0.23437,3.2422-0.45574,1.836-1.224,3.2943-2.3047,4.375-1.3281,1.1458-2.793,1.9922-4.3945,2.5391v-0.21484l-0.44922,0.21484h-0.70313c-1.5365,0.000009-2.3047-0.14973-2.3047-0.44922l-0.46874,0.23438h-0.21485l-0.70312-0.46875h-0.6836l-0.23437,1.3867c0.61197,0.000008,0.91796,0.15626,0.91797,0.46875,0.93749,0.8724,3.0924,1.6406,6.4648,2.3047,2.2526,0.29948,3.4831,0.44922,3.6914,0.44922h1.3867c0.35155,0.35157,1.1979,0.58594,2.5391,0.70312v1.8359c-0.2995,0.000002-0.44924,0.15625-0.44922,0.46875h-0.23438c-0.15626,0.000002-0.23439-0.07812-0.23437-0.23438l-0.46875,0.23438h-0.21485c-0.15626,0.000002-0.23439-0.07812-0.23437-0.23438-0.15627,0.000002-0.23439,0.07813-0.23438,0.23438-3.9193,0.000002-6.9987-0.46224-9.2383-1.3867l-0.46875,0.23438-3.9258-2.0703c-0.92448-0.78124-1.3867-1.4779-1.3867-2.0898,0-0.22135-0.22786-0.44921-0.68359-0.68359,0.65104-3.9193,1.7318-6.7708,3.2422-8.5547,0.29947,0.000017,0.44921-0.14972,0.44922-0.44922-0.15626,0.000017-0.23438-0.07811-0.23438-0.23438,0.50781,0.000017,1.1263-0.46222,1.8555-1.3867,0.66406-0.15623,1.4323-0.46222,2.3047-0.91797-0.00001,0.14325,0.0781,0.21486,0.23437,0.21484v-0.21484c-0.15626,0.00002-0.23438-0.07811-0.23437-0.23438-0.00001-0.31248,1.543-0.62498,4.6289-0.9375m-2.3242,2.5586c-0.00001,0.2995-0.9961,0.68361-2.9883,1.1523l-2.7734,2.9883c-0.00001,0.37762-0.23438,0.76173-0.70313,1.1523v0.46875c1.3542,0.15626,2.3568,0.39064,3.0078,0.70312,2.9297-0.24738,4.3945-0.78775,4.3945-1.6211,1.224-0.93749,1.8359-2.3242,1.8359-4.1602h-0.23437c-0.14325,0.000017-0.21486-0.22785-0.21485-0.68359l-2.0898,0.21484c-0.00001-0.14321-0.0781-0.21483-0.23438-0.21484"/>
  <path style="" d="m146.21,36.302,0.70312,0c0,0.15627,0.0716,0.38413,0.21485,0.68359l0.46875-0.23438h0.23437c0.45572,0.15627,0.68359,0.61851,0.68359,1.3867v0.46875c-0.5599,1.0287-0.94401,2.1029-1.1523,3.2227l-0.44922,0.23438c0,0.15626,0.0716,0.23439,0.21485,0.23438-0.29949,1.25-0.52735,2.7149-0.6836,4.3945,0.15625,0.000009,0.23437,0.07162,0.23438,0.21484-0.15626,0.000009-0.23438,0.07813-0.23438,0.23438h0.23438c1.0677-1.9922,1.7578-2.9883,2.0703-2.9883,0.53385-1.3802,1.5364-2.6172,3.0078-3.7109,1.6797-2.3047,3.4505-3.457,5.3125-3.457,1.8489,0.15627,2.7734,1.0026,2.7734,2.5391h-0.23438c0.15624,0.46877,0.30598,0.70314,0.44922,0.70312l-0.21484,1.1523v0.68359h-0.9375c-0.41668,0.000014-0.72267-0.76822-0.91797-2.3047-0.37762-0.31248-0.68361-0.46873-0.91797-0.46875-1.3932,0.37762-2.0898,0.99611-2.0898,1.8555-1.9792,1.224-3.0534,2.2982-3.2227,3.2227-1.1589,1.4714-2.0833,2.9362-2.7734,4.3945-1.276,2.5521-2.4284,4.1667-3.457,4.8438-1.237,0.000002-1.8555-1.1523-1.8555-3.457v-3.9258c0-0.15624,0.0781-0.23436,0.23438-0.23438,0-0.15624-0.0781-0.23436-0.23438-0.23438,0.1823-1.3672,0.33855-2.2135,0.46875-2.5391-0.15625,0.000012-0.23437-0.07811-0.23437-0.23438h0.68359c-0.15625-0.28644-0.23437-0.51431-0.23437-0.68359,0.40364-3.2292,0.71614-4.8437,0.9375-4.8438,0.61197-0.46873,0.91796-0.85284,0.91797-1.1523"/>
 </g>
 <g style="word-spacing:0px;letter-spacing:0px;writing-mode:lr-tb;text-anchor:middle;text-align:center;" font-family="ChrisMcCormickTwentyEleven" font-size="40px" line-height="125%" font-stretch="normal" font-variant="normal" font-weight="bold" font-style="normal" fill="#000000">
  <path style="" d="m551.34,20,0.46875,0c0.27342,0.000034,0.57941,0.69665,0.91797,2.0898h0.46875c-0.11721,2.0052-0.27346,3.0078-0.46875,3.0078,0.31248,0.49482,0.46873,0.87893,0.46875,1.1523-0.15627,0.000027-0.46877,0.46227-0.9375,1.3867-0.45575,0.000026-0.68361,0.22789-0.68359,0.68359h-0.46875v-1.1523h-0.44922v1.1523c-0.31252,0.59898-1.5495,4.5248-3.7109,11.777-0.29949,0.000014-0.44923,0.306-0.44922,0.91797l0.23438,0.46875c-0.31252,0.66407-0.62502,1.5886-0.9375,2.7734-0.22137,0.02605-0.60548,0.95053-1.1524,2.7734-0.19532,0.000007-1.0417,1.2305-2.5391,3.6914-0.27345,0.15625-0.57944,0.23438-0.91797,0.23438l0.23438,0.44922v0.23438c-0.22137,0.000002-0.68361,0.23438-1.3867,0.70312-1.276,0.000001-2.1224-1.237-2.5391-3.7109l-0.70313-1.6016v-0.46875l0.23438-0.46875c-0.31251,0.000008-0.46876-0.14973-0.46875-0.44922-0.00001-0.15624,0.0781-0.23437,0.23437-0.23438,0-0.33853-0.30599-2.1875-0.91797-5.5469h0.23438c-0.15626-0.61196-0.39063-1.1523-0.70313-1.6211l0.23438-0.91797c-0.61198-3.9844-0.91797-6.6015-0.91797-7.8516v-1.8359l-0.23438-1.1719c0.15625,0.000027,0.23438-0.07159,0.23438-0.21484-0.29948-0.15622-0.53386-0.23435-0.70313-0.23438l0.23438-1.1523c0-0.3906-0.30599-0.62497-0.91797-0.70312v-0.44922h0.46875c0-0.62497-0.39063-1.1653-1.1719-1.6211-0.00001-0.42966-0.22787-0.73564-0.6836-0.91797,0.15625-0.62497,0.61849-0.93747,1.3867-0.9375v1.3867c0.45573,0.000032,0.68359,0.30602,0.68359,0.91797,0.10417,0.000032,0.49479-0.38408,1.1719-1.1523,1.3802,0.54691,2.0703,1.0091,2.0703,1.3867,0.45572,0.000031,0.68359,0.15628,0.6836,0.46875-0.00001,0.31253-0.14975,0.46878-0.44922,0.46875l0.44922,2.0703c-0.14324,0.29951-0.21485,0.52737-0.21485,0.68359l0.21485,1.1719-0.21485,0.44922,0.21485,1.3867v1.3867h-0.44922l0.44922,2.3047c-0.14324,0.2995-0.21485,0.53388-0.21485,0.70312l0.21485,0.44922-0.21485,0.46875c0.29947,0.49481,0.44921,0.87892,0.44922,1.1523h-0.23437c0.74218,2.4349,1.3607,5.9766,1.8555,10.625h0.46875v0.46875c-0.46875,0.000007-0.70313,0.14975-0.70312,0.44922h0.46875c0.88541-0.53385,2.1159-2.8385,3.6914-6.9141h0.46875v-1.3867c0.76821-1.6406,1.7643-4.4922,2.9883-8.5547l-0.23438-0.44922c0.52082-0.52081,0.98306-1.8294,1.3867-3.9258,0.49477,0.000027,0.95701-1.8489,1.3867-5.5469,0.5729-0.46872,1.1133-0.70309,1.6211-0.70312"/>
  <path style="" d="m560.54,22.324c2.6172,0.4167,4.388,1.1849,5.3125,2.3047,1.289,1.4714,2.4479,3.0078,3.4766,4.6094,1.224,1.9401,1.8359,3.7891,1.8359,5.5469-0.00001,0.15627-0.0781,0.23439-0.23437,0.23438l0.23437,0.46875v1.3672c-0.72918,2.3177-1.4974,3.4766-2.3047,3.4766-0.35157,0.92449-2.2005,1.4649-5.5469,1.6211v-0.23438l-0.44922,0.23438c-1.0807-0.11718-1.6211-0.27342-1.6211-0.46875-0.15626,0.000012-0.23438,0.07814-0.23438,0.23438-1.1589-0.31249-1.7708-0.46874-1.8359-0.46875,0,0.15626-0.0781,0.23439-0.23437,0.23438l0.23437,0.46875v0.91797c0,0.15626-0.0781,0.23438-0.23437,0.23438,0.27343,1.0677,0.57942,2.9102,0.91797,5.5273l-0.23438,0.46875,0.70313,1.8555c-0.15626,1.3802-0.54037,2.0703-1.1524,2.0703-1.7057,0-2.5586-0.84635-2.5586-2.5391v-0.23438l0.23438-0.46875c-0.29948,0.000004-0.44922-0.14974-0.44922-0.44922v-0.23438c0-0.45572,0.0716-0.68359,0.21484-0.68359l-0.44922-3.7109c0.11719-0.61197,0.26693-0.91796,0.44922-0.91797l-0.21484-0.46875v-1.6016c0-0.18228-0.15625-1.0286-0.46875-2.5391,0.61197,0.000015,0.91796-0.6966,0.91797-2.0898-0.29948,0.000016-0.44922-0.14972-0.44922-0.44922v-0.23438c0.29947-0.37759,0.44921-0.68358,0.44922-0.91797l-0.23438-1.1719h0.23438c-0.15626-0.29946-0.23438-0.52732-0.23438-0.68359,0.0521-2.6172,0.20833-3.9258,0.46875-3.9258l-0.23437-0.46875c-0.00001-0.15622,0.0781-0.23435,0.23437-0.23438l-0.23437-0.44922c-0.00001-0.15622,0.0781-0.23435,0.23437-0.23438,0-0.16924-0.0781-0.39711-0.23437-0.68359,0.19531-2.8906,1.0417-4.5898,2.5391-5.0977l1.1523-0.21484m-1.1523,5.7617,0.46875,0.23438c-0.31251,0.62502-0.46876,1.0873-0.46875,1.3867l0.23437,0.46875c-0.29948,0.52086-0.52734,1.5951-0.68359,3.2227l0.23437,0.46875-0.23437,0.44922,0.23437,2.0898c-0.15625,1.0807-0.23437,2.0052-0.23437,2.7734h0.23437c1.6927,0.02606,2.5391,0.1758,2.5391,0.44922l1.1523-0.23438h0.91797c0.15624,0.000015,0.23437,0.07814,0.23437,0.23438,3.2292-0.58592,4.8437-1.8164,4.8438-3.6914-0.15626-0.29946-0.23438-0.52732-0.23437-0.68359l0.23437-0.46875c-0.53386-2.5781-2.0703-5.1172-4.6094-7.6172-1.2891-1.237-2.4479-1.8554-3.4766-1.8555h-0.23438c-0.35157,0.000028-0.73568,0.92451-1.1523,2.7734"/>
  <path style="" d="m587.98,22.09c2.8125,0.000031,4.8177,1.1524,6.0156,3.457v0.23438h-0.23437l0.23437,0.46875v0.68359l-0.23437,1.1523h-0.70313v-0.44922l0.23438-0.46875h-0.23438c-0.2995,0.000026-0.44923,0.22789-0.44922,0.68359h-0.46875c-0.00001-0.92445-0.46225-1.3867-1.3867-1.3867l0.23437-0.44922c-0.15627,0.000028-0.23439,0.07815-0.23437,0.23438-2.1485-0.15622-3.2227-0.31247-3.2227-0.46875l-0.46875,0.23438c-0.35158,0.000028-0.65757-0.0781-0.91797-0.23438-3.724,0.87242-5.8789,1.7188-6.4648,2.5391-1.0807,0.31253-1.6211,0.61852-1.6211,0.91797v0.23438c0.72916,0.70315,1.9596,1.5495,3.6914,2.5391-0.00001,0.28648,0.92447,1.0547,2.7734,2.3047,0.27342,0.80731,0.81379,1.2696,1.6211,1.3867,2.1484,2.7474,3.2226,5.9831,3.2227,9.707v1.6211c-0.00002,2.9688-1.3867,4.6615-4.1602,5.0781-0.15626,0.000002-0.23439-0.07812-0.23437-0.23438l-1.1524,0.23438c-0.79428,0.000002-3.1771-0.92448-7.1484-2.7734-0.82031-1.849-1.3607-2.7734-1.6211-2.7734v-0.91797c0.16927,0.000008,0.40364-0.07812,0.70313-0.23438,1.9922,0.15626,2.9883,0.69662,2.9883,1.6211l2.3047,1.6016,0.46875-0.21484,1.1524,0.68359c0.27343-0.15624,0.58593-0.23437,0.9375-0.23438-0.00001,0.35157,0.3841,0.58594,1.1523,0.70312,1.5364-0.26041,2.3047-1.569,2.3047-3.9258h0.23437l0.44922,0.23438v-0.23438c-0.33855,0.000008-0.64454-0.84634-0.91797-2.5391,0.31249,0.00001,0.46874-0.15624,0.46875-0.46875-0.40366,0.000011-0.94402-1.3086-1.6211-3.9258-0.61199-0.07811-1.4583-1.0026-2.5391-2.7734,0.15624,0.000018,0.23436-0.07811,0.23437-0.23438h-0.23437c-0.00001,0.15627-0.0781,0.23439-0.23438,0.23438-2.0833-1.8489-3.2357-2.7734-3.457-2.7734-1.8229-1.0937-2.7474-1.7838-2.7734-2.0703-1.0807,0.000023-1.6211-0.23435-1.6211-0.70312l-0.47,0.232c-0.45573-0.82029-0.68359-1.4323-0.68359-1.8359,0.18229-0.69008,0.80078-1.3867,1.8555-2.0898-0.00001-0.29945,0.53385-0.76169,1.6016-1.3867l0.46875,0.23438c0.19531-0.72914,1.7318-1.5755,4.6094-2.5391,0.14322,0.000031,0.91796-0.15622,2.3242-0.46875-0.00001,0.15628,0.0716,0.23441,0.21485,0.23438-0.00002-0.29945,1.0026-0.52731,3.0078-0.68359"/>
 </g>
 <g style="writing-mode:lr-tb;letter-spacing:0px;text-anchor:middle;word-spacing:0px;text-align:center;" font-family="ChrisMcCormickTwentyEleven" transform="matrix(1.5219269,0,0,1.5219269,-167.73812,-127.89855)" font-size="30.36763382px" line-height="125%" font-stretch="normal" font-variant="normal" font-weight="bold" font-style="normal" fill="#000000">
  <path d="m300.8,135.84,0,0.53381,0.35587-0.17794,0.16311,1.5866c-0.10875,0.34601-0.22243,0.51901-0.34104,0.51898-0.00001,0.11865,0.0593,0.17796,0.17793,0.17794-0.2768,1.8683-0.51404,2.8025-0.71174,2.8025,0.23724,0.47451,0.35586,0.82544,0.35587,1.0528-0.18783,0.00002-0.42013,0.41026-0.69691,1.2307,0.22735,0.0297,0.34103,0.14336,0.34104,0.34105l-1.3938,3.5142c-0.00001,0.11864,0.0593,0.17795,0.17793,0.17793-0.0989,1.2851-0.21749,1.9276-0.35587,1.9276l0.17794,0.34104c-0.00001,0.12852-0.0593,0.30646-0.17794,0.53381,0.11861,0.63267,0.17793,1.1566,0.17794,1.5718v0.35587c-0.00001,0.11863-0.0593,0.17794-0.17794,0.17793l0.17794,0.34105-0.17794,0.35587c0.23724,0.0395,0.35586,0.15817,0.35587,0.35587h-0.35587c0.23724,0.46462,0.35586,0.86991,0.35587,1.2159l-0.35587,0.17794,0.17794,0.35587-0.17794,0.34104c0.23724,0.0395,0.35586,0.15817,0.35587,0.35587h-0.35587c0.23724,0.42507,0.35586,0.89463,0.35587,1.4086l-0.35587,0.16311,0.17794,0.35587-0.17794,0.35587c0.23724,0.0297,0.35586,0.14334,0.35587,0.34105h-0.35587l0.51898,1.7645c-0.00001,0.92922-0.23232,1.3938-0.69691,1.3938-0.00002,0.11862,0.0593,0.17793,0.17793,0.17793-0.11863,0.2076-0.17795,0.4399-0.17793,0.69692h-0.51898c-0.69198,0-1.1615-0.58323-1.4087-1.7497,0.13839-0.18782,0.25701-0.77105,0.35587-1.7497-0.00001-0.11862-0.0593-0.17793-0.17793-0.17793l0.17793-0.87485v-1.2307c-0.00001-0.25701-0.0593-0.48932-0.17793-0.69691,0.11861-0.20759,0.17792-0.43989,0.17793-0.69692v-1.0528c-0.00001-0.2669-0.0593-0.50414-0.17793-0.71174,0.11861-0.92921,0.23229-1.3938,0.34104-1.3938l-0.16311-0.35587v-2.9804c-0.00001-0.11861,0.0544-0.17792,0.16311-0.17793-0.10875-0.22735-0.16312-0.40034-0.16311-0.51898h-0.17793c-0.35588,0.23726-0.76612,0.41025-1.2307,0.51898l-1.0528-0.16311c-0.77106,0.00001-1.6459,0.40531-2.6245,1.2159-0.00001,0.65244-0.35093,1.4136-1.0528,2.2835,0,0.11864,0.0593,0.17795,0.17794,0.17794l-0.17794,0.87485v1.2307h-0.35587c0,0.22737,0.17794,0.34105,0.53381,0.34104l-0.17794,0.87485v1.2307h-0.35587c0,0.35587,0.17794,0.53381,0.53381,0.5338l-0.17794,0.87485v1.2159h-0.35587l0.17794,0.35587c0,0.11862-0.0593,0.17793-0.17794,0.17793l0.53381,0.87485c0,0.53381-0.58818,0.88474-1.7645,1.0528l-0.51897-0.69691,0.17793-0.35587-0.17793-0.87485c-0.00001-0.0988,0.0593-0.5684,0.17793-1.4086l-0.17793-1.0528h0.17793l-0.17793-0.34104c-0.00001-0.089,0.0593-0.43989,0.17793-1.0528l-0.17793-1.2307h0.17793c0-0.11862-0.0593-0.17793-0.17793-0.17794-0.00001-0.089,0.0593-0.43989,0.17793-1.0528l-0.17793-0.87485c-0.00001-0.22735,0.0593-0.34104,0.17793-0.34105l-0.17793-2.1056v-3.5142c-0.00001-0.1186,0.0593-0.17792,0.17793-0.17793,0-0.10872-0.0593-0.16309-0.17793-0.16311l0.17793-0.71174c0.11862-3.1237,0.17793-5.0514,0.17794-5.7829-0.11863-0.34596-0.23725-0.51896-0.35587-0.51898l0.17793-0.87485c0-0.12848-0.0593-0.30642-0.17793-0.5338-0.00001-0.70183,0.64254-1.1121,1.9276-1.2307l0.5338,0.5338-0.17793,0.35587c0.22736,0.37567,0.34104,0.72165,0.34104,1.038l-0.16311,0.71174c0.10874,0.19773,0.16311,0.43003,0.16311,0.69692l-0.34104,0.87484c0.22736,0.0396,0.34104,0.15819,0.34104,0.35587-0.34599,0.00003-0.51898,0.41027-0.51898,1.2307v1.9276c0,0.4152-0.0593,0.93912-0.17793,1.5718,0.11862,0.22738,0.17793,0.40037,0.17793,0.51898l-0.35587,0.88967c0.11862,0.00002,0.17794,0.0544,0.17794,0.16311-0.23725,0.00002-0.35588,0.0593-0.35587,0.17794,0.11862,0.22737,0.17793,0.40531,0.17793,0.5338h-0.17793c0.11862,0.0692,0.17793,0.59313,0.17793,1.5718h0.17794c0.65242-1.5619,1.4136-2.496,2.2835-2.8025,1.374-0.55356,2.7728-0.9638,4.1963-1.2307l0.17794-0.34104v-1.7645c-0.00001-0.257,0.0593-0.48931,0.17793-0.69692l-0.17793-0.35587c0.49425-2.5702,0.90449-3.8552,1.2307-3.8553l-0.17794-0.34105c-0.00001-0.43493,0.29161-1.1368,0.87485-2.1056,0.0692-0.47446,0.53874-0.71171,1.4086-0.71174"/>
  <path d="m311.3,137.79c0.70185,0.00003,1.0528,0.52395,1.0528,1.5718v0.69691c-0.00001,0.11865-0.0593,0.17796-0.17793,0.17794,0.11861,0.19772,0.17792,0.48934,0.17793,0.87484l0.51898-0.34104h0.17794c0.11861,0.00002,0.17792,0.0544,0.17793,0.16311l0.35587-0.16311c1.5223,0.26693,2.5158,0.55854,2.9804,0.87485l0.16311-0.35587c1.6706,0.1483,3.015,0.61785,4.0332,1.4086l-0.16311,0.34105v1.0528l-3.1584-0.87485c-0.00002,0.23727-0.11864,0.35589-0.35587,0.35587h-0.17794v-0.35587h-1.0528c-0.10875,0.00002-0.16312-0.0593-0.16311-0.17793-0.11863,0.00002-0.17795,0.0593-0.17793,0.17793-1.9771-0.23723-3.1485-0.35585-3.5142-0.35587-0.11863,0.58325-0.23231,0.87487-0.34104,0.87485l0.16311,0.35587v0.17794c-0.00001,0.50416-0.11369,0.97372-0.34104,1.4086,0.22735,0.0297,0.34103,0.14336,0.34104,0.34104v0.87485c-0.00001,0.58325-0.11369,0.87487-0.34104,0.87485,0.11861,0.22738,0.17792,0.40531,0.17793,0.53381l-0.17793,1.5718c-0.00001,0.70187,0.17298,1.0528,0.51897,1.0528l-0.17793,0.69692c-0.00001,0.12852,0.0593,0.30645,0.17793,0.5338l-0.17793,1.0528v0.51898l0.17793,0.87485h-0.17793c0.23724,0.23725,0.41517,1.2307,0.5338,2.9804h-0.17793c0.23724,0.38553,0.35586,0.68209,0.35587,0.88968v0.51898h0.17793v0.69691c-0.00001,1.0577-0.52887,1.5866-1.5866,1.5866h-0.17793c-0.40531,0-0.75623-1.5223-1.0528-4.567h0.17794c-0.11863-0.22735-0.17794-0.40034-0.17794-0.51897,0-0.74139-0.0544-2.2637-0.1631-4.567h0.1631l-0.34104-1.5718,0.17794-1.0528v-0.69691c-0.00001-0.35586-0.0593-0.53379-0.17794-0.53381,0.11862,0.00002,0.17793-1.636,0.17794-4.908-0.2076-0.10872-0.44485-0.16309-0.71174-0.16311l-1.2159,0.34105h-0.88967l-0.51898-0.34105h-0.17794v0.34105h-0.17793c-0.10874,0.00002-0.16311-0.0593-0.16311-0.17794l-0.35587,0.17794h-0.53381c-0.64254,0.00002-1.1665-0.35091-1.5718-1.0528,0-0.32619,0.17299-0.90942,0.51898-1.7497h0.35587c1.7102,0.23726,2.6443,0.35589,2.8025,0.35587h0.17794v0.34104c0.54368-0.22734,1.0676-0.34102,1.5718-0.34104v0.17793l0.35587-0.17793h0.17794v0.34104l0.87485-0.16311v-1.4086h-1.2307v-0.35587l0.71174-0.87485,1.5718-0.34105"/>
  <path d="m330.75,137.79c0.70184,0.00003,1.0528,0.52395,1.0528,1.5718v0.69691c-0.00001,0.11865-0.0593,0.17796-0.17794,0.17794,0.11862,0.19772,0.17793,0.48934,0.17794,0.87484l0.51898-0.34104h0.17793c0.11862,0.00002,0.17793,0.0544,0.17794,0.16311l0.35587-0.16311c1.5223,0.26693,2.5158,0.55854,2.9804,0.87485l0.1631-0.35587c1.6706,0.1483,3.015,0.61785,4.0332,1.4086l-0.16311,0.34105v1.0528l-3.1584-0.87485c-0.00002,0.23727-0.11864,0.35589-0.35588,0.35587h-0.17793v-0.35587h-1.0528c-0.10875,0.00002-0.16312-0.0593-0.1631-0.17793-0.11864,0.00002-0.17795,0.0593-0.17794,0.17793-1.9771-0.23723-3.1485-0.35585-3.5142-0.35587-0.11863,0.58325-0.23231,0.87487-0.34104,0.87485l0.1631,0.35587v0.17794c-0.00001,0.50416-0.11369,0.97372-0.34104,1.4086,0.22735,0.0297,0.34103,0.14336,0.34104,0.34104v0.87485c-0.00001,0.58325-0.11369,0.87487-0.34104,0.87485,0.11862,0.22738,0.17793,0.40531,0.17794,0.53381l-0.17794,1.5718c-0.00001,0.70187,0.17298,1.0528,0.51898,1.0528l-0.17794,0.69692c-0.00001,0.12852,0.0593,0.30645,0.17794,0.5338l-0.17794,1.0528v0.51898l0.17794,0.87485h-0.17794c0.23724,0.23725,0.41518,1.2307,0.53381,2.9804h-0.17794c0.23724,0.38553,0.35586,0.68209,0.35587,0.88968v0.51898h0.17794v0.69691c-0.00001,1.0577-0.52887,1.5866-1.5866,1.5866h-0.17794c-0.4053,0-0.75623-1.5223-1.0528-4.567h0.17794c-0.11864-0.22735-0.17795-0.40034-0.17794-0.51897-0.00001-0.74139-0.0544-2.2637-0.16311-4.567h0.16311l-0.34104-1.5718,0.17793-1.0528v-0.69691c0-0.35586-0.0593-0.53379-0.17793-0.53381,0.11861,0.00002,0.17793-1.636,0.17793-4.908-0.2076-0.10872-0.44484-0.16309-0.71174-0.16311l-1.2159,0.34105h-0.88968l-0.51897-0.34105h-0.17794v0.34105h-0.17794c-0.10874,0.00002-0.16311-0.0593-0.1631-0.17794l-0.35587,0.17794h-0.53381c-0.64255,0.00002-1.1665-0.35091-1.5718-1.0528,0-0.32619,0.17299-0.90942,0.51898-1.7497h0.35587c1.7102,0.23726,2.6443,0.35589,2.8025,0.35587h0.17793v0.34104c0.54369-0.22734,1.0676-0.34102,1.5718-0.34104v0.17793l0.35587-0.17793h0.17793v0.34104l0.87485-0.16311v-1.4086h-1.2307v-0.35587l0.71174-0.87485,1.5718-0.34105"/>
  <path d="m345.82,138.66c1.9869,0.31636,3.3313,0.89959,4.0332,1.7497,0.97864,1.1171,1.8584,2.2835,2.6394,3.4994,0.92921,1.4729,1.3938,2.8766,1.3938,4.2111-0.00001,0.11864-0.0593,0.17795-0.17793,0.17794l0.17793,0.35587v1.038c-0.55359,1.7596-1.1368,2.6394-1.7497,2.6394-0.26691,0.70186-1.6706,1.1121-4.2111,1.2307v-0.17794l-0.34105,0.17794c-0.82048-0.089-1.2307-0.20758-1.2307-0.35587-0.11862,0.00001-0.17794,0.0593-0.17793,0.17793-0.8798-0.23723-1.3444-0.35586-1.3938-0.35587,0,0.11864-0.0593,0.17795-0.17793,0.17794l0.17793,0.35587v0.69691c0,0.11863-0.0593,0.17795-0.17793,0.17794,0.20759,0.8106,0.43989,2.2094,0.69691,4.1963l-0.17793,0.35587,0.5338,1.4086c-0.11863,1.0478-0.41024,1.5718-0.87485,1.5718-1.295,0-1.9425-0.64254-1.9425-1.9276v-0.196l0.17794-0.35587c-0.22737,0-0.34105-0.11368-0.34105-0.34105v-0.17793c0-0.34598,0.0544-0.51898,0.16311-0.51898l-0.34104-2.8173c0.089-0.4646,0.20265-0.69691,0.34104-0.69691l-0.16311-0.35587v-1.2159c0-0.13838-0.11862-0.78093-0.35587-1.9276,0.46461,0.00001,0.69692-0.52885,0.69692-1.5866-0.22737,0.00001-0.34105-0.11367-0.34105-0.34104v-0.17794c0.22736-0.28666,0.34105-0.51896,0.34105-0.69691l-0.17794-0.88968h0.17794c-0.11863-0.22734-0.17794-0.40034-0.17794-0.51898,0.0395-1.9869,0.15816-2.9804,0.35587-2.9804l-0.17793-0.35587c0-0.11861,0.0593-0.17792,0.17793-0.17794l-0.17793-0.34104c0-0.11861,0.0593-0.17792,0.17793-0.17794,0-0.12849-0.0593-0.30148-0.17793-0.51898,0.14827-2.1945,0.79082-3.4845,1.9276-3.8701l0.87485-0.16311m-0.87485,4.3742,0.35587,0.17793c-0.23725,0.47452-0.35587,0.82544-0.35587,1.0528l0.17794,0.35587c-0.22737,0.39543-0.40036,1.211-0.51898,2.4466l0.17793,0.35587-0.17793,0.34104,0.17793,1.5866c-0.11862,0.82049-0.17794,1.5224-0.17793,2.1056h0.17793c1.2851,0.0198,1.9276,0.13346,1.9276,0.34104l0.87484-0.17793h0.69692c0.11861,0.00001,0.17793,0.0593,0.17793,0.17793,2.4516-0.44482,3.6773-1.379,3.6773-2.8025-0.11863-0.22735-0.17794-0.40034-0.17793-0.51898l0.17793-0.35587c-0.4053-1.9573-1.5718-3.8849-3.4994-5.7829-0.97865-0.93908-1.8584-1.4086-2.6394-1.4086h-0.17793c-0.26691,0.00002-0.55852,0.70188-0.87485,2.1056"/>
 </g>
 <g style="word-spacing:0px;letter-spacing:0px;writing-mode:lr-tb;text-anchor:middle;text-align:center;" font-family="ChrisMcCormickTwentyEleven" font-size="40px" line-height="125%" font-stretch="normal" font-variant="normal" font-weight="bold" font-style="normal" fill="#000000">
  <path style="" d="m629.53,75.199,0.46875-0.23438c1.5234,0.000019,2.6758,0.84637,3.457,2.5391v0.46875h-1.6211c-0.50783,0.000016-1.0417-0.23436-1.6016-0.70312-0.35158,0.000017-0.66408,0.07814-0.9375,0.23438l-0.44922-0.23438c-1.4453,0.000017-2.9883,0.46226-4.6289,1.3867-0.29948,0.0521-0.44922,0.20835-0.44921,0.46875v0.23438c0.53384,0.88543,1.8424,1.9596,3.9258,3.2227,2.4609,2.4219,3.6914,4.4271,3.6914,6.0156-0.26043,0.000006-0.72267,0.53386-1.3867,1.6016-1.3542,0.15625-2.2005,0.39063-2.5391,0.70312h-3.2422l-1.1523,0.23438c-0.00001-0.3125-0.0781-0.46875-0.23437-0.46875l-0.44922,0.23438c-2.0443-0.53385-3.5091-1.224-4.3945-2.0703v-0.46875c0.45572-0.50781,0.68359-0.89192,0.68359-1.1523h0.23437l0.46875,0.23438v-0.46875h0.23438c0.50781,0.000007,1.1979,0.38412,2.0703,1.1523,0.15625,0.000006,0.23437-0.07812,0.23438-0.23438,1.3151,0.31251,2.4674,0.46876,3.457,0.46875,2.1614-0.10416,3.2422-0.41015,3.2422-0.91797-1.7188-2.2526-3.4115-3.8737-5.0781-4.8633-0.52084-0.61197-1.0612-0.91796-1.6211-0.91797l-1.8555-2.3047c0.19531-2.0052,1.1979-3.0078,3.0078-3.0078,0.31249-0.83331,2.4674-1.3737,6.4648-1.6211v0.46875"/>
  <path style="" d="m648.44,73.344c0.29947,0.0521,0.44921,0.20835,0.44922,0.46875l0.46875-0.23438c0.36457,0.00002,0.90494,0.46226,1.6211,1.3867h0.21484c0.15623,1.9271,0.23436,3.0078,0.23438,3.2422-0.45575,1.836-1.224,3.2943-2.3047,4.375-1.3281,1.1458-2.793,1.9922-4.3945,2.5391v-0.21484l-0.44922,0.21484h-0.70313c-1.5365,0.000009-2.3047-0.14973-2.3047-0.44922l-0.46875,0.23438h-0.21485l-0.70312-0.46875h-0.6836l-0.23437,1.3867c0.61197,0.000008,0.91796,0.15626,0.91797,0.46875,0.93749,0.8724,3.0924,1.6406,6.4648,2.3047,2.2526,0.29948,3.4831,0.44922,3.6914,0.44922h1.3867c0.35154,0.35157,1.1979,0.58594,2.5391,0.70312v1.8359c-0.2995,0.000003-0.44924,0.15625-0.44922,0.46875h-0.23438c-0.15626,0.000002-0.23439-0.07812-0.23437-0.23438l-0.46875,0.23438h-0.21484c-0.15627,0.000002-0.2344-0.07812-0.23438-0.23438-0.15627,0.000003-0.23439,0.07813-0.23437,0.23438-3.9193,0.000002-6.9987-0.46224-9.2383-1.3867l-0.46875,0.23438-3.9258-2.0703c-0.92448-0.78124-1.3867-1.4779-1.3867-2.0898,0-0.22135-0.22786-0.44921-0.68359-0.68359,0.65104-3.9193,1.7318-6.7708,3.2422-8.5547,0.29947,0.000017,0.44921-0.14972,0.44922-0.44922-0.15626,0.000017-0.23438-0.07811-0.23438-0.23438,0.50781,0.000018,1.1263-0.46222,1.8555-1.3867,0.66406-0.15623,1.4323-0.46222,2.3047-0.91797-0.00001,0.14325,0.0781,0.21486,0.23437,0.21484v-0.21484c-0.15626,0.000019-0.23438-0.07811-0.23437-0.23438-0.00001-0.31248,1.543-0.62498,4.6289-0.9375m-2.3242,2.5586c-0.00002,0.2995-0.99611,0.68361-2.9883,1.1523l-2.7734,2.9883c-0.00001,0.37762-0.23438,0.76173-0.70313,1.1523v0.46875c1.3542,0.15626,2.3568,0.39064,3.0078,0.70312,2.9297-0.24738,4.3945-0.78775,4.3945-1.6211,1.2239-0.93749,1.8359-2.3242,1.8359-4.1602h-0.23437c-0.14324,0.000018-0.21486-0.22785-0.21485-0.68359l-2.0898,0.21484c-0.00001-0.14321-0.0781-0.21482-0.23437-0.21484"/>
  <path style="" d="m659.28,74.516,0.70312,0c0,0.15627,0.0716,0.38413,0.21485,0.68359l0.46875-0.23438h0.23437c0.45573,0.15627,0.68359,0.61851,0.6836,1.3867v0.46875c-0.55991,1.0287-0.94402,2.1029-1.1524,3.2227l-0.44922,0.23438c0,0.15626,0.0716,0.23439,0.21485,0.23438-0.29949,1.25-0.52735,2.7149-0.6836,4.3945,0.15625,0.000009,0.23437,0.07162,0.23438,0.21484-0.15626,0.000009-0.23438,0.07813-0.23438,0.23438h0.23438c1.0677-1.9922,1.7578-2.9883,2.0703-2.9883,0.53385-1.3802,1.5364-2.6172,3.0078-3.7109,1.6797-2.3047,3.4505-3.457,5.3125-3.457,1.849,0.15627,2.7734,1.0026,2.7734,2.5391h-0.23437c0.15623,0.46877,0.30597,0.70314,0.44921,0.70312l-0.21484,1.1523v0.68359h-0.9375c-0.41668,0.000013-0.72267-0.76822-0.91797-2.3047-0.37762-0.31248-0.68361-0.46873-0.91797-0.46875-1.3932,0.37762-2.0898,0.99611-2.0898,1.8555-1.9792,1.224-3.0534,2.2982-3.2227,3.2227-1.1589,1.4714-2.0833,2.9362-2.7734,4.3945-1.276,2.5521-2.4284,4.1667-3.457,4.8438-1.237,0.000003-1.8555-1.1523-1.8555-3.457v-3.9258c-0.00001-0.15624,0.0781-0.23436,0.23437-0.23438,0-0.15624-0.0781-0.23436-0.23437-0.23438,0.18229-1.3672,0.33854-2.2135,0.46875-2.5391-0.15626,0.000013-0.23438-0.07811-0.23438-0.23438h0.68359c-0.15625-0.28644-0.23437-0.51431-0.23437-0.68359,0.40364-3.2292,0.71614-4.8437,0.9375-4.8438,0.61198-0.46873,0.91796-0.85285,0.91797-1.1523"/>
  <path style="" d="m677.03,72.426c1.6927,0.000022,2.5391,0.84638,2.5391,2.5391,0.1953,1.9662,0.35155,3.0469,0.46875,3.2422h-0.70313v0.23438c0.40364,0.000016,0.78776,1.6927,1.1524,5.0781h-0.21485c0.39062,0.79428,0.85286,2.2526,1.3867,4.375,0.80728,0.92448,1.263,1.3867,1.3672,1.3867,0.62499-0.55989,1.6276-2.7148,3.0078-6.4648-0.15626,0.000011-0.23439-0.07811-0.23437-0.23438,0.46873,0.000012,1.1654-1.6146,2.0898-4.8438,1.1198-2.6172,1.9661-3.9258,2.5391-3.9258,0.29947-0.15623,0.52733-0.23436,0.6836-0.23438l0.46875,0.23438c0.29946-0.15623,0.52732-0.23436,0.68359-0.23438v0.23438c-0.11721,0.612-0.26694,0.91799-0.44922,0.91797l0.23438,0.46875v0.23438c-0.16929,0.0521-1.3282,2.5912-3.4766,7.6172l0.23438,0.46875v0.21484c-0.24741,0.26043-0.78778,1.3412-1.6211,3.2422,0.15624,0.29949,0.23437,0.52735,0.23438,0.68359-0.1172,0.000006-1.0417,1.3867-2.7734,4.1602-0.4948,0.3125-0.87891,0.46875-1.1523,0.46875-1.6016,0.000002-2.7539-0.76823-3.457-2.3047-0.92449-1.5104-1.3867-2.6693-1.3867-3.4766,0.15624,0.000008,0.23437-0.07161,0.23437-0.21484-0.72917,0.000007-1.2695-2.2331-1.6211-6.6992-0.20834-0.23436-0.59245-1.9271-1.1523-5.0781-0.15626,0.000019-0.23438-0.23436-0.23438-0.70312,0.76823-0.72915,1.1523-1.1914,1.1523-1.3867"/>
  <path style="" d="m707.27,73.344c0.29946,0.0521,0.4492,0.20835,0.44922,0.46875l0.46875-0.23438c0.36457,0.00002,0.90493,0.46226,1.6211,1.3867h0.21485c0.15623,1.9271,0.23435,3.0078,0.23437,3.2422-0.45574,1.836-1.224,3.2943-2.3047,4.375-1.3281,1.1458-2.793,1.9922-4.3945,2.5391v-0.21484l-0.44922,0.21484h-0.70312c-1.5365,0.000009-2.3047-0.14973-2.3047-0.44922l-0.46875,0.23438h-0.21484l-0.70313-0.46875h-0.68359l-0.23438,1.3867c0.61198,0.000008,0.91797,0.15626,0.91797,0.46875,0.9375,0.8724,3.0924,1.6406,6.4648,2.3047,2.2526,0.29948,3.483,0.44922,3.6914,0.44922h1.3867c0.35155,0.35157,1.1979,0.58594,2.5391,0.70312v1.8359c-0.29949,0.000003-0.44923,0.15625-0.44922,0.46875h-0.23437c-0.15627,0.000002-0.23439-0.07812-0.23438-0.23438l-0.46875,0.23438h-0.21484c-0.15627,0.000002-0.23439-0.07812-0.23437-0.23438-0.15627,0.000003-0.2344,0.07813-0.23438,0.23438-3.9193,0.000002-6.9987-0.46224-9.2383-1.3867l-0.46875,0.23438-3.9258-2.0703c-0.92448-0.78124-1.3867-1.4779-1.3867-2.0898,0-0.22135-0.22787-0.44921-0.68359-0.68359,0.65104-3.9193,1.7318-6.7708,3.2422-8.5547,0.29948,0.000017,0.44922-0.14972,0.44922-0.44922-0.15625,0.000017-0.23438-0.07811-0.23437-0.23438,0.5078,0.000018,1.1263-0.46222,1.8555-1.3867,0.66405-0.15623,1.4323-0.46222,2.3047-0.91797-0.00001,0.14325,0.0781,0.21486,0.23438,0.21484v-0.21484c-0.15626,0.000019-0.23439-0.07811-0.23438-0.23438-0.00001-0.31248,1.543-0.62498,4.6289-0.9375m-2.3242,2.5586c-0.00001,0.2995-0.9961,0.68361-2.9883,1.1523l-2.7734,2.9883c0,0.37762-0.23438,0.76173-0.70312,1.1523v0.46875c1.3542,0.15626,2.3568,0.39064,3.0078,0.70312,2.9297-0.24738,4.3945-0.78775,4.3945-1.6211,1.224-0.93749,1.8359-2.3242,1.8359-4.1602h-0.23438c-0.14324,0.000018-0.21485-0.22785-0.21484-0.68359l-2.0898,0.21484c-0.00002-0.14321-0.0781-0.21482-0.23438-0.21484"/>
  <path style="" d="m718.11,74.516,0.70313,0c-0.00001,0.15627,0.0716,0.38413,0.21484,0.68359l0.46875-0.23438h0.23438c0.45572,0.15627,0.68358,0.61851,0.68359,1.3867v0.46875c-0.5599,1.0287-0.94401,2.1029-1.1523,3.2227l-0.44922,0.23438c-0.00001,0.15626,0.0716,0.23439,0.21484,0.23438-0.29948,1.25-0.52735,2.7149-0.68359,4.3945,0.15624,0.000009,0.23437,0.07162,0.23437,0.21484-0.15625,0.000009-0.23438,0.07813-0.23437,0.23438h0.23437c1.0677-1.9922,1.7578-2.9883,2.0703-2.9883,0.53384-1.3802,1.5364-2.6172,3.0078-3.7109,1.6797-2.3047,3.4505-3.457,5.3125-3.457,1.8489,0.15627,2.7734,1.0026,2.7734,2.5391h-0.23438c0.15623,0.46877,0.30597,0.70314,0.44922,0.70312l-0.21484,1.1523v0.68359h-0.9375c-0.41669,0.000013-0.72268-0.76822-0.91797-2.3047-0.37762-0.31248-0.68361-0.46873-0.91797-0.46875-1.3932,0.37762-2.0899,0.99611-2.0898,1.8555-1.9792,1.224-3.0534,2.2982-3.2226,3.2227-1.1589,1.4714-2.0833,2.9362-2.7734,4.3945-1.276,2.5521-2.4284,4.1667-3.457,4.8438-1.237,0.000003-1.8555-1.1523-1.8555-3.457v-3.9258c0-0.15624,0.0781-0.23436,0.23438-0.23438-0.00001-0.15624-0.0781-0.23436-0.23438-0.23438,0.18229-1.3672,0.33854-2.2135,0.46875-2.5391-0.15625,0.000013-0.23438-0.07811-0.23437-0.23438h0.68359c-0.15625-0.28644-0.23438-0.51431-0.23438-0.68359,0.40365-3.2292,0.71615-4.8437,0.9375-4.8438,0.61198-0.46873,0.91797-0.85285,0.91797-1.1523"/>
 </g>
</svg>
