<!-- Created with Inkscape (http://www.inkscape.org/) -->
<svg xmlns:rdf="http://www.w3.org/1999/02/22-rdf-syntax-ns#" xmlns="http://www.w3.org/2000/svg" height="256.21" width="758.98" version="1.1" xmlns:cc="http://creativecommons.org/ns#" xmlns:dc="http://purl.org/dc/elements/1.1/">
 <metadata>
  <rdf:RDF>
   <cc:Work rdf:about="">
    <dc:format>image/svg+xml</dc:format>
    <dc:type rdf:resource="http://purl.org/dc/dcmitype/StillImage"/>
    <dc:title/>
   </cc:Work>
  </rdf:RDF>
 </metadata>
 <g transform="translate(2.3819588,-789.44368)">
  <path d="m31.86,1021.5c-1.0069-3.8963-0.56214-3.7115-0.8001-8.6693,0.97948-3.9433-0.4389-8.6288,0.72878-12.668-1.3113-4.7091-0.06831-6.0904-0.69916-10.265-0.45594-3.5969,2.1891-3.7017-0.12055-6.617,0.76234-2.5246-1.1036-6.5323-0.66704-9.8798,0.26269-5.1054-0.29524-8.2201-0.53894-13.937-0.1494-6.3442-1.5076-12.315-1.2991-18.542-0.64029-5.7252-0.23407-8.5427-0.72673-13.593,0.71186-4.325-0.19541-10.998-0.07977-16.164,0.33259-4.8059-0.14791-8.0197,0.36086-12.527-0.31034-5.9134,1.2511-12.013-0.38165-16.151-0.30393-3.2406-1.5679-14.794,2.7304-10.847,5.1604,1.6732,9.5365,0.93643,14.758,1.0265,5.7594-0.13549,11.681-0.74075,17.857-0.75985,6.3514,0.82649,7.2373-0.27156,12.13-0.29683,5.9895,0.43923,10.726-0.55145,17.096-0.25116,4.4641-0.51972,11.816,0.97841,11.663-5.6403-0.46926-3.7762-1.344-9.2112,4.2652-7.3482,5.6518-0.28501,11.904-1.6338,17.044-1.2528,5.2254,1.8302,15.232-2.3985,17.227,4.6006,3.5202,11.258,2.1236,23.159,3.1619,34.759,0.13461,7.358,0.75703,14.665,0.0841,21.984-0.23052,7.607-0.45382,15.454-0.91106,22.913,0.38004,3.9812-0.7268,11.299-0.41606,16.587-0.62877,7.1037,1.6758,14.075,1.0134,21.122,0.64638,5.2011,1.1727,10.932,1.6349,16.423-0.79489,3.4995,1.4286,11.844,1.1934,17.232,2.2373,9.661-11.44,3.8811-16.98,5.1211-4.921,0.1863-12.722-0.4881-15.954,0.4016-4.8722,0.094-11.076-0.4796-16.508,0.3081-7.1153,0.1942-14.086,0.1233-21.327-0.077-6.0185-0.9091-7.9895,0.7337-12.899-0.5595-6.3489,1.5111-13.51,1.9879-20.205,2.3409-4.2524-0.8787-8.7543,3.9973-12.435,1.224zm3.607-2.539c3.4619-1.4292,10.695-2.2134,15.844-2.2205,10.386-0.8561,20.788-1.2618,31.192-1.4261,3.6661,2.3405,10.695-0.1073,16.349,0.3864,5.6938-1.0327,10.127,0.6074,16.046-0.1684,4.1294-0.1511,7.7771-0.6711,11.537-0.4657,2.3913-0.4476,3.1546-0.5355,6.5062-0.1305,3.7977-1.2431,14.025,4.7009,11.375-4.269-0.70018-4.2681-0.0361-9.7985-0.62216-10.532,0.75612-3.2468-0.62456-3.7041,0.46396-6.1889-0.60986-1.2064-1.3751-10.422-1.5064-15.01-0.43537-6.1487-1.1842-10.573-1.2051-17.242-1.6826-1.7658,1.0668-3.6512-0.34657-4.1798,0.73976-4.8146,0.62359-7.2042,0.42241-10.791,0.1374-3.1534-0.0963-10.408,0.62741-12.476-1.9686,0.71036,1.5286-6.4378-0.45854-9.6609,0.82683-6.6707,0.86015-13.001,0.17761-19.716,0.0193-5.4115,0.2529-11.741-1.0916-16.916,1.4372-6.3966-0.39905-7.133,0.12596-13.905-8.3813-2.2047-16.754-0.24089-25.192-0.0166-5.8673,0.2149-12.14-0.34352-17.714,0.28385-6.164-0.62066-12.792,0.74312-19.215,0.6756-9.3951,0.0678-18.828,0.32846-28.201,0.29272-4.3584,0.0447-10.952,1.594-16.311,0.64017-6.398-3.2674-0.89772,8.306-2.58,11.612,0.18245,21.887-0.47095,43.809,1.4694,65.645,0.36372,9.2055,0.58533,18.438,1.2559,27.616,0.73854,9.7227,0.3385,19.711,0.17772,29.526-0.64362,2.0563-0.197,8.1892,0.87491,8.6365zm34.697-13.826c-2.4951-0.9355-13.614,0.3218-11.004-2.9069,2.7577,0.8962,6.2322-0.4907,7.4388,1.009,4.8178-0.983,10.901-0.8786,15.365-0.7938,5.0466-2.402,11.946-0.725,16.526-1.6743,4.764-0.3824,7.148,0.1735,11.675-0.326,6.1596,1.2156,9.1604,0.039,15.964,0.3328,7.1964,2.0671-6.2773,2.4588-8.7362,2.2076-10.952-0.093-21.983-0.1775-32.851,1.2629-5.1104-0.016-8.9067,1.876-14.377,0.8887zm-3.6423-16.811c-1.8574-1.6-13.417-0.28599-9.0149-2.6242,3.3912-0.73081,6.1634-0.45397,7.52,0.0677,3.3846,0.53101,6.2633,1.5687,8.0098,0.45784,2.2199-0.83578,3.6074,0.69565,7.3896-0.65373,4.4373-1.8333,7.3152-2.3996,12.041-2.6755,6.0084,0.36111,11.333-0.43682,17.308-1.2254,4.16,1.7958,9.9734-1.2325,14.13,1.6842-3.7554,1.8153-10.268,0.67786-12.937,0.65857-7.0398,0.82505-14.238,0.0437-21.18,1.2234-1.8658-0.5712-5.0629,2.3526-9.3158,2.4843-4.5916,0.6863-9.3249,0.97053-13.951,0.60284zm23.771-3.6079zm-23.1-12.864c-3.1103-0.52541-12.549-0.88178-11.884-2.3558,2.0441-2.1113,5.8729,0.7012,8.6452-0.23288,6.5323,1.6566,10.188-0.4902,15.756-1.1844,6.04,0.78673,12.278,1.9456,18.693,0.91768,4.1397-0.72123,7.0138-2.1419,10.684-2.1464,4.4794-0.6425,13.429-1.6272,14.985,1.5633-5.9745-1.2272-13.9,0.97659-18.517,1.1361-4.3002,1.6051-12.749,2.2428-18.608,1.3312-3.8255-0.6609-8.3782-2.1956-10.22,0.23231-3.4321,0.73716-6.0094,1.037-9.5345,0.73887zm-8.041-15.64c-4.6708-0.088-6.6015-3.9288-1.6611-1.9588,6.4088-0.14487,12.9-0.76423,19.129-0.76034,4.4914,0.64893,8.2367-3.0336,12.886-2.8456,5.3486-2.037,15.489,1.4601,18.607,0.98119,2.6289-0.0295,4.976,0.0435,9.2277,0.69735,2.971-1.9309,9.1758,2.3537,3.238,2.4338-7.109-0.92453-14.475-0.22292-21.319-2.6932-6.0583,0.0869-12.016,1.464-17.801,2.8386-5.1827,0.40855-13.119,1.3531-16.216,0.16943-1.7985,0.95622-4.0991,0.95862-6.0898,1.1375zm-7.5543-17.929c-4.8194-5.5836-1.9649-14.807-2.684-21.852-0.57146-4.361-0.76926-8.8446,5.161-7.0876,7.283-0.24464,14.384,0.4349,21.749,1.0491,0.60566,4.8863,1.6016,10.44,2.8286,14.775-0.69671,3.6178,6.3918,11.607,0.82168,11.401-8.5089-0.90157-17.005,0.47741-25.324,2.0078l-0.96723-0.0149-1.585-0.27843-0.00015-0.00001zm3.052-1.4161c5.4526-1.4836,10.443-1.5951,15.823-1.8908,4.6274-0.34865,8.6477,1.1171,5.4113-4.0297-1.3989-6.2562-1.7885-13.033-3.4869-18.975-6.6814-0.98444-13.491-0.82871-20.239-0.93442,0.16381,8.5617-0.57693,17.231,1.0841,25.666,0.2064,0.58513,1.0405,0.43132,1.4079,0.16441zm56.522-4.377c-5.9559-0.95203-10.05-3.1682-13.547-7.727-1.2796-2.8171-1.5117-4.4735-2.116-5.732,1.0593-3.6359,0.66455-10.348,5.8154-10.88,4.0758-5.2895,11.297-4.048,16.688-2.2021,3.4031,1.8604,3.3641,3.4834,5.3471,6.5254,2.1605,5.6212,2.7501,7.5705,1.4147,13.708-1.2203,5.9982-8.7848,6.5344-13.602,6.3074zm7.5052-1.9083zm-1.917-0.60829c5.7818-3.3148,4.9253-12.023,3.5393-17.643-0.85882-6.099-10.15-7.3244-13.66-3.9857-4.2082,3.1115-8.2577,6.4135-6.7723,12.27,0.50728,5.1255,5.0636,9.3632,10.034,9.4995,2.2661,0.12993,4.6315,0.40702,6.8589-0.14089zm5.6294-15.397zm-2.4831-18.282c-5.9695-0.25571-11.976-0.95575-17.931-0.94662-4.8301-0.62757-12.22-0.84359-17.947-0.79268-13.629-0.23977-27.309,0.20694-40.906-0.51653-6.354,1.8832-7.3803-8.0525-4.4192-10.02,9.4778,1.4547,18.98-1.6896,28.426-0.67655,7.6832-0.32119,15.671-0.18202,23.175-0.57155,6.204,0.45224,12.049,0.13433,18.183,1.2635,6.3627,0.41373,13.439,0.52329,19.384,0.79212,4.763-0.89321,12.76-1.0755,10.175,6.7627,0.86128,8.027-7.3668,2.3493-12.022,4.4251-2.035-0.05-4.1148,0.46773-6.1189,0.28056zm-10.239-2.7407c5.9215,0.41941,12.432,0.13402,18.019,0.007,1.7992-1.3391,7.4368,1.4095,5.6338-3.2586,0.83402-3.2959-1.3548-3.4512-4.0301-3.101-14.602-0.14459-29.107-2.1157-43.721-1.7456-14.333,0.0953-28.708-0.21172-42.986,1.2246-5.3012,6.4687,5.3967,6.2644,9.7266,6.1162,6.0286,0.43283,11.649-0.62286,17.606-0.4803,6.4947-0.28298,12.745,0.55329,19.148-0.17999,6.2408,1.4985,13.254,0.27083,19.633,1.538l0.97069-0.12019-0.00026-0.00001zm31.277-3.6662zm1.8867,34.346zm-98.725-50.608zm79.893-3.4506c4.0478-1.1058,8.0476-0.077,11.355-0.47723,5.5383,3.492,5.6178-3.1248,3.7961-6.6746-1.2723-5.6327-11.152-1.7918-15.902-2.8005-5.1856,1.2264-16.786-2.2012-15.958,6.1482-1.5796,8.2895,11.032,2.453,15.232,4.4843-0.0937,1.4387,0.79256-1.1968,1.4764-0.68028zm-93.48,139.35z" fill="#000000"/>
 </g>
 <g transform="matrix(1.0238167,0,0,1.0238167,-1.4888498,-807.10422)">
  <path d="m402.96,972.16c-5.2734-7.4567,8.0742-24.936-8.4508-21.474-8.4148-0.92292-16.418-2.2169-24.447-3.405-7.8363-0.59861-16.011-1.8907-24.138-1.7401-4.4397-1.0941-9.2983-0.263-12.178-0.80938-10.073-1.0822-20.188-0.77934-30.378-1.0704-7.9489,0.31035-17.003,0.039-25.592-0.27333-11.396,0.16792-22.786,0.88007-34.143,0.83951-6.1856-0.37203-16.027,0.85686-23.3-0.60729-6.8959,0.59608-15.166-1.1873-10.119,8.4571-0.43909,5.115,3.981,24-4.7705,18.46-3.3522-5.2611-8.3682-7.5997-12.477-12.292-4.0453-3.784-5.005-4.7995-9.5632-9.1391-5.8706-5.5188-8.7539-9.6432-13.777-13.598-5.7055-3.2659-11.04-6.1014-3.035-11.691,7.6028-7.8646,15.806-14.414,24.044-21.647,4.859-2.214,8.9418-10.491,15.063-8.0394,6.2561,5.9777-3.1613,21.589,9.6749,19.114,6.6492-2.5344,16.426-0.81308,24.227-0.76952,10.449,0.10967,20.805,0.85552,31.275,1.9676,22.413,1.3317,44.799-1.0287,67.24-0.87139,21.138-0.7438,42.311,1.4315,63.384,1.5798-0.0572-6.7863,0.91163-11.749,1.3443-17.41,9.6194-2.6145,18.256,9.668,26.187,14.64,9.6675,8.4346,17.849,18.243,27.204,26.955,4.9582,7.4357-9.8791,9.5121-14.586,12.823-7.3796,2.7106-13.8,6.4977-20.926,9.8889-6.9975,3.1665-8.8952,5.3853-14.512,8.9417-0.46015,1.8376-2.0285,1.957-3.2485,1.1693zm-196.62-5.56c1.452-7.2652,0.40943-14.616-0.95757-21.878-0.92859-6.892,16.197-3.107,22.255-3.7299,26.153-0.28789,52.315-1.0966,78.481-0.59372,27.179,0.0642,54.365,2.2616,81.313,5.6858,7.0127,3.0858,24.101-2.7153,20.026,10.331-2.0202,5.1393-3.3229,13.355,3.7561,6.5436,8.3972-6.1043,18.783-8.7406,27.868-13.73,6.5487-2.7282,19.832-7.4039,9.3105-13.793-4.3442-2.755-8.9772-8.3549-12.797-12.927-8.5793-7.72-17.649-16.229-28.071-21.664-4.958,5.5169,0.62554,17.313-2.0706,20.095-8.1486-2.813-16.208-1.2139-24.873-2.3101-8.3371-0.19119-15.797-1.2896-23.756-0.6927-18.113-0.59199-36.077,0.68163-54.196,0.74746-15.058,0.80077-30.468,0.82746-45.191-1.747-14.295,0.17268-28.869-1.6454-43.239,0.008-13.308,3.9392-9.2976-11.943-12.073-17.949-9.9464,8.0294-19.826,15.651-28.873,24.848-9.3536,6.4644,0.72406,11.755,6.0577,17.321,6.2535,6.5966,13.205,12.196,19.338,18.341,2.8895,1.0291,5.81,7.6377,7.693,7.0918z" fill="#000000"/>
 </g>
 <g transform="translate(2.3819588,-788.94235)">
  <path d="m467.01,1025zm60.644-1.825c-7.5938-1.2018-14.852-1.7047-22.406-0.935-4.8406-1.432-12.324-0.3391-16.923-1.5618-3.9279-0.4117-6.4356,0.9905-10.311,0.2085-4.5648-2.0439-1.6868-9.0176-1.8792-13.631,1.1639-5.7849,1.9772-7.5427,1.3156-14.306,1.1378-5.2854-0.80807-13.468-0.79488-20.184,1.8974-9.7442,3.1726-19.552,1.8664-29.489-1.3238-17.03-1.4395-34.179-2.576-51.25-0.60815-8.1062-0.55671-16.578,0.89644-24.721,8.7191-0.61924,17.468,1.5952,26.287,1.0252,16.175-0.0974,32.436,0.51373,48.55-0.87108,1.6031-5.1013-5.4818-15.56,5.0647-12.638,13.426,0.65693,26.893-0.006,40.308,0.91939,10.394-1.1351,5.5845,10.816,9.4376,16.309,0.74279,10.729,0.0801,22.479,1.7703,33.551-0.46576,15.283,2.003,30.87,0.26814,46.258,0.20161,9.4503,0.25495,19.354,0.75615,28.557,0.1222,1.3401-0.29026,5.3277-0.69232,9.2411-1.0561,7.6868-0.0648,15.569,0.57752,22.966-0.77266,3.5259,5.3,12.22-3.7868,9.9437-6.7893-1.0189-13.609-0.2733-18.479-0.8094-7.6077,1.3499-16.092,0.7741-24.099,0.6177-8.5584,0.8047-16.676,0.1208-25.011,0.9522-3.3759-0.0006-6.7777,0.145-10.141-0.1526zm11.629-2.898c6.2262-0.2145,12.498-0.7527,18.08-0.4378,7.0256-0.2796,11.356-0.013,18.508-0.1035,4.6611,0.4044,14.219-1.6507,18.586-0.1775,2.2214-0.7579,14.139,2.3679,9.1796-6.2372-1.2202-14.757,0.28806-29.598-0.0254-44.346,1.2746-7.8209-0.74843-15.513,0.3824-23.54,0.15067-10.163,0.6219-20.383-0.88008-30.495-0.3799-12.595-1.1794-24.949-1.0773-37.569-1.0843-10.928-14.322-5.9904-22.654-7.3663-13.872-0.16326-27.548,3.1659-41.406,2.0017-10.739,0.254-22.086,0.1453-33.227,0.11795-7.4306-0.33556-14.047-0.41458-21.948-1.719-5.3373-0.41986-1.5676,11.126-2.8161,16.013,1.3363,23.238,2.0455,46.519,3.6571,69.73,0.16031,8.3723-3.0247,13.72-1.879,22.058,0.26405,7.2966,0.28161,17.103,0.49012,22.977-0.0929,4.4454-4.1006,14.641-0.29654,16.598,7.8028-0.081,15.545,1.2517,23.142,0.7029,6.8154,0.3738,14.671,0.4464,21.234,1.9344,4.8466-1.0048,8.1737,1.4419,12.951-0.1405zm6.0535-6.4474c-5.4392-1.5711-8.9974-0.3241-13.96-1.7637-4.106,1.647-18.031-2.9749-6.3146-1.6498,10.042,0.3627,19.994,2.0987,30.005,0.7318,9.2116-1.5311,16.189,3.1683,25.201,1.1076,7.5984,2.2185-11.109,0.9629-14.289,1.0799-6.5692-2.0049-14.222-0.5079-20.642,0.4942zm-25.819-12.456c8.0316-3.8032,17.711-1.0106,26.117-4.0159,6.3554,2.4349,13.53,0.86304,19.487,2.0736,4.8702,0.68042,13.513-1.2041,16.02,1.9937-7.1881-0.01-11.344-1.4811-17.984-0.5068-6.7197-0.99296-10.729,0.4051-17.215-1.2755-5.2133-0.53955-9.0669,1.9062-14.848,1.4965-4.3082-0.6883-7.2513,0.1233-11.578,0.2344zm-3.5965-9.3442c2.1701-2.7323,13.055-3.6065,17.486-3.1952,9.1998-0.42529,18.502,1.4384,27.706,0.5952,6.7059,1.7168,16.599-5.1803,21.161-1.3389-8.8114,1.3208-17.611,3.2844-26.604,3.4055-6.9376-0.73591-15.921-1.1927-21.79-0.49823-3.171-0.62947-6.0123-1.472-9.0797,0.058-2.7408,1.2152-5.9238,2.1074-8.8792,0.97365zm-19.276-0.12794c-1.3251-0.63991-11.36-0.79366-4.7358-3.3733,5.8772-3.2931,13.385,2.2978,7.3065,2.5117-0.64826,0.64985-1.6406,1.1265-2.5708,0.8616zm-9.7148-3.561zm41.894-8.3397zm-0.82174-1.9097c-4.7681,1.4506-17.033-6.6008-5.9116-2.5285,5.771,2.5593,15.88,1.1657,22.927-0.27555,9.161-3.0989,19.136-1.6099,28.456-0.12244,4.0157,0.0769,12.404,0.4792,4.6638,2.3922-9.1767-0.85207-18.013-3.574-27.219-1.8584-4.5958-0.82674-7.4146,3.703-13.816,2.3228-0.93286-0.71762-6.5427,0.85431-9.1002,0.0697zm34.733-12.2c-5.3945,0.0483-9.1063-0.58993-15.129-1.9839-3.9877-3.7669,12.817,1.6256,16.542-0.24621,3.372-0.82421,17.033-1.0164,13.527,1.7825-5.1324-0.96979-14.128,0.38041-14.94,0.44754l0.00001,0.00008zm-35.756-0.45223c-3.7126,0.24341-17.691-2.3695-6.7824-2.4861,5.8485,1.9428,20.087-2.0516,21.156,0.64641-5.3155,1.7906-9.9006-0.11816-11.928,1.5108-1.5952,0.75649-0.97918-1.3398-2.4447,0.32891zm16.359-1.8239zm6.7405-8.561c-3.4557-1.4978-6.1789-0.94707-9.4978-1.3773-3.1652-0.32035-13.616-0.66984-4.2502-1.7267,7.7448-2.2333,14.294,4.4241,21.573,1.6093,7.7157-1.058,16.701-2.5893,23.326,0.4802-5.9669,2.425-13.307-1.6895-19.449,0.73626-3.6669,0.36716-8.2692,2.2212-11.702,0.27825zm-46.61-0.73078c-4.4072,0.49867-17.033-3.1992-5.8778-4.484,4.0767-1.1903,15.739,1.6009,7.9183,4.6859l-2.0405-0.20191h-0.00004zm16.262-0.48144c-1.3396-3.7168,8.3199-0.37455,11.31-1.3724-2.1086,2.7384-7.9885,0.93021-11.31,1.3724zm5.3315-16.664c-2.964-0.87327-16.553-5.7096-6.5847-3.8514,8.7588,3.2768,18.332,1.3727,27.288,0.36152,6.8178,0.34275,13.201-2.4326,20.526-0.006,4.8193,0.99038,15.251-1.5166,16.607,2.9012-10.225-0.0243-20.432-2.6078-30.648-1.35-5.0054-0.29847-12.008,1.8896-17.74,1.4301-3.0092,0.43392-7.4956,0.10072-9.4484,0.51452zm-3.8223-11.646c-4.2146,1.2128-12.678-6.1544-4.229-3.0406,10.551,0.85717,21.66,1.9195,31.529-2.8225,7.8015,1.0879,15.517-0.55865,23.178,0.97484,2.5232,3.0816,15.595-1.1541,12.388,3.8341-7.364,1.4382-12.791-3.0576-20.133-2.2897-9.3397-0.17119-17.769-0.94883-26.666,2.826-4.4601,0.091-11.128-0.95415-15.661,0.31826l-0.28262,0.33877-0.12435-0.13901,0.00019-0.00016zm60.674-9.4717c-6.62-1.6222-15.662-3.7855-21.368-1.7592-8.6592,0.87668-15.638-1.767-24.321,0.28644-8.0744-2.1492-16.206,1.0389-23.809-0.84223-3.0874-5.0894,10.788-0.18635,14.775-2.8366,8.3453,2.1262,17.355-1.1456,25.326,1.1885,8.9129-0.38126,18.009-3.2433,26.641,0.30889,4.3006-0.50441,11.928,3.4654,3.9586,3.7802-0.3872-0.77942-0.89168,1.1061-1.2025-0.12601zm-80.623-1.0406c-4.4738,0.62611-15.045-4.4722-5.2481-4.813,4.8633,2.166,12.812-4.6187,7.8712,4.3127l-0.51437,0.78019-2.1087-0.27979-0.00002-0.00005zm77.672-21.308c-26.005-0.52206-51.995-1.678-78.009-1.4876-4.3553-1.6378-16.221,4.6902-15.73-1.6303-1.3172-7.8507,2.5308-11.201,9.8013-9.4919,9.0333-0.19935,17.924-2.1517,26.6-0.74803,7.7876-0.0614,15.599-0.76175,23.257,0.92907,7.8106,1.0426,15.097-1.3779,22.543,1.0353,8.7837,2.1888,17.951-1.1946,26.287-1.137,2.256,7.2818,0.42334,15.516-8.8571,12.301-1.9676-0.0255-3.9298,0.28005-5.8936,0.22914zm10.827-2.756c3.478-8.5225-9.8232-5.8709-15.824-5.0556-8.7389,0.13812-17.192-3.0438-26.18-1.7709-6.5137-0.0882-13.757-1.1522-19.609-0.94789-7.6863,0.58683-15.974-1.4569-23.435,0.0808-6.4563,0.43476-18.163-2.4888-16.103,7.6097,5.8455-0.518,13.027-0.27942,18.397-1.6222,11.785,0.99403,23.766,0.65156,35.62,1.1138,15.16-0.61751,30.278,1.3096,45.481,0.62812l1.6533-0.0359-0.00043,0.00009zm-39.661,129.35zm8.697-153.54c4.9644,0.19852,11.922-1.8216,16.499-0.58588,7.1964-2.1489,18.335,1.85,23.503-1.0273,1.4991-9.7444-12.455-4.4154-18.536-5.5667-7.2054,1.1279-19.433-3.6339-23.775,0.90511,0.92911,1.0403-0.002,7.6494,2.3087,6.2748zm-87.726,155.1zm-0.9814-2.3585zm159.38-59.218c-6.2415-4.9214-10.507-10.279-1.1004-13.845,2.7237-3.5361,13.546-7.2522,5.9689-1.0073-5.2649,2.512-7.0863,7.5869,0.51021,5.2035,8.1393-2.58,17.26-1.0489,24.767-5.902,7.9401-2.7196,13.846-8.8474,16.307-16.866,1.782-3.0931,4.7542-20.273,6.5368-9.4805-2.6369,7.1115-5.1882,16.407-11.378,22.118-7.47,5.3849-16.225,10.156-25.459,11.051-4.6786,0.8126-15.337,1.2157-16.459,3.8173,4.6398,1.9395,10.323,9.5998,0.30628,4.9113z" fill="#000000"/>
 </g>
 <g style="word-spacing:0px;letter-spacing:0px;writing-mode:lr-tb;text-anchor:middle;text-align:center;" font-weight="bold" transform="translate(-4.2e-4,1.459795)" font-style="normal" font-stretch="normal" font-size="40px" font-variant="normal" font-family="ChrisMcCormickTwentyEleven" line-height="125%" fill="#000000">
  <path d="m24.16,21.048c0.76822,0.93753,1.1523,2.168,1.1523,3.6914-0.15626,0.20836-0.23438,0.59899-0.23438,1.1719h0.23438c-0.000006,0.76826-0.15626,1.1524-0.46875,1.1523,0.15624,0.29951,0.23437,0.52737,0.23438,0.68359l-0.23438,2.0898c0.15624,0.28648,0.23437,0.51435,0.23438,0.68359l-0.46875,0.23438c0.15624,0.84638,0.23437,1.4584,0.23438,1.8359-0.000006,2.1485-0.22787,3.8477-0.68359,5.0977h0.23438c0.20833,0.000018,0.74218-0.54035,1.6016-1.6211,0.87239-0.76821,2.1094-1.1523,3.7109-1.1523,1.5495,0.000021,3.164,0.612,4.8438,1.8359,2.1484,1.849,3.2226,3.4636,3.2227,4.8438v2.3242c-0.57294,0.72918-0.95705,1.5755-1.1523,2.5391-0.58596,0.00001-1.4323,0.9961-2.5391,2.9883-1.224,0.67709-1.9141,1.5234-2.0703,2.5391l-0.468-0.215h-0.23438c-0.000013,1.0156-1.3086,1.9401-3.9258,2.7734h-2.0703c-1.028,0-2.799-0.39-5.312-1.171v-1.6016c0.61198,0.000004,0.91797-0.23437,0.91797-0.70312l-0.23438-1.1523c0.46875-3.7109,0.85937-6.25,1.1719-7.6172v-0.23438c-0.15625-0.27342-0.23438-0.57941-0.23438-0.91797-0.000003-0.15624,0.07812-0.23436,0.23438-0.23438-0.000003-0.15624-0.07813-0.23436-0.23438-0.23438l0.44922-2.0703-0.21484-0.46875,0.21484-1.1523c-0.144-0.276-0.216-0.582-0.216-0.92l0.44922-0.23438c-0.000003-0.15623-0.07813-0.23436-0.23438-0.23438,0.1302-1.6927,0.28646-2.539,0.46875-2.5391-0.000003-0.15623-0.07813-0.23435-0.23438-0.23438l0.23438-2.7734v-0.91797c-0.000003-0.15622,0.07812-0.23435,0.23438-0.23438l-0.23438-0.44922c-0.000003-0.15622,0.07812-0.23435,0.23438-0.23438l-0.236-0.473v-2.0703c-0.000003-0.35153-0.07813-0.66403-0.23438-0.9375l0.23438-0.44922c-0.000003-0.7682-0.22787-1.1523-0.68359-1.1523,0.14323-1.3932,0.91145-2.0898,2.3047-2.0898m1.6211,18.945c0.14322,0.2995,0.21484,0.52736,0.21484,0.68359-0.42969,0.000015-0.96355,1.4649-1.6016,4.3945-0.000005,0.15626,0.07161,0.23439,0.21484,0.23438-0.45573,2.0573-0.6836,3.4375-0.68359,4.1406v0.9375l-1.3867,0.23438v0.44922c0.53385,0.92448,0.91796,1.3867,1.1523,1.3867h2.0898c1.1979,0.000003,3.1966-1.5365,5.9961-4.6094,2.0703-2.5781,3.2226-4.4271,3.457-5.5469h0.23438c-1.1068-3.2292-2.7995-4.8437-5.0781-4.8438-0.000012-0.10415-0.22788-0.2604-0.68359-0.46875-1.875,0.65106-3.1836,1.6537-3.9258,3.0078"/>
  <path d="m43.086,36.302,0.70312,0c-0.000004,0.15627,0.07161,0.38413,0.21484,0.68359l0.46875-0.23438h0.23438c0.45572,0.15627,0.68359,0.61851,0.68359,1.3867v0.46875c-0.5599,1.0287-0.94402,2.1029-1.1523,3.2227l-0.44922,0.23438c-0.000004,0.15626,0.07161,0.23439,0.21484,0.23438-0.29948,1.25-0.52735,2.7149-0.68359,4.3945,0.15625,0.000009,0.23437,0.07162,0.23438,0.21484-0.15625,0.000009-0.23438,0.07813-0.23438,0.23438h0.23438c1.0677-1.9922,1.7578-2.9883,2.0703-2.9883,0.53385-1.3802,1.5365-2.6172,3.0078-3.7109,1.6797-2.3047,3.4505-3.457,5.3125-3.457,1.8489,0.15627,2.7734,1.0026,2.7734,2.5391h-0.23438c0.15623,0.46877,0.30597,0.70314,0.44922,0.70312l-0.21484,1.1523v0.68359h-0.9375c-0.41668,0.000014-0.72267-0.76822-0.91797-2.3047-0.37762-0.31248-0.68361-0.46873-0.91797-0.46875-1.3932,0.37762-2.0899,0.99611-2.0898,1.8555-1.9792,1.224-3.0534,2.2982-3.2227,3.2227-1.1589,1.4714-2.0833,2.9362-2.7734,4.3945-1.276,2.5521-2.4284,4.1667-3.457,4.8438-1.237,0.000002-1.8555-1.1523-1.8555-3.457v-3.927c-0.000001-0.15624,0.07812-0.23436,0.23438-0.23438-0.000001-0.15624-0.07813-0.23436-0.23438-0.23438,0.18229-1.3672,0.33854-2.2135,0.46875-2.5391-0.15625,0.000012-0.23438-0.07811-0.23438-0.23438h0.68359c-0.15625-0.28644-0.23438-0.51431-0.23438-0.68359,0.40364-3.2292,0.71614-4.8437,0.9375-4.8438,0.61198-0.46873,0.91796-0.85284,0.91797-1.1523"/>
  <path d="m67.773,35.365c1.2239,0.15627,1.8359,0.39064,1.8359,0.70312l0.46875-0.23438c2.0833,0.00002,3.9323,1.6927,5.5469,5.0781,0.29946,1.4193,0.4492,2.2656,0.44922,2.5391-0.000018,2.0573-0.84637,4.3685-2.5391,6.9336-0.24741,0.000006-0.5534,0.306-0.91797,0.91797l-2.5391,2.7734c-2.0052,0.61198-3.4701,0.91797-4.3945,0.91797-2.7214-0.80729-4.5638-2.2656-5.5273-4.375-0.000002-0.15624,0.07161-0.23437,0.21484-0.23438-0.29948-0.55989-0.44922-1.1784-0.44922-1.8555-0.000001-0.33853,0.07812-0.64452,0.23438-0.91797-0.15625-0.27343-0.23438-0.57942-0.23438-0.91797v-0.46875l0.23438-0.46875c-0.3125,0.00001-0.46875-0.14973-0.46875-0.44922,0.97656-4.6224,1.9792-6.9336,3.0078-6.9336-0.000004-0.22134,0.6901-0.7617,2.0703-1.6211-0.000006-0.15623,0.23437-0.23436,0.70312-0.23438l-0.23438-0.44922,0.23438-0.46875,1.1523,0.23438c0.29947-0.15623,0.52734-0.23436,0.68359-0.23438-0.000008,0.15627,0.07812,0.2344,0.23438,0.23438l0.23438-0.46875m-6.0156,10.391,0.23438,0.46875c-0.000003,0.15626-0.07813,0.23438-0.23438,0.23438-0.000003,3.8412,1.6927,5.7617,5.0781,5.7617,1.25-0.0651,2.5586-0.7552,3.9258-2.0703-0.000012-0.52083,0.54035-1.2109,1.6211-2.0703,0.92446-2.2135,1.3867-3.5221,1.3867-3.9258v-0.4694c-0.000015-2.6562-1.3086-4.6549-3.9258-5.9961-1.3802,0.612-2.3828,0.91799-3.0078,0.91797-2.4609,0.85939-3.6914,1.8555-3.6914,2.9883-0.70313,1.6016-1.1654,2.9883-1.3867,4.1602"/>
  <path d="m80.684,36.068c0.33854,0.2995,1.1068,0.68361,2.3047,1.1523-0.000005,0.23439,0.14973,0.54038,0.44922,0.91797l-0.21484,1.1523c0.14322,0.2995,0.21484,0.53387,0.21484,0.70312h-0.21484l0.21484,0.44922v0.70312c-0.000006,0.63804,0.07812,1.4844,0.23438,2.5391-0.15626,0.29949-0.23438,0.52736-0.23438,0.68359,0.31249,0.0521,0.46874,0.20834,0.46875,0.46875v0.23438l-0.23438,0.44922c0.26041,0.000011,0.57291,1.237,0.9375,3.7109l0.68359,0.44922c1.4323-3.151,2.3568-4.9935,2.7734-5.5273-0.15626,0.000011-0.23438-0.07811-0.23438-0.23438,1.6667-2.7734,2.7474-4.1601,3.2422-4.1602,0.45572,0.000017,0.68358-0.23436,0.68359-0.70312l0.70312,0.46875c0.03905-0.31248,0.18879-0.46873,0.44922-0.46875,0.46874,1.4844,0.93097,3.2552,1.3867,5.3125h-0.23438l0.23438,0.46875v0.68359h0.23438v2.0898h0.46875c0.67706-3.737,1.289-5.8919,1.8359-6.4648,1.263-3.2291,2.6497-4.8437,4.1602-4.8438h0.23438c0.37758,0.2995,0.68357,0.44924,0.91797,0.44922-0.00003,0.10419-0.30602,0.64455-0.91797,1.6211-1.5625,2.9037-2.7214,5.7487-3.4766,8.5352v0.23438c0.31248,0.000009,0.46873,0.07813,0.46875,0.23438-0.76825,1.8099-1.3867,3.6589-1.8555,5.5469-0.2995,0.000003-0.60549,0.22787-0.91797,0.68359-1.5365-0.20833-2.3047-0.97656-2.3047-2.3047-0.15626,0.000005-0.23439-0.07812-0.23438-0.23438-0.000015-0.15624,0.07811-0.23437,0.23438-0.23438-0.45574-1.5365-0.99611-4.1536-1.6211-7.8516-1.0807,1.0938-1.849,2.6367-2.3047,4.6289-1.3412,3.5417-2.5716,5.3125-3.6914,5.3125h-0.46875c-1.9271,0.000003-3.4635-3.5417-4.6094-10.625v-0.91797c-0.625,0.000015-0.9375-0.15624-0.9375-0.46875l0.23438-0.46875c-0.33854,0.000016-0.56641-0.30597-0.68359-0.91797h-0.23438v-0.23438c1.237-1.7969,1.8555-2.8711,1.8555-3.2227"/>
  <path d="m116.46,36.986,0.46875-0.23438c1.5234,0.000019,2.6758,0.84637,3.457,2.5391v0.46875h-1.6211c-0.50783,0.000017-1.0417-0.23436-1.6016-0.70312-0.35158,0.000017-0.66408,0.07814-0.9375,0.23438l-0.44922-0.23438c-1.4453,0.000017-2.9883,0.46226-4.6289,1.3867-0.29948,0.0521-0.44922,0.20835-0.44921,0.46875v0.23438c0.53384,0.88543,1.8424,1.9596,3.9258,3.2227,2.4609,2.4219,3.6914,4.4271,3.6914,6.0156-0.26043,0.000006-0.72267,0.53386-1.3867,1.6016-1.3542,0.15625-2.2005,0.39063-2.5391,0.70312h-3.2422l-1.15,0.232c-0.00001-0.3125-0.0781-0.46875-0.23437-0.46875l-0.44922,0.23438c-2.0443-0.53385-3.5091-1.224-4.3945-2.0703v-0.46875c0.45572-0.50781,0.68359-0.89192,0.68359-1.1523h0.23437l0.46875,0.23438v-0.46875h0.23438c0.50781,0.000007,1.1979,0.38412,2.0703,1.1523,0.15625,0.000006,0.23437-0.07812,0.23438-0.23438,1.3151,0.31251,2.4674,0.46876,3.457,0.46875,2.1614-0.10416,3.2422-0.41015,3.2422-0.91797-1.7188-2.2526-3.4115-3.8737-5.0781-4.8633-0.52084-0.61197-1.0612-0.91796-1.6211-0.91797l-1.8555-2.3047c0.19531-2.0052,1.1979-3.0078,3.0078-3.0078,0.31249-0.83332,2.4674-1.3737,6.4648-1.6211v0.46875"/>
  <path d="m135.37,35.13c0.29947,0.0521,0.44921,0.20835,0.44922,0.46875l0.46875-0.23438c0.36457,0.000021,0.90494,0.46226,1.6211,1.3867h0.21484c0.15623,1.9271,0.23436,3.0078,0.23437,3.2422-0.45574,1.836-1.224,3.2943-2.3047,4.375-1.3281,1.1458-2.793,1.9922-4.3945,2.5391v-0.21484l-0.44922,0.21484h-0.70313c-1.5365,0.000009-2.3047-0.14973-2.3047-0.44922l-0.46874,0.23438h-0.21485l-0.70312-0.46875h-0.6836l-0.23437,1.3867c0.61197,0.000008,0.91796,0.15626,0.91797,0.46875,0.93749,0.8724,3.0924,1.6406,6.4648,2.3047,2.2526,0.29948,3.4831,0.44922,3.6914,0.44922h1.3867c0.35155,0.35157,1.1979,0.58594,2.5391,0.70312v1.8359c-0.2995,0.000002-0.44924,0.15625-0.44922,0.46875h-0.23438c-0.15626,0.000002-0.23439-0.07812-0.23437-0.23438l-0.46875,0.23438h-0.21485c-0.15626,0.000002-0.23439-0.07812-0.23437-0.23438-0.15627,0.000002-0.23439,0.07813-0.23438,0.23438-3.9193,0.000002-6.9987-0.46224-9.2383-1.3867l-0.46875,0.23438-3.9258-2.0703c-0.92448-0.78124-1.3867-1.4779-1.3867-2.0898,0-0.22135-0.22786-0.44921-0.68359-0.68359,0.65104-3.9193,1.7318-6.7708,3.2422-8.5547,0.29947,0.000017,0.44921-0.14972,0.44922-0.44922-0.15626,0.000017-0.23438-0.07811-0.23438-0.23438,0.50781,0.000017,1.1263-0.46222,1.8555-1.3867,0.66406-0.15623,1.4323-0.46222,2.3047-0.91797-0.00001,0.14325,0.0781,0.21486,0.23437,0.21484v-0.21484c-0.15626,0.00002-0.23438-0.07811-0.23437-0.23438-0.00001-0.31248,1.543-0.62498,4.6289-0.9375m-2.3242,2.5586c-0.00001,0.2995-0.9961,0.68361-2.9883,1.1523l-2.7734,2.9883c-0.00001,0.37762-0.23438,0.76173-0.70313,1.1523v0.46875c1.3542,0.15626,2.3568,0.39064,3.0078,0.70312,2.9297-0.24738,4.3945-0.78775,4.3945-1.6211,1.224-0.93749,1.8359-2.3242,1.8359-4.1602h-0.23437c-0.14325,0.000017-0.21486-0.22785-0.21485-0.68359l-2.0898,0.21484c-0.00001-0.14321-0.0781-0.21483-0.23438-0.21484"/>
  <path d="m146.21,36.302,0.70312,0c0,0.15627,0.0716,0.38413,0.21485,0.68359l0.46875-0.23438h0.23437c0.45572,0.15627,0.68359,0.61851,0.68359,1.3867v0.46875c-0.5599,1.0287-0.94401,2.1029-1.1523,3.2227l-0.44922,0.23438c0,0.15626,0.0716,0.23439,0.21485,0.23438-0.29949,1.25-0.52735,2.7149-0.6836,4.3945,0.15625,0.000009,0.23437,0.07162,0.23438,0.21484-0.15626,0.000009-0.23438,0.07813-0.23438,0.23438h0.23438c1.0677-1.9922,1.7578-2.9883,2.0703-2.9883,0.53385-1.3802,1.5364-2.6172,3.0078-3.7109,1.6797-2.3047,3.4505-3.457,5.3125-3.457,1.8489,0.15627,2.7734,1.0026,2.7734,2.5391h-0.23438c0.15624,0.46877,0.30598,0.70314,0.44922,0.70312l-0.21484,1.1523v0.68359h-0.9375c-0.41668,0.000014-0.72267-0.76822-0.91797-2.3047-0.37762-0.31248-0.68361-0.46873-0.91797-0.46875-1.3932,0.37762-2.0898,0.99611-2.0898,1.8555-1.9792,1.224-3.0534,2.2982-3.2227,3.2227-1.1589,1.4714-2.0833,2.9362-2.7734,4.3945-1.276,2.5521-2.4284,4.1667-3.457,4.8438-1.237,0.000002-1.8555-1.1523-1.8555-3.457v-3.927c0-0.15624,0.0781-0.23436,0.23438-0.23438,0-0.15624-0.0781-0.23436-0.23438-0.23438,0.1823-1.3672,0.33855-2.2135,0.46875-2.5391-0.15625,0.000012-0.23437-0.07811-0.23437-0.23438h0.68359c-0.15625-0.28644-0.23437-0.51431-0.23437-0.68359,0.40364-3.2292,0.71614-4.8437,0.9375-4.8438,0.61197-0.46873,0.91796-0.85284,0.91797-1.1523"/>
 </g>
 <g style="word-spacing:0px;letter-spacing:0px;writing-mode:lr-tb;text-anchor:middle;text-align:center;" font-weight="bold" transform="translate(7.0185502,22.516706)" font-style="normal" font-stretch="normal" font-size="40px" font-variant="normal" font-family="ChrisMcCormickTwentyEleven" line-height="125%" fill="#000000">
  <path d="m629.53,75.199,0.46875-0.23438c1.5234,0.000019,2.6758,0.84637,3.457,2.5391v0.46875h-1.6211c-0.50783,0.000016-1.0417-0.23436-1.6016-0.70312-0.35158,0.000017-0.66408,0.07814-0.9375,0.23438l-0.44922-0.23438c-1.4453,0.000017-2.9883,0.46226-4.6289,1.3867-0.29948,0.0521-0.44922,0.20835-0.44921,0.46875v0.23438c0.53384,0.88543,1.8424,1.9596,3.9258,3.2227,2.4609,2.4219,3.6914,4.4271,3.6914,6.0156-0.26043,0.000006-0.72267,0.53386-1.3867,1.6016-1.3542,0.15625-2.2005,0.39063-2.5391,0.70312h-3.2422l-1.1523,0.23438c-0.00001-0.3125-0.0781-0.46875-0.23437-0.46875l-0.44922,0.23438c-2.0443-0.53385-3.5091-1.224-4.3945-2.0703v-0.46875c0.45572-0.50781,0.68359-0.89192,0.68359-1.1523h0.23437l0.46875,0.23438v-0.46875h0.23438c0.50781,0.000007,1.1979,0.38412,2.0703,1.1523,0.15625,0.000006,0.23437-0.07812,0.23438-0.23438,1.3151,0.31251,2.4674,0.46876,3.457,0.46875,2.1614-0.10416,3.2422-0.41015,3.2422-0.91797-1.7188-2.2526-3.4115-3.8737-5.0781-4.8633-0.52084-0.61197-1.0612-0.91796-1.6211-0.91797l-1.8555-2.3047c0.19531-2.0052,1.1979-3.0078,3.0078-3.0078,0.31249-0.83331,2.4674-1.3737,6.4648-1.6211v0.46875"/>
  <path d="m648.44,73.344c0.29947,0.0521,0.44921,0.20835,0.44922,0.46875l0.46875-0.23438c0.36457,0.00002,0.90494,0.46226,1.6211,1.3867h0.21484c0.15623,1.9271,0.23436,3.0078,0.23438,3.2422-0.45575,1.836-1.224,3.2943-2.3047,4.375-1.3281,1.1458-2.793,1.9922-4.3945,2.5391v-0.21484l-0.44922,0.21484h-0.70313c-1.5365,0.000009-2.3047-0.14973-2.3047-0.44922l-0.46875,0.23438h-0.21485l-0.70312-0.46875h-0.6836l-0.23437,1.3867c0.61197,0.000008,0.91796,0.15626,0.91797,0.46875,0.93749,0.8724,3.0924,1.6406,6.4648,2.3047,2.2526,0.29948,3.4831,0.44922,3.6914,0.44922h1.3867c0.35154,0.35157,1.1979,0.58594,2.5391,0.70312v1.8359c-0.2995,0.000003-0.44924,0.15625-0.44922,0.46875h-0.23438c-0.15626,0.000002-0.23439-0.07812-0.23437-0.23438l-0.46875,0.23438h-0.21484c-0.15627,0.000002-0.2344-0.07812-0.23438-0.23438-0.15627,0.000003-0.23439,0.07813-0.23437,0.23438-3.9193,0.000002-6.9987-0.46224-9.2383-1.3867l-0.46875,0.23438-3.9258-2.0703c-0.92448-0.78124-1.3867-1.4779-1.3867-2.0898,0-0.22135-0.22786-0.44921-0.68359-0.68359,0.65104-3.9193,1.7318-6.7708,3.2422-8.5547,0.29947,0.000017,0.44921-0.14972,0.44922-0.44922-0.15626,0.000017-0.23438-0.07811-0.23438-0.23438,0.50781,0.000018,1.1263-0.46222,1.8555-1.3867,0.66406-0.15623,1.4323-0.46222,2.3047-0.91797-0.00001,0.14325,0.0781,0.21486,0.23437,0.21484v-0.21484c-0.15626,0.000019-0.23438-0.07811-0.23437-0.23438-0.00001-0.31248,1.543-0.62498,4.6289-0.9375m-2.3242,2.5586c-0.00002,0.2995-0.99611,0.68361-2.9883,1.1523l-2.7734,2.9883c-0.00001,0.37762-0.23438,0.76173-0.70313,1.1523v0.46875c1.3542,0.15626,2.3568,0.39064,3.0078,0.70312,2.9297-0.24738,4.3945-0.78775,4.3945-1.6211,1.2239-0.93749,1.8359-2.3242,1.8359-4.1602h-0.23437c-0.14324,0.000018-0.21486-0.22785-0.21485-0.68359l-2.0898,0.21484c-0.00001-0.14321-0.0781-0.21482-0.23437-0.21484"/>
  <path d="m659.28,74.516,0.70312,0c0,0.15627,0.0716,0.38413,0.21485,0.68359l0.46875-0.23438h0.23437c0.45573,0.15627,0.68359,0.61851,0.6836,1.3867v0.46875c-0.55991,1.0287-0.94402,2.1029-1.1524,3.2227l-0.44922,0.23438c0,0.15626,0.0716,0.23439,0.21485,0.23438-0.29949,1.25-0.52735,2.7149-0.6836,4.3945,0.15625,0.000009,0.23437,0.07162,0.23438,0.21484-0.15626,0.000009-0.23438,0.07813-0.23438,0.23438h0.23438c1.0677-1.9922,1.7578-2.9883,2.0703-2.9883,0.53385-1.3802,1.5364-2.6172,3.0078-3.7109,1.6797-2.3047,3.4505-3.457,5.3125-3.457,1.849,0.15627,2.7734,1.0026,2.7734,2.5391h-0.23437c0.15623,0.46877,0.30597,0.70314,0.44921,0.70312l-0.21484,1.1523v0.68359h-0.9375c-0.41668,0.000013-0.72267-0.76822-0.91797-2.3047-0.37762-0.31248-0.68361-0.46873-0.91797-0.46875-1.3932,0.37762-2.0898,0.99611-2.0898,1.8555-1.9792,1.224-3.0534,2.2982-3.2227,3.2227-1.1589,1.4714-2.0833,2.9362-2.7734,4.3945-1.276,2.5521-2.4284,4.1667-3.457,4.8438-1.237,0.000003-1.8555-1.1523-1.8555-3.457v-3.927c-0.00001-0.15624,0.0781-0.23436,0.23437-0.23438,0-0.15624-0.0781-0.23436-0.23437-0.23438,0.18229-1.3672,0.33854-2.2135,0.46875-2.5391-0.15626,0.000013-0.23438-0.07811-0.23438-0.23438h0.68359c-0.15625-0.28644-0.23437-0.51431-0.23437-0.68359,0.40364-3.2292,0.71614-4.8437,0.9375-4.8438,0.61198-0.46873,0.91796-0.85285,0.91797-1.1523"/>
  <path d="m677.03,72.426c1.6927,0.000022,2.5391,0.84638,2.5391,2.5391,0.1953,1.9662,0.35155,3.0469,0.46875,3.2422h-0.70313v0.23438c0.40364,0.000016,0.78776,1.6927,1.1524,5.0781h-0.21485c0.39062,0.79428,0.85286,2.2526,1.3867,4.375,0.80728,0.92448,1.263,1.3867,1.3672,1.3867,0.62499-0.55989,1.6276-2.7148,3.0078-6.4648-0.15626,0.000011-0.23439-0.07811-0.23437-0.23438,0.46873,0.000012,1.1654-1.6146,2.0898-4.8438,1.1198-2.6172,1.9661-3.9258,2.5391-3.9258,0.29947-0.15623,0.52733-0.23436,0.6836-0.23438l0.46875,0.23438c0.29946-0.15623,0.52732-0.23436,0.68359-0.23438v0.23438c-0.11721,0.612-0.26694,0.91799-0.44922,0.91797l0.23438,0.46875v0.23438c-0.16929,0.0521-1.3282,2.5912-3.4766,7.6172l0.23438,0.46875v0.21484c-0.24741,0.26043-0.78778,1.3412-1.6211,3.2422,0.15624,0.29949,0.23437,0.52735,0.23438,0.68359-0.1172,0.000006-1.0417,1.3867-2.7734,4.1602-0.4948,0.3125-0.87891,0.46875-1.1523,0.46875-1.6016,0.000002-2.7539-0.76823-3.457-2.3047-0.92449-1.5104-1.3867-2.6693-1.3867-3.4766,0.15624,0.000008,0.23437-0.07161,0.23437-0.21484-0.72917,0.000007-1.2695-2.2331-1.6211-6.6992-0.20834-0.23436-0.59245-1.9271-1.1523-5.0781-0.15626,0.000019-0.23438-0.23436-0.23438-0.70312,0.76823-0.72915,1.1523-1.1914,1.1523-1.3867"/>
  <path d="m707.27,73.344c0.29946,0.0521,0.4492,0.20835,0.44922,0.46875l0.46875-0.23438c0.36457,0.00002,0.90493,0.46226,1.6211,1.3867h0.21485c0.15623,1.9271,0.23435,3.0078,0.23437,3.2422-0.45574,1.836-1.224,3.2943-2.3047,4.375-1.3281,1.1458-2.793,1.9922-4.3945,2.5391v-0.21484l-0.44922,0.21484h-0.70312c-1.5365,0.000009-2.3047-0.14973-2.3047-0.44922l-0.46875,0.23438h-0.21484l-0.70313-0.46875h-0.68359l-0.23438,1.3867c0.61198,0.000008,0.91797,0.15626,0.91797,0.46875,0.9375,0.8724,3.0924,1.6406,6.4648,2.3047,2.2526,0.29948,3.483,0.44922,3.6914,0.44922h1.3867c0.35155,0.35157,1.1979,0.58594,2.5391,0.70312v1.8359c-0.29949,0.000003-0.44923,0.15625-0.44922,0.46875h-0.23437c-0.15627,0.000002-0.23439-0.07812-0.23438-0.23438l-0.46875,0.23438h-0.21484c-0.15627,0.000002-0.23439-0.07812-0.23437-0.23438-0.15627,0.000003-0.2344,0.07813-0.23438,0.23438-3.9193,0.000002-6.9987-0.46224-9.2383-1.3867l-0.46875,0.23438-3.9258-2.0703c-0.92448-0.78124-1.3867-1.4779-1.3867-2.0898,0-0.22135-0.22787-0.44921-0.68359-0.68359,0.65104-3.9193,1.7318-6.7708,3.2422-8.5547,0.29948,0.000017,0.44922-0.14972,0.44922-0.44922-0.15625,0.000017-0.23438-0.07811-0.23437-0.23438,0.5078,0.000018,1.1263-0.46222,1.8555-1.3867,0.66405-0.15623,1.4323-0.46222,2.3047-0.91797-0.00001,0.14325,0.0781,0.21486,0.23438,0.21484v-0.21484c-0.15626,0.000019-0.23439-0.07811-0.23438-0.23438-0.00001-0.31248,1.543-0.62498,4.6289-0.9375m-2.3242,2.5586c-0.00001,0.2995-0.9961,0.68361-2.9883,1.1523l-2.7734,2.9883c0,0.37762-0.23438,0.76173-0.70312,1.1523v0.46875c1.3542,0.15626,2.3568,0.39064,3.0078,0.70312,2.9297-0.24738,4.3945-0.78775,4.3945-1.6211,1.224-0.93749,1.8359-2.3242,1.8359-4.1602h-0.23438c-0.14324,0.000018-0.21485-0.22785-0.21484-0.68359l-2.0898,0.21484c-0.00002-0.14321-0.0781-0.21482-0.23438-0.21484"/>
  <path d="m718.11,74.516,0.70313,0c-0.00001,0.15627,0.0716,0.38413,0.21484,0.68359l0.46875-0.23438h0.23438c0.45572,0.15627,0.68358,0.61851,0.68359,1.3867v0.46875c-0.5599,1.0287-0.94401,2.1029-1.1523,3.2227l-0.44922,0.23438c-0.00001,0.15626,0.0716,0.23439,0.21484,0.23438-0.29948,1.25-0.52735,2.7149-0.68359,4.3945,0.15624,0.000009,0.23437,0.07162,0.23437,0.21484-0.15625,0.000009-0.23438,0.07813-0.23437,0.23438h0.23437c1.0677-1.9922,1.7578-2.9883,2.0703-2.9883,0.53384-1.3802,1.5364-2.6172,3.0078-3.7109,1.6797-2.3047,3.4505-3.457,5.3125-3.457,1.8489,0.15627,2.7734,1.0026,2.7734,2.5391h-0.23438c0.15623,0.46877,0.30597,0.70314,0.44922,0.70312l-0.21484,1.1523v0.68359h-0.9375c-0.41669,0.000013-0.72268-0.76822-0.91797-2.3047-0.37762-0.31248-0.68361-0.46873-0.91797-0.46875-1.3932,0.37762-2.0899,0.99611-2.0898,1.8555-1.9792,1.224-3.0534,2.2982-3.2226,3.2227-1.1589,1.4714-2.0833,2.9362-2.7734,4.3945-1.276,2.5521-2.4284,4.1667-3.457,4.8438-1.237,0.000003-1.8555-1.1523-1.8555-3.457v-3.927c0-0.15624,0.0781-0.23436,0.23438-0.23438-0.00001-0.15624-0.0781-0.23436-0.23438-0.23438,0.18229-1.3672,0.33854-2.2135,0.46875-2.5391-0.15625,0.000013-0.23438-0.07811-0.23437-0.23438h0.68359c-0.15625-0.28644-0.23438-0.51431-0.23438-0.68359,0.40365-3.2292,0.71615-4.8437,0.9375-4.8438,0.61198-0.46873,0.91797-0.85285,0.91797-1.1523"/>
 </g>
 <g font-size="40px" font-weight="bold" style="word-spacing:0px;letter-spacing:0px;writing-mode:lr-tb;text-anchor:middle;text-align:center;" transform="translate(454.72858,-1.04698)" font-stretch="normal" font-variant="normal" font-style="normal" font-family="ChrisMcCormickTwentyEleven" line-height="125%" fill="#000000">
  <path d="m24.16,21.048c0.76822,0.93753,1.1523,2.168,1.1523,3.6914-0.15626,0.20836-0.23438,0.59899-0.23438,1.1719h0.23438c-0.000006,0.76826-0.15626,1.1524-0.46875,1.1523,0.15624,0.29951,0.23437,0.52737,0.23438,0.68359l-0.23438,2.0898c0.15624,0.28648,0.23437,0.51435,0.23438,0.68359l-0.46875,0.23438c0.15624,0.84638,0.23437,1.4584,0.23438,1.8359-0.000006,2.1485-0.22787,3.8477-0.68359,5.0977h0.23438c0.20833,0.000018,0.74218-0.54035,1.6016-1.6211,0.87239-0.76821,2.1094-1.1523,3.7109-1.1523,1.5495,0.000021,3.164,0.612,4.8438,1.8359,2.1484,1.849,3.2226,3.4636,3.2227,4.8438v2.3242c-0.57294,0.72918-0.95705,1.5755-1.1523,2.5391-0.58596,0.00001-1.4323,0.9961-2.5391,2.9883-1.224,0.67709-1.9141,1.5234-2.0703,2.5391l-0.468-0.215h-0.23438c-0.000013,1.0156-1.3086,1.9401-3.9258,2.7734h-2.0703c-1.028,0-2.799-0.39-5.312-1.171v-1.6016c0.61198,0.000004,0.91797-0.23437,0.91797-0.70312l-0.23438-1.1523c0.46875-3.7109,0.85937-6.25,1.1719-7.6172v-0.23438c-0.15625-0.27342-0.23438-0.57941-0.23438-0.91797-0.000003-0.15624,0.07812-0.23436,0.23438-0.23438-0.000003-0.15624-0.07813-0.23436-0.23438-0.23438l0.44922-2.0703-0.21484-0.46875,0.21484-1.1523c-0.144-0.276-0.216-0.582-0.216-0.92l0.44922-0.23438c-0.000003-0.15623-0.07813-0.23436-0.23438-0.23438,0.1302-1.6927,0.28646-2.539,0.46875-2.5391-0.000003-0.15623-0.07813-0.23435-0.23438-0.23438l0.23438-2.7734v-0.91797c-0.000003-0.15622,0.07812-0.23435,0.23438-0.23438l-0.23438-0.44922c-0.000003-0.15622,0.07812-0.23435,0.23438-0.23438l-0.236-0.473v-2.0703c-0.000003-0.35153-0.07813-0.66403-0.23438-0.9375l0.23438-0.44922c-0.000003-0.7682-0.22787-1.1523-0.68359-1.1523,0.14323-1.3932,0.91145-2.0898,2.3047-2.0898m1.6211,18.945c0.14322,0.2995,0.21484,0.52736,0.21484,0.68359-0.42969,0.000015-0.96355,1.4649-1.6016,4.3945-0.000005,0.15626,0.07161,0.23439,0.21484,0.23438-0.45573,2.0573-0.6836,3.4375-0.68359,4.1406v0.9375l-1.3867,0.23438v0.44922c0.53385,0.92448,0.91796,1.3867,1.1523,1.3867h2.0898c1.1979,0.000003,3.1966-1.5365,5.9961-4.6094,2.0703-2.5781,3.2226-4.4271,3.457-5.5469h0.23438c-1.1068-3.2292-2.7995-4.8437-5.0781-4.8438-0.000012-0.10415-0.22788-0.2604-0.68359-0.46875-1.875,0.65106-3.1836,1.6537-3.9258,3.0078"/>
  <path d="m43.086,36.302,0.70312,0c-0.000004,0.15627,0.07161,0.38413,0.21484,0.68359l0.46875-0.23438h0.23438c0.45572,0.15627,0.68359,0.61851,0.68359,1.3867v0.46875c-0.5599,1.0287-0.94402,2.1029-1.1523,3.2227l-0.44922,0.23438c-0.000004,0.15626,0.07161,0.23439,0.21484,0.23438-0.29948,1.25-0.52735,2.7149-0.68359,4.3945,0.15625,0.000009,0.23437,0.07162,0.23438,0.21484-0.15625,0.000009-0.23438,0.07813-0.23438,0.23438h0.23438c1.0677-1.9922,1.7578-2.9883,2.0703-2.9883,0.53385-1.3802,1.5365-2.6172,3.0078-3.7109,1.6797-2.3047,3.4505-3.457,5.3125-3.457,1.8489,0.15627,2.7734,1.0026,2.7734,2.5391h-0.23438c0.15623,0.46877,0.30597,0.70314,0.44922,0.70312l-0.21484,1.1523v0.68359h-0.9375c-0.41668,0.000014-0.72267-0.76822-0.91797-2.3047-0.37762-0.31248-0.68361-0.46873-0.91797-0.46875-1.3932,0.37762-2.0899,0.99611-2.0898,1.8555-1.9792,1.224-3.0534,2.2982-3.2227,3.2227-1.1589,1.4714-2.0833,2.9362-2.7734,4.3945-1.276,2.5521-2.4284,4.1667-3.457,4.8438-1.237,0.000002-1.8555-1.1523-1.8555-3.457v-3.927c-0.000001-0.15624,0.07812-0.23436,0.23438-0.23438-0.000001-0.15624-0.07813-0.23436-0.23438-0.23438,0.18229-1.3672,0.33854-2.2135,0.46875-2.5391-0.15625,0.000012-0.23438-0.07811-0.23438-0.23438h0.68359c-0.15625-0.28644-0.23438-0.51431-0.23438-0.68359,0.40364-3.2292,0.71614-4.8437,0.9375-4.8438,0.61198-0.46873,0.91796-0.85284,0.91797-1.1523"/>
  <path d="m67.773,35.365c1.2239,0.15627,1.8359,0.39064,1.8359,0.70312l0.46875-0.23438c2.0833,0.00002,3.9323,1.6927,5.5469,5.0781,0.29946,1.4193,0.4492,2.2656,0.44922,2.5391-0.000018,2.0573-0.84637,4.3685-2.5391,6.9336-0.24741,0.000006-0.5534,0.306-0.91797,0.91797l-2.5391,2.7734c-2.0052,0.61198-3.4701,0.91797-4.3945,0.91797-2.7214-0.80729-4.5638-2.2656-5.5273-4.375-0.000002-0.15624,0.07161-0.23437,0.21484-0.23438-0.29948-0.55989-0.44922-1.1784-0.44922-1.8555-0.000001-0.33853,0.07812-0.64452,0.23438-0.91797-0.15625-0.27343-0.23438-0.57942-0.23438-0.91797v-0.46875l0.23438-0.46875c-0.3125,0.00001-0.46875-0.14973-0.46875-0.44922,0.97656-4.6224,1.9792-6.9336,3.0078-6.9336-0.000004-0.22134,0.6901-0.7617,2.0703-1.6211-0.000006-0.15623,0.23437-0.23436,0.70312-0.23438l-0.23438-0.44922,0.23438-0.46875,1.1523,0.23438c0.29947-0.15623,0.52734-0.23436,0.68359-0.23438-0.000008,0.15627,0.07812,0.2344,0.23438,0.23438l0.23438-0.46875m-6.0156,10.391,0.23438,0.46875c-0.000003,0.15626-0.07813,0.23438-0.23438,0.23438-0.000003,3.8412,1.6927,5.7617,5.0781,5.7617,1.25-0.0651,2.5586-0.7552,3.9258-2.0703-0.000012-0.52083,0.54035-1.2109,1.6211-2.0703,0.92446-2.2135,1.3867-3.5221,1.3867-3.9258v-0.4694c-0.000015-2.6562-1.3086-4.6549-3.9258-5.9961-1.3802,0.612-2.3828,0.91799-3.0078,0.91797-2.4609,0.85939-3.6914,1.8555-3.6914,2.9883-0.70313,1.6016-1.1654,2.9883-1.3867,4.1602"/>
  <path d="m80.684,36.068c0.33854,0.2995,1.1068,0.68361,2.3047,1.1523-0.000005,0.23439,0.14973,0.54038,0.44922,0.91797l-0.21484,1.1523c0.14322,0.2995,0.21484,0.53387,0.21484,0.70312h-0.21484l0.21484,0.44922v0.70312c-0.000006,0.63804,0.07812,1.4844,0.23438,2.5391-0.15626,0.29949-0.23438,0.52736-0.23438,0.68359,0.31249,0.0521,0.46874,0.20834,0.46875,0.46875v0.23438l-0.23438,0.44922c0.26041,0.000011,0.57291,1.237,0.9375,3.7109l0.68359,0.44922c1.4323-3.151,2.3568-4.9935,2.7734-5.5273-0.15626,0.000011-0.23438-0.07811-0.23438-0.23438,1.6667-2.7734,2.7474-4.1601,3.2422-4.1602,0.45572,0.000017,0.68358-0.23436,0.68359-0.70312l0.70312,0.46875c0.03905-0.31248,0.18879-0.46873,0.44922-0.46875,0.46874,1.4844,0.93097,3.2552,1.3867,5.3125h-0.23438l0.23438,0.46875v0.68359h0.23438v2.0898h0.46875c0.67706-3.737,1.289-5.8919,1.8359-6.4648,1.263-3.2291,2.6497-4.8437,4.1602-4.8438h0.23438c0.37758,0.2995,0.68357,0.44924,0.91797,0.44922-0.00003,0.10419-0.30602,0.64455-0.91797,1.6211-1.5625,2.9037-2.7214,5.7487-3.4766,8.5352v0.23438c0.31248,0.000009,0.46873,0.07813,0.46875,0.23438-0.76825,1.8099-1.3867,3.6589-1.8555,5.5469-0.2995,0.000003-0.60549,0.22787-0.91797,0.68359-1.5365-0.20833-2.3047-0.97656-2.3047-2.3047-0.15626,0.000005-0.23439-0.07812-0.23438-0.23438-0.000015-0.15624,0.07811-0.23437,0.23438-0.23438-0.45574-1.5365-0.99611-4.1536-1.6211-7.8516-1.0807,1.0938-1.849,2.6367-2.3047,4.6289-1.3412,3.5417-2.5716,5.3125-3.6914,5.3125h-0.46875c-1.9271,0.000003-3.4635-3.5417-4.6094-10.625v-0.91797c-0.625,0.000015-0.9375-0.15624-0.9375-0.46875l0.23438-0.46875c-0.33854,0.000016-0.56641-0.30597-0.68359-0.91797h-0.23438v-0.23438c1.237-1.7969,1.8555-2.8711,1.8555-3.2227"/>
  <path d="m116.46,36.986,0.46875-0.23438c1.5234,0.000019,2.6758,0.84637,3.457,2.5391v0.46875h-1.6211c-0.50783,0.000017-1.0417-0.23436-1.6016-0.70312-0.35158,0.000017-0.66408,0.07814-0.9375,0.23438l-0.44922-0.23438c-1.4453,0.000017-2.9883,0.46226-4.6289,1.3867-0.29948,0.0521-0.44922,0.20835-0.44921,0.46875v0.23438c0.53384,0.88543,1.8424,1.9596,3.9258,3.2227,2.4609,2.4219,3.6914,4.4271,3.6914,6.0156-0.26043,0.000006-0.72267,0.53386-1.3867,1.6016-1.3542,0.15625-2.2005,0.39063-2.5391,0.70312h-3.2422l-1.15,0.232c-0.00001-0.3125-0.0781-0.46875-0.23437-0.46875l-0.44922,0.23438c-2.0443-0.53385-3.5091-1.224-4.3945-2.0703v-0.46875c0.45572-0.50781,0.68359-0.89192,0.68359-1.1523h0.23437l0.46875,0.23438v-0.46875h0.23438c0.50781,0.000007,1.1979,0.38412,2.0703,1.1523,0.15625,0.000006,0.23437-0.07812,0.23438-0.23438,1.3151,0.31251,2.4674,0.46876,3.457,0.46875,2.1614-0.10416,3.2422-0.41015,3.2422-0.91797-1.7188-2.2526-3.4115-3.8737-5.0781-4.8633-0.52084-0.61197-1.0612-0.91796-1.6211-0.91797l-1.8555-2.3047c0.19531-2.0052,1.1979-3.0078,3.0078-3.0078,0.31249-0.83332,2.4674-1.3737,6.4648-1.6211v0.46875"/>
  <path d="m135.37,35.13c0.29947,0.0521,0.44921,0.20835,0.44922,0.46875l0.46875-0.23438c0.36457,0.000021,0.90494,0.46226,1.6211,1.3867h0.21484c0.15623,1.9271,0.23436,3.0078,0.23437,3.2422-0.45574,1.836-1.224,3.2943-2.3047,4.375-1.3281,1.1458-2.793,1.9922-4.3945,2.5391v-0.21484l-0.44922,0.21484h-0.70313c-1.5365,0.000009-2.3047-0.14973-2.3047-0.44922l-0.46874,0.23438h-0.21485l-0.70312-0.46875h-0.6836l-0.23437,1.3867c0.61197,0.000008,0.91796,0.15626,0.91797,0.46875,0.93749,0.8724,3.0924,1.6406,6.4648,2.3047,2.2526,0.29948,3.4831,0.44922,3.6914,0.44922h1.3867c0.35155,0.35157,1.1979,0.58594,2.5391,0.70312v1.8359c-0.2995,0.000002-0.44924,0.15625-0.44922,0.46875h-0.23438c-0.15626,0.000002-0.23439-0.07812-0.23437-0.23438l-0.46875,0.23438h-0.21485c-0.15626,0.000002-0.23439-0.07812-0.23437-0.23438-0.15627,0.000002-0.23439,0.07813-0.23438,0.23438-3.9193,0.000002-6.9987-0.46224-9.2383-1.3867l-0.46875,0.23438-3.9258-2.0703c-0.92448-0.78124-1.3867-1.4779-1.3867-2.0898,0-0.22135-0.22786-0.44921-0.68359-0.68359,0.65104-3.9193,1.7318-6.7708,3.2422-8.5547,0.29947,0.000017,0.44921-0.14972,0.44922-0.44922-0.15626,0.000017-0.23438-0.07811-0.23438-0.23438,0.50781,0.000017,1.1263-0.46222,1.8555-1.3867,0.66406-0.15623,1.4323-0.46222,2.3047-0.91797-0.00001,0.14325,0.0781,0.21486,0.23437,0.21484v-0.21484c-0.15626,0.00002-0.23438-0.07811-0.23437-0.23438-0.00001-0.31248,1.543-0.62498,4.6289-0.9375m-2.3242,2.5586c-0.00001,0.2995-0.9961,0.68361-2.9883,1.1523l-2.7734,2.9883c-0.00001,0.37762-0.23438,0.76173-0.70313,1.1523v0.46875c1.3542,0.15626,2.3568,0.39064,3.0078,0.70312,2.9297-0.24738,4.3945-0.78775,4.3945-1.6211,1.224-0.93749,1.8359-2.3242,1.8359-4.1602h-0.23437c-0.14325,0.000017-0.21486-0.22785-0.21485-0.68359l-2.0898,0.21484c-0.00001-0.14321-0.0781-0.21483-0.23438-0.21484"/>
  <path d="m146.21,36.302,0.70312,0c0,0.15627,0.0716,0.38413,0.21485,0.68359l0.46875-0.23438h0.23437c0.45572,0.15627,0.68359,0.61851,0.68359,1.3867v0.46875c-0.5599,1.0287-0.94401,2.1029-1.1523,3.2227l-0.44922,0.23438c0,0.15626,0.0716,0.23439,0.21485,0.23438-0.29949,1.25-0.52735,2.7149-0.6836,4.3945,0.15625,0.000009,0.23437,0.07162,0.23438,0.21484-0.15626,0.000009-0.23438,0.07813-0.23438,0.23438h0.23438c1.0677-1.9922,1.7578-2.9883,2.0703-2.9883,0.53385-1.3802,1.5364-2.6172,3.0078-3.7109,1.6797-2.3047,3.4505-3.457,5.3125-3.457,1.8489,0.15627,2.7734,1.0026,2.7734,2.5391h-0.23438c0.15624,0.46877,0.30598,0.70314,0.44922,0.70312l-0.21484,1.1523v0.68359h-0.9375c-0.41668,0.000014-0.72267-0.76822-0.91797-2.3047-0.37762-0.31248-0.68361-0.46873-0.91797-0.46875-1.3932,0.37762-2.0898,0.99611-2.0898,1.8555-1.9792,1.224-3.0534,2.2982-3.2227,3.2227-1.1589,1.4714-2.0833,2.9362-2.7734,4.3945-1.276,2.5521-2.4284,4.1667-3.457,4.8438-1.237,0.000002-1.8555-1.1523-1.8555-3.457v-3.927c0-0.15624,0.0781-0.23436,0.23438-0.23438,0-0.15624-0.0781-0.23436-0.23438-0.23438,0.1823-1.3672,0.33855-2.2135,0.46875-2.5391-0.15625,0.000012-0.23437-0.07811-0.23437-0.23438h0.68359c-0.15625-0.28644-0.23437-0.51431-0.23437-0.68359,0.40364-3.2292,0.71614-4.8437,0.9375-4.8438,0.61197-0.46873,0.91796-0.85284,0.91797-1.1523"/>
 </g>
 <g style="writing-mode:lr-tb;letter-spacing:0px;text-anchor:middle;word-spacing:0px;text-align:center;" font-weight="bold" font-size="37.6690712px" font-stretch="normal" font-variant="normal" font-style="normal" font-family="ChrisMcCormickTwentyEleven" line-height="125%" fill="#000000">
  <path style="" d="m269.52,87.585c1.594,0.000032,2.3911,0.50891,2.3911,1.5266,0.14712,0.25753,0.2207,0.54569,0.22072,0.86448l-0.22072,0.88287c0.29427,0.03682,0.44141,0.17783,0.44144,0.42304v0.22072c-0.14717,0.58861-0.58248,0.8829-1.3059,0.88287-0.00003-0.44141-0.14104-0.66212-0.42304-0.66215l-0.66216,0.86448,0.22072,1.0852c-0.72348,0.000026-1.3795,2.3973-1.9681,7.1917-0.24526,0.00001-0.45985,0.36175-0.64376,1.0852,0.14713,0.28204,0.2207,0.49663,0.22072,0.64376-0.20848,0.00001-0.57021,0.87062-1.0852,2.6118h-0.22072v0.86447h0.44143v0.88287c-0.00002,0.20847-0.22073,0.42306-0.66215,0.64376,0.14713,0.28204,0.2207,0.50276,0.22072,0.66215-0.00002,0.1349-0.28818,0.56407-0.86448,1.2875,0.42916,0.00001,0.64374,0.2943,0.64376,0.88287-0.91967,2.992-1.7167,5.1623-2.3911,6.5112,0.29427,0,0.44142,0.0736,0.44143,0.22071-0.40466,0.87061-0.98711,1.3059-1.7473,1.3059h-0.22072c-0.00001-0.42917-0.14103-0.64375-0.42304-0.64375v0.42304c-0.6499,0-1.2324-1.5205-1.7474-4.5615,0.14714-0.2575,0.22071-0.54566,0.22072-0.86448l-0.44143-0.66215v-0.42304l0.22071-0.44144c-0.2943,0.00001-0.65603-0.36172-1.0852-1.0852l0.22072-1.0852v-0.44144h-0.44144v-1.9497c-1.3734,1.5205-2.0968,2.6793-2.1704,3.4763-0.25751,0.57633-0.83996,1.1588-1.7474,1.7474l0.22072,0.42304c-0.35561,1.0178-0.79091,1.5266-1.3059,1.5266-0.00001,1.2998-0.43531,1.9497-1.3059,1.9497,0,0.67442-0.50275,1.1097-1.5082,1.3059-0.14715,0.44144-0.58246,0.66216-1.3059,0.66216-1.0178,0-1.5266-2.103-1.5266-6.3088,0.14714,0.00001,0.22071-0.0736,0.22072-0.22072-0.29429,0.00001-0.44144-0.14713-0.44144-0.44143,0.29429-0.46595,0.44143-0.82768,0.44144-1.0852-0.14715-1.2752-0.22072-2.0723-0.22072-2.3911l0.22072-0.42304c-0.14715-0.25749-0.22072-0.55178-0.22072-0.88287,0-0.14713,0.0736-0.2207,0.22072-0.22071l-0.22072-0.42304v-0.22072c0-0.14713,0.0736-0.2207,0.22072-0.22072l-0.22072-0.42304c0-0.15939,0.0736-0.38011,0.22072-0.66215l-0.22072-1.3059c0.049-0.28201,0.19006-0.42303,0.42304-0.42304l-0.20232-0.44144v-1.5266c-0.00001-0.31879-0.0736-0.60695-0.22072-0.86447,0.14714-0.72344,0.28816-1.0852,0.42304-1.0852l-0.20232-0.44143v-1.5266l-0.22072-1.3059,0.22072-0.42304c-0.00001-0.14712-0.0736-0.22069-0.22072-0.22072,0-1.5695,0.57631-2.5873,1.729-3.0533,1.312,0.57634,1.9681,1.447,1.9681,2.6118-0.29429,2.5873-0.7296,5.052-1.3059,7.394l0.22072,1.3059-0.22072,1.0852c0,0.15942,0.0736,0.38014,0.22072,0.66215l-0.22072,1.3059c0,0.47824,0.0736,0.83997,0.22072,1.0852l-0.22072,1.3059v1.729l0.22072,2.6118h-0.22072l0.22072,0.44143v0.22072l-0.22072,0.42304h0.22072c0.18393,0.00001,0.83382-0.8706,1.9497-2.6118-0.00001-0.23297,1.6676-2.7651,5.0029-7.5964,0.14714-0.44142,0.58244-0.66214,1.3059-0.66215h0.22072c1.4469,1.4102,2.1704,3.0778,2.1704,5.0029h-0.22071v0.22072c0.72344,1.0791,1.0852,2.0907,1.0852,3.0349-0.14716,0.00001-0.22073,0.0736-0.22072,0.22072l0.44144,0.22071c0.049-0.29428,0.19618-0.44142,0.44143-0.44143l-0.22071-0.42304v-0.88287h0.44143v-1.5082c0.28201-0.24523,0.85833-2.5689,1.729-6.971,0.25749-1.4469,0.54564-2.1704,0.86448-2.1704,0.14712,0.00002,0.22069-0.07355,0.22071-0.22072-0.00002-0.11034-0.0736-0.54564-0.22071-1.3059,0.44141-0.71118,0.95029-2.2317,1.5266-4.5615v-0.86448c0.25749,0.000028,0.54565-0.58242,0.86448-1.7473h0.22072l-0.22072-0.42304c0.74796-1.4592,1.1833-2.1887,1.3059-2.1888"/>
  <path style="" d="m283.3,99.761c0.28202,0.04907,0.42303,0.19621,0.42304,0.44143l0.44144-0.22071c0.34332,0.000019,0.8522,0.43532,1.5266,1.3059h0.20232c0.14713,1.8148,0.2207,2.8326,0.22072,3.0532-0.42919,1.729-1.1526,3.1023-2.1704,4.1201-1.2507,1.0791-2.6302,1.8761-4.1384,2.3911v-0.20232l-0.42304,0.20232h-0.66215c-1.4469,0.00001-2.1704-0.141-2.1704-0.42304l-0.44144,0.22072h-0.20232l-0.66215-0.44144h-0.64376l-0.22072,1.3059c0.57631,0.00001,0.86447,0.14715,0.86448,0.44144,0.88286,0.82156,2.9122,1.545,6.0881,2.1704,2.1213,0.28203,3.2801,0.42305,3.4763,0.42304h1.3059c0.33106,0.33108,1.1281,0.5518,2.3911,0.66216v1.729c-0.28204,0-0.42306,0.14714-0.42304,0.44143h-0.22072c-0.14716,0-0.22073-0.0736-0.22071-0.22072l-0.44144,0.22072h-0.20232c-0.14716,0-0.22074-0.0736-0.22072-0.22072-0.14716,0.00001-0.22073,0.0736-0.22072,0.22072-3.6909,0-6.5909-0.4353-8.6999-1.3059l-0.44144,0.22072-3.697-1.9497c-0.87061-0.73572-1.3059-1.3917-1.3059-1.9681,0-0.20845-0.21459-0.42304-0.64376-0.64376,0.6131-3.6909,1.6308-6.3763,3.0532-8.0562,0.28203,0.00002,0.42304-0.141,0.42305-0.42304-0.14715,0.00002-0.22073-0.0736-0.22072-0.22072,0.47821,0.00002,1.0607-0.43528,1.7473-1.3059,0.62536-0.14712,1.3488-0.43528,2.1704-0.86447-0.00001,0.1349,0.0736,0.20234,0.22072,0.20232v-0.20232c-0.14716,0.00001-0.22073-0.0736-0.22072-0.22072-0.00001-0.29427,1.453-0.58856,4.3592-0.88287m-2.1888,2.4095c-0.00001,0.28204-0.93805,0.64377-2.8141,1.0852l-2.6118,2.8141c-0.00001,0.35562-0.22072,0.71735-0.66215,1.0852v0.44143c1.2752,0.14716,2.2194,0.36787,2.8325,0.66215,2.759-0.23296,4.1384-0.74184,4.1384-1.5266,1.1526-0.88286,1.7289-2.1888,1.729-3.9177h-0.22071c-0.1349,0.00001-0.20234-0.21457-0.20233-0.64376l-1.9681,0.20232c-0.00001-0.13486-0.0736-0.20231-0.22072-0.20232"/>
  <path style="" d="m295.03,86.5c0.72346,0.8829,1.0852,2.0417,1.0852,3.4763-0.14716,0.19622-0.22073,0.56408-0.22072,1.1036h0.22072c-0.00001,0.72349-0.14716,1.0852-0.44144,1.0852,0.14714,0.28205,0.22071,0.49664,0.22072,0.64376l-0.22072,1.9681c0.14714,0.26979,0.22071,0.48438,0.22072,0.64376l-0.44144,0.22072c0.14714,0.79706,0.22072,1.3734,0.22072,1.729,0,2.0233-0.21459,3.6235-0.64376,4.8006h0.22072c0.19619,0.00001,0.69893-0.50886,1.5082-1.5266,0.82155-0.72344,1.9864-1.0852,3.4947-1.0852,1.4592,0.00002,2.9797,0.57633,4.5615,1.729,2.0232,1.7412,3.0348,3.2617,3.0349,4.5615v2.1888c-0.53954,0.68668-0.90128,1.4837-1.0852,2.3911-0.55181,0.00001-1.3488,0.93806-2.3911,2.8141-1.1526,0.63764-1.8025,1.4347-1.9497,2.3911l-0.44144-0.20233h-0.22071c-0.00001,0.95645-1.2324,1.827-3.697,2.6118h-1.9497c-0.96871,0-2.6364-0.36786-5.0029-1.1036v-1.5082c0.57632,0.00001,0.86448-0.22071,0.86448-0.66215l-0.22072-1.0852c0.44143-3.4947,0.80929-5.8858,1.1036-7.1733v-0.22072c-0.14715-0.25749-0.22072-0.54565-0.22072-0.86447,0-0.14714,0.0736-0.22071,0.22072-0.22072-0.00001-0.14713-0.0736-0.2207-0.22072-0.22072l0.42304-1.9497-0.20232-0.44143,0.20232-1.0852c-0.13489-0.25749-0.20233-0.54565-0.20232-0.86448l0.42304-0.22072c-0.00001-0.14712-0.0736-0.2207-0.22072-0.22072,0.12262-1.594,0.26976-2.3911,0.44143-2.3911,0-0.14712-0.0736-0.2207-0.22071-0.22072l0.22071-2.6118v-0.86448c0-0.14712,0.0736-0.22069,0.22072-0.22072l-0.22072-0.42304c0-0.14712,0.0736-0.22069,0.22072-0.22072l-0.22072-0.44144v-1.9497c0-0.33105-0.0736-0.62534-0.22071-0.88287l0.22071-0.42304c0-0.72343-0.21458-1.0852-0.64375-1.0852,0.13488-1.312,0.85834-1.968,2.1704-1.9681m1.5266,17.841c0.13488,0.28204,0.20232,0.49663,0.20232,0.64376-0.40465,0.00002-0.9074,1.3795-1.5082,4.1384-0.00001,0.14715,0.0674,0.22073,0.20232,0.22072-0.42917,1.9374-0.64376,3.2372-0.64375,3.8993v0.88287l-1.3059,0.22072v0.42304c0.50275,0.87061,0.86448,1.3059,1.0852,1.3059h1.9681c1.1281,0,3.0103-1.4469,5.6467-4.3408,1.9497-2.4279,3.0348-4.1691,3.2556-5.2236h0.22072c-1.0423-3.041-2.6364-4.5615-4.7822-4.5615-0.00001-0.0981-0.2146-0.24522-0.64376-0.44143-1.7657,0.61312-2.9981,1.5573-3.697,2.8325"/>
  <path style="" d="m319.39,87.806c1.8148,0.000031,3.0471,0.72349,3.697,2.1704,0.515,0.73575,0.9503,1.6064,1.3059,2.6118v0.66215c0.0736,0.000026,0.36172,0.79706,0.86448,2.3911l-0.22072,0.42304c0.29428,1.6677,0.44142,2.8326,0.44144,3.4947-1.0668,3.3353-1.8638,5.0029-2.3911,5.0029l-2.3911,1.2875h-0.22072v0.22071c0.39238,0.00002,0.96869,0.72961,1.729,2.1888,0.50274,0.00001,1.1588,0.72348,1.9681,2.1704,0.9319,0.4537,1.5818,1.1036,1.9497,1.9497,0.4782,0,0.98707,0.58245,1.5266,1.7473-0.14716,0.00001-0.22073,0.0736-0.22071,0.22072h0.22071c-0.00002-0.14714,0.0736-0.22071,0.22072-0.22072l0.64376,1.0852v1.0852c-0.42919,0.36786-0.64378,0.65602-0.64376,0.86447h-0.66215c-0.28205,0.00001-1.2937-1.0852-3.0349-3.2556-1.1404-0.64989-2.011-1.5205-2.6118-2.6118-0.36788,0.00001-1.2385-0.79702-2.6118-2.3911-0.2943-0.82155-1.0178-1.545-2.1704-2.1704-0.00001-0.44143-0.65603-0.87673-1.9681-1.3059-0.00001,0.14715-0.0675,0.22073-0.20233,0.22071l0.20233,0.42304-0.64376,2.6118h0.44143c0,0.71121-0.22072,1.4347-0.66215,2.1704,0.44143,0.00001,0.66215,0.14715,0.66215,0.44143l-0.22071,0.86448c0.14714,0.28204,0.22071,0.50275,0.22071,0.66215h-0.22071l0.22071,0.42304v0.88287c0,0.14715-0.0736,0.22072-0.22071,0.22072l0.22071,0.42304-0.22071,1.0852c0.14714,0.56406,0.22071,1.1465,0.22071,1.7474-0.87061,0.0858-1.3059,0.52114-1.3059,1.3059-0.79703,0-1.453-0.4353-1.9681-1.3059v-1.3059c0-0.33107,0.0736-0.61923,0.22072-0.86448-0.14715-0.8706-0.50888-1.3059-1.0852-1.3059v-0.44143c0.62536,0,0.98709-0.28815,1.0852-0.86448l-0.22072-0.44143c0-0.26976,0.14714-0.84608,0.44144-1.729-0.00001-0.14714-0.0736-0.22071-0.22072-0.22072,0.72346-4.1078,1.3059-6.7196,1.7473-7.8355l-0.22071-0.42304c0.29428-0.60083,0.44143-1.0361,0.44143-1.3059-0.14715-0.28201-0.22072-0.50273-0.22072-0.66216,0.20845-0.57629,0.42304-0.86445,0.64376-0.86447,0-0.14712-0.0736-0.2207-0.22071-0.22072,0.8706-4.0342,2.1029-7.443,3.697-10.227,0.88286-0.72343,1.5389-1.0852,1.9681-1.0852m0.42304,2.3911c-0.46597,0.40468-0.8277,1.1343-1.0852,2.1888-0.77252,1.0423-1.5696,3.3598-2.3911,6.9526-0.22073,0.72348-0.43531,1.0852-0.64376,1.0852l0.22071,0.44144-0.22071,0.86447c-0.00001,0.61312,0.50273,1.0484,1.5082,1.3059,0.29428,0.35562,0.44143,0.64378,0.44144,0.86448h0.66215c0.3188,0.00001,0.60696-0.0736,0.86447-0.22072l0.44144,0.22072c1.594-0.91964,2.7528-2.4401,3.4763-4.5615-0.00001-0.14712-0.0736-0.2207-0.22071-0.22072l0.22071-1.0852v-0.66215c-0.24525-0.51498-0.53954-1.6002-0.88287-3.2556-1.0055-2.4401-1.8025-3.746-2.3911-3.9177"/>
  <path style="" d="m340.85,88.689c0.87059,0.00003,1.3059,0.64992,1.3059,1.9497v0.86448c-0.00001,0.14717-0.0736,0.22074-0.22072,0.22072,0.14713,0.24527,0.22071,0.607,0.22072,1.0852l0.64376-0.42304h0.22072c0.14713,0.000027,0.2207,0.06747,0.22071,0.20232l0.44144-0.20232c1.8883,0.3311,3.1207,0.69283,3.697,1.0852l0.20232-0.44144c2.0723,0.18396,3.7399,0.7664,5.0029,1.7473l-0.20233,0.42304v1.3059l-3.9177-1.0852c-0.00002,0.29431-0.14716,0.44146-0.44143,0.44143h-0.22072v-0.44143h-1.3059c-0.1349,0.000023-0.20234-0.07355-0.20232-0.22072-0.14716,0.000024-0.22074,0.0736-0.22072,0.22072-2.4524-0.29427-3.9055-0.44141-4.3592-0.44144-0.14715,0.72349-0.28817,1.0852-0.42304,1.0852l0.20233,0.44144v0.22072c-0.00001,0.62539-0.14103,1.2078-0.42304,1.7473,0.28201,0.03681,0.42303,0.17782,0.42304,0.42304v1.0852c-0.00001,0.72348-0.14103,1.0852-0.42304,1.0852,0.14713,0.28205,0.2207,0.50276,0.22071,0.66215l-0.22071,1.9497c-0.00001,0.87062,0.21457,1.3059,0.64375,1.3059l-0.22071,0.86448c-0.00001,0.15942,0.0736,0.38013,0.22071,0.66215l-0.22071,1.3059v0.64376l0.22071,1.0852h-0.22071c0.29428,0.2943,0.51499,1.5266,0.66215,3.697h-0.22072c0.29428,0.47823,0.44142,0.84609,0.44144,1.1036v0.64376h0.22071v0.86447c-0.00001,1.312-0.65603,1.9681-1.9681,1.9681h-0.22072c-0.50275,0-0.93805-1.8884-1.3059-5.6651h0.22072c-0.14715-0.28202-0.22072-0.49661-0.22072-0.64376,0-0.91964-0.0675-2.808-0.20232-5.6651h0.20232l-0.42304-1.9497,0.22072-1.3059v-0.86448c-0.00001-0.44141-0.0736-0.66213-0.22072-0.66215,0.14714,0.00002,0.22071-2.0294,0.22072-6.0881-0.25751-0.13486-0.5518-0.2023-0.88287-0.20232l-1.5082,0.42304h-1.1036l-0.64376-0.42304h-0.22071v0.42304h-0.22072c-0.13489,0.000024-0.20233-0.07355-0.20233-0.22072l-0.44143,0.22072h-0.66215c-0.79704,0.000024-1.4469-0.43528-1.9497-1.3059,0-0.40462,0.21458-1.1281,0.64376-2.1704h0.44143c2.1213,0.29432,3.2801,0.44146,3.4763,0.44144h0.22072v0.42304c0.6744-0.282,1.3243-0.42301,1.9497-0.42304v0.22072l0.44144-0.22072h0.22072v0.42304l1.0852-0.20232v-1.7473h-1.5266v-0.44143l0.88287-1.0852,1.9497-0.42304"/>
  <path style="" d="m371.71,88.891,1.3059,0c0.14712,0.00003,0.44141,0.43533,0.88287,1.3059h0.22071c-0.14716,0.28206-0.22073,0.50277-0.22071,0.66215v0.64376c-0.3311,0.000028-0.55181,0.36176-0.66215,1.0852,0.14712,0.000027,0.22069,0.0736,0.22071,0.22072-0.71122,0.000027-2.1581,0.72349-4.3408,2.1704-1.6063,0.56408-2.477,0.99938-2.6118,1.3059-0.2943,0.20848-0.44145,0.4292-0.44143,0.66215l-0.44144-0.22072c-0.00001,0.29431-0.36174,0.65604-1.0852,1.0852-0.00001,0.18395-0.57633,0.69283-1.729,1.5266l-0.66215,0.86447c-1.4469,1.2385-2.385,2.759-2.8142,4.5615-1.0178,2.4647-1.6002,4.2795-1.7473,5.4444-0.00001,1.3734,1.0852,2.6057,3.2556,3.697h1.0852c-0.00001,0.57632,0.0736,0.86448,0.22072,0.86447l0.44143-0.22072c1.2262,0.44144,2.0968,0.66216,2.6118,0.66216h1.9497c0.33106,0,0.62535-0.0736,0.88287-0.22072,0.24523,0.14715,0.53338,0.22072,0.86447,0.22072,1.496-0.14715,2.3666-0.22072,2.6118-0.22072-0.00001,0.14715,0.0674,0.22072,0.20233,0.22072,0.049-0.29429,0.19617-0.44143,0.44143-0.44144h0.22072l0.44143,0.22072c0.0368-0.29429,0.17779-0.44143,0.42305-0.44144l0.44143,0.22072c0.14713-0.57631,0.58243-0.86447,1.3059-0.86447h1.0852v0.86447h0.22072c-0.00002-0.72346,0.64987-1.0852,1.9497-1.0852-0.00002,0.33108-0.0736,0.61924-0.22072,0.86447,0.14712,0.25751,0.2207,0.5518,0.22072,0.88287l-0.22072,0.86448-0.42304-0.22072c-0.00002,0.64989-1.8884,1.2323-5.6651,1.7474h-0.86448l-0.64376,0.42304h-0.88287c-0.3924,0-0.8277-0.14102-1.3059-0.42304-0.00001,0.28202-0.14103,0.42304-0.42304,0.42304l-1.3059-0.20233c-0.24525,0.13489-0.60698,0.20233-1.0852,0.20233l-0.22072-0.42304c-0.14715,0-0.22073,0.0736-0.22072,0.22071-1.4837,0-3.5867-0.58244-6.3088-1.7473-2.3175-1.496-3.4763-3.3782-3.4763-5.6467v-1.1036c1.1649-4.868,2.759-8.5589,4.7822-11.073v-0.22072h0.22072l0.44143,0.22072c0-0.89511,0.36173-1.4776,1.0852-1.7473,0-0.282,1.5205-1.3672,4.5615-3.2556,1.7412-1.1281,2.6118-1.7841,2.6118-1.9681-0.2943,0.000028-0.44144-0.21456-0.44143-0.64376-0.00001-0.4414,0.65601-0.80314,1.9681-1.0852-0.00001,0.13491,0.0674,0.20235,0.20233,0.20232-0.00002-0.1839,0.36171-0.54563,1.0852-1.0852"/>
 </g>
</svg>
