<!-- Created with Inkscape (http://www.inkscape.org/) -->
<svg xmlns:rdf="http://www.w3.org/1999/02/22-rdf-syntax-ns#" xmlns="http://www.w3.org/2000/svg" height="105.68" width="515.23" version="1.1" xmlns:cc="http://creativecommons.org/ns#" xmlns:dc="http://purl.org/dc/elements/1.1/">
 <metadata>
  <rdf:RDF>
   <cc:Work rdf:about="">
    <dc:format>image/svg+xml</dc:format>
    <dc:type rdf:resource="http://purl.org/dc/dcmitype/StillImage"/>
    <dc:title/>
   </cc:Work>
  </rdf:RDF>
 </metadata>
 <path d="m93.534,20.003v62.37h-21.539c-1.0863,0-1.9231-0.20791-2.513-0.61589-0.58992-0.41062-0.88358-0.99794-0.88358-1.7594,0-1.2474,0.60552-2.0712,1.8165-2.4662,0.99792-0.33526,1.58-0.53796,1.7464-0.61332,0.16629-0.0754,0.34043-0.25468,0.52236-0.52755,0.36381-0.48856,0.54311-1.263,0.54311-2.3285v-45.73c0-1.0707-0.18193-1.8477-0.54311-2.3311-0.18193-0.27028-0.35604-0.45219-0.52236-0.52756-0.16629-0.0727-0.74846-0.28067-1.7464-0.61592-1.211-0.39239-1.8165-1.2214-1.8165-2.4662,0-0.76664,0.29366-1.354,0.88358-1.762,0.58992-0.4106,1.4267-0.6185,2.513-0.6185h21.539v-0.007zm14.155,30.086c2.7391,0.54834,4.8467,1.0811,6.3254,1.5956,1.4761,0.51716,2.8093,1.172,3.9969,1.9621,2.04,1.3097,3.5993,3.0405,4.6804,5.1871s1.6216,4.5426,1.6216,7.1934c0,5.2079-1.9179,9.2698-5.7536,12.191-1.9803,1.5229-4.1632,2.5962-6.5515,3.2199-2.3908,0.62109-5.5197,0.93553-9.3841,0.93553h-5.4392v-4.7973c1.2188-0.0911,2.1778-0.27028,2.8768-0.52755,0.69908-0.25728,1.3254-0.69386,1.8737-1.2994,1.0057-1.1305,1.5073-2.8768,1.5073-5.2521v-10.364c0-1.5229-0.12999-2.7105-0.3872-3.5629-0.25728-0.85239-0.73545-1.6294-1.4319-2.3285-0.51456-0.55094-1.0759-0.94334-1.6814-1.1876-0.60552-0.24687-1.4683-0.44439-2.591-0.59513v-4.7453c1.1201-0.0909,1.9906-0.24688,2.6118-0.46,0.62109-0.21044,1.1902-0.56391,1.7048-1.0473,0.48597-0.45737,0.89398-1.0473,1.2266-1.7828,0.33264-0.73025,0.51456-1.4007,0.54574-2.0088v-10.442c0-0.82121-0.13777-1.6788-0.41059-2.578-0.27287-0.90178-0.60812-1.6086-1.0057-2.1258-0.57954-0.70167-1.2266-1.2188-1.9413-1.5541-0.71465-0.33524-1.6814-0.56394-2.9002-0.68606v-5.026h5.2573c6.9439,0,12.243,1.4319,15.897,4.2983,1.6762,1.3098,2.9548,2.8898,3.8384,4.7505,0.88357,1.8633,1.3254,3.8696,1.3254,6.0317,0,2.1336-0.4496,4.1476-1.3488,6.0317-0.8992,1.8945-2.1544,3.4616-3.7682,4.7116-1.1876,0.97453-2.5598,1.7672-4.1138,2.3753-1.554,0.60809-3.7474,1.2448-6.58,1.8867z" fill="#222b00"/>
 <path d="m136.47,63.744,1.7109-35.778c0.0511-1.0695-0.0935-1.8543-0.43119-2.3544-0.16881-0.27866-0.3366-0.46878-0.49653-0.55189-0.16009-0.08044-0.73679-0.31623-1.715-0.69863-1.1935-0.44993-1.757-1.2886-1.6986-2.5086,0.038-0.79431,0.35998-1.3799,0.96872-1.7592,0.61407-0.38172,1.4624-0.54928,2.5501-0.49728l22.737,1.0873,1.637,0.26041c0.49628,0.17732,0.90388,0.46733,1.2147,0.87764,0.30806,0.41281,0.44628,0.89553,0.42009,1.4432-0.0582,1.2174-0.69645,1.996-1.9302,2.3351-1.0102,0.28733-1.5989,0.46731-1.7738,0.53179-0.16971,0.06737-0.35235,0.24072-0.54695,0.50201-0.38417,0.47075-0.60273,1.233-0.65387,2.3025l-1.8306,38.282c-0.12363,2.5854-0.13976,4.3902-0.051,5.4196,0.0888,1.0267,0.32271,1.9563,0.7091,2.7996,0.35818,0.77944,0.77325,1.3483,1.2453,1.7064,0.47201,0.35819,1.3806,0.78148,2.7282,1.2726l-0.28586,5.9781-1.0046-0.04804c-3.9586-0.1893-7.2281-0.69685-9.8139-1.5204-3.0369-0.96475-5.6756-2.3137-7.9088-4.0362-2.2332-1.7224-3.7952-3.6054-4.6725-5.661-0.93344-2.1885-1.302-5.3099-1.1071-9.3854zm28.678,20.848,0.28587-5.9781c3.0456-0.24983,5.6362-1.3774,7.7611-3.3753,2.4148-2.2937,3.7298-5.6885,3.945-10.189l1.4226-29.75c0.19935-4.1688-1.255-7.1601-4.3642-8.9531-0.91634-0.53294-1.5141-0.98302-1.7856-1.342-0.27162-0.35902-0.38969-0.88241-0.35766-1.5522,0.038-0.7943,0.35293-1.3412,0.94794-1.651,0.59486-0.30718,1.545-0.42564,2.8532-0.36308l11.195,0.53534c0.93968,0.04494,1.5667,0.09834,1.8892,0.15552,0.31966,0.06204,0.62035,0.19362,0.91537,0.3898,0.76987,0.49473,1.1347,1.1366,1.0966,1.9335-0.032,0.6697-0.30558,1.2212-0.81011,1.6524-0.16056,0.14591-0.83682,0.52454-2.0215,1.1417-1.3745,0.66795-2.4716,1.7394-3.3041,3.2086-0.83282,1.4744-1.2937,3.1694-1.3853,5.0851l-1.4249,29.797c-0.24441,5.1112-1.5716,9.2521-3.974,12.428-1.7596,2.3562-4.2045,4.1907-7.3424,5.5028-1.5504,0.64654-3.4032,1.0913-5.5426,1.3246z" fill="#222b00"/>
 <path d="m223.01,20.143v5.0754c-2.6533,0.64187-3.9787,2.7755-3.9787,6.4059v42.531c0,1.645,0.22608,2.908,0.67826,3.789,0.38983,0.73025,1.2214,1.354,2.4896,1.8737v5.1611c-0.97453,0-1.8659-0.0754-2.6715-0.22863-0.80562-0.15341-1.8815-0.45737-3.2199-0.91477-3.1964-1.0966-6.0915-2.7703-8.6798-5.0286-2.5884-2.2583-4.7194-4.9506-6.3955-8.0873-2.5884-4.9065-3.8825-10.704-3.8825-17.409,0-6.4865,1.1564-12.243,3.4693-17.271,2.3129-5.0286,5.6315-8.9709,9.9558-11.837,2.4948-1.6788,5.1741-2.8768,8.0354-3.6123,1.1876-0.29626,2.5858-0.44701,4.1996-0.44701zm24.449,55.98c-1.224,1.2188-2.8456,2.4558-4.8675,3.7214-2.0296,1.263-3.9423,2.2583-5.738,2.9886-1.645,0.63931-3.4668,1.1565-5.4626,1.5541-1.9958,0.39762-3.7552,0.59513-5.2781,0.59513v-5.1585c0.88359-0.21298,1.5463-0.47558,1.9881-0.77962,0.44178-0.30146,0.81339-0.72766,1.12-1.276,0.51715-0.94335,0.77703-2.1466,0.77703-3.6123v-13.324c0-1.1876-0.22863-2.04-0.68347-2.5546-0.21297-0.30405-0.42621-0.49118-0.6367-0.57171-0.21299-0.0727-0.91215-0.25208-2.0972-0.52496-1.4579-0.36644-2.1855-1.2162-2.1855-2.552,0-0.79262,0.34044-1.4007,1.0265-1.8269,0.68347-0.42621,1.6918-0.6393,3.0301-0.6393h18.235c1.3826,0,2.3571,0.18722,2.9262,0.57173,0.57173,0.382,0.85501,1.0421,0.85501,1.988,0,0.58212-0.11428,1.0551-0.34826,1.4397-0.22861,0.37941-0.65487,0.78483-1.2682,1.211-0.6159,0.42619-1.0057,0.81602-1.1538,1.185-0.15847,0.36904-0.23391,1.0317-0.23391,2.0062v15.561h-0.004zm-20.712-50.995v-4.9376c4.9636,0.45997,9.0463,1.3696,12.245,2.7443,0.94337,0.4262,1.6762,0.6393,2.1934,0.6393,0.48857,0,0.86278-0.11171,1.1252-0.34304,0.25988-0.22862,0.78223-0.87317,1.5696-1.9309,0.54835-0.75623,1.2344-1.1383,2.0608-1.1383,0.8498,0,1.4527,0.23909,1.8009,0.70427,0.34824,0.46779,0.52495,1.2474,0.52495,2.3389v17.796c0,2.2947-0.85237,3.4408-2.5572,3.4408-0.85497,0-1.4839-0.22861-1.8945-0.68865-0.40801-0.45741-0.80302-1.354-1.1642-2.6923-0.45997-1.6996-1.2786-3.6902-2.4662-5.9538-1.1876-2.2687-2.3285-4.0593-3.4252-5.3638-1.2474-1.5229-2.6507-2.6404-4.2048-3.355-1.5567-0.71725-3.4927-1.1383-5.8082-1.2604z" fill="#222b00"/>
 <path d="m291.65,24.32c-1.5633,0.49264-2.6821,1.1996-3.351,2.1185-0.66893,0.9163-1.0404,2.2911-1.1092,4.1245l-1.532,40.813c-0.1005,2.6774,0.19231,4.5764,0.87567,5.6996,0.53949,0.93828,1.559,1.6293,3.0582,2.0809l-0.18862,5.0251c-6.7393-0.80169-12.305-3.5514-16.701-8.2649-5.715-6.1257-8.3715-14.472-7.9749-25.039,0.19867-5.2926,1.1627-10.051,2.8891-14.268,1.7264-4.2184,4.187-7.7616,7.3712-10.63,2.4281-2.1948,5.0201-3.8347,7.7732-4.9198s5.7779-1.6451,9.0711-1.6697l-0.18201,4.929zm3.7344,0.14018,0.18521-4.9341c3.2871,0.27691,6.2694,1.0571,8.9542,2.3463,2.6822,1.2891,5.1543,3.1191,7.4189,5.49,5.9895,6.2946,8.7822,14.825,8.3776,25.602-0.39646,10.562-3.6791,18.685-9.8426,24.37-4.7446,4.3963-10.524,6.7202-17.34,6.9871l0.18863-5.0251c0.79879-0.14955,1.4256-0.36,1.878-0.63427,0.4522-0.26909,0.87312-0.67458,1.2598-1.2088,0.86994-1.213,1.3538-3.0881,1.4486-5.6149l1.532-40.813c0.0606-1.6153-0.16667-2.9033-0.67902-3.8718-0.3422-0.65261-0.75975-1.1676-1.2471-1.5552-0.49006-0.38509-1.2013-0.76548-2.134-1.1385z" fill="#222b00"/>
 <path d="m392.4,21.921,12.008-0.52363,0.24127,5.5327c-1.3948,0.88282-2.4602,1.9828-3.1962,3.2973-1.2182,2.1289-1.994,4.6209-2.3274,7.4734l-0.33544,2.8058c-0.11467,0.89204-0.4117,1.5942-0.8907,2.1224-0.47924,0.52295-1.1017,0.80501-1.8598,0.83807-0.79186,0.03453-1.4502-0.2099-1.9778-0.73575-0.52757-0.52583-0.80795-1.229-0.84644-2.1117l-0.81541-18.698zm36.026-1.571,2.3391,53.639c0.0517,1.1865,0.31728,2.0281,0.7993,2.5222,0.2573,0.29313,0.49407,0.47267,0.71316,0.54637,0.21596,0.06335,0.93063,0.22475,2.1356,0.47655,1.4763,0.27118,2.2502,1.075,2.3086,2.4147,0.0345,0.79186-0.33486,1.4479-1.1055,1.9679-0.56821,0.39154-1.539,0.61598-2.9099,0.67576l-23.391,1.02c-1.3345,0.0582-2.3534-0.10296-3.0542-0.48332-0.70071-0.38042-1.0704-0.9834-1.1061-1.8038-0.0584-1.3397,0.63209-2.2074,2.074-2.6058,1.1706-0.3554,1.8609-0.57278,2.0704-0.65997,0.20938-0.08721,0.41141-0.28846,0.61094-0.60411,0.43195-0.53389,0.62328-1.3954,0.57154-2.582l-2.3391-53.639,20.283-0.8845zm15.736-0.68623,0.81506,18.69c0.0387,0.88793-0.18209,1.6103-0.65928,2.18-0.47708,0.57227-1.1144,0.8706-1.9063,0.90513-0.7607,0.03317-1.4026-0.19116-1.9256-0.67299-0.52293-0.47923-0.8803-1.1581-1.0748-2.0393l-0.57834-2.7633c-0.58058-2.8152-1.5702-5.2277-2.969-7.2424-0.87624-1.2442-2.0357-2.2419-3.4711-3.0065l-0.24138-5.5353,12.008-0.52363,0.00031,0.007z" fill="#222b00"/>
 <path d="m335.1,66.223v-35.819c0-1.0707-0.18193-1.8477-0.54314-2.3311-0.18193-0.27027-0.35864-0.45217-0.52236-0.52755-0.16376-0.0727-0.75104-0.28066-1.7464-0.61591-1.2136-0.39241-1.8165-1.2032-1.8165-2.4246,0-0.79522,0.29366-1.3955,0.88357-1.8035,0.59512-0.41063,1.4345-0.61852,2.5234-0.61852h22.763l1.6476,0.18192c0.50416,0.15341,0.92515,0.42362,1.2552,0.81862,0.32744,0.39762,0.48855,0.8732,0.48855,1.4215,0,1.2188-0.60029,2.027-1.8165,2.4246-0.99533,0.33525-1.5748,0.54315-1.7464,0.61592-0.16629,0.0754-0.34044,0.25727-0.52236,0.52755-0.36122,0.48856-0.54314,1.2604-0.54314,2.3311v38.326c0,2.5884,0.0701,4.3919,0.20793,5.4158,0.13777,1.0213,0.4158,1.9387,0.842,2.7625,0.39502,0.76144,0.83681,1.3098,1.3254,1.645,0.48856,0.33524,1.4163,0.71465,2.7859,1.1409v5.9849h-1.0057c-3.9631,0-7.2531-0.35084-9.8753-1.0499-3.0795-0.81862-5.7796-2.04-8.0925-3.6539-2.3129-1.6138-3.9631-3.42-4.9376-5.4314-1.0369-2.1414-1.5541-5.2417-1.5541-9.3218zm29.641,19.454v-5.985c3.0302-0.39502,5.5639-1.645,7.591-3.7422,2.3025-2.4064,3.4537-5.8602,3.4537-10.366v-29.784c0-4.1736-1.5956-7.092-4.7869-8.7344-0.94076-0.48856-1.5592-0.90958-1.8477-1.2552-0.28847-0.34565-0.43138-0.8628-0.43138-1.5333,0-0.79524,0.28843-1.3566,0.86797-1.6944,0.57952-0.33524,1.5229-0.49895,2.8326-0.49895h11.208c0.94075,0,1.5696,0.0234,1.8945,0.0651,0.32226,0.0467,0.6289,0.16376,0.93296,0.34564,0.79264,0.45737,1.1876,1.0811,1.1876,1.8789,0,0.67049-0.24688,1.2344-0.73024,1.6892-0.15341,0.15341-0.81081,0.56394-1.9647,1.237-1.341,0.73284-2.3857,1.8555-3.1471,3.3628-0.76144,1.5125-1.1409,3.2276-1.1409,5.1455v29.831c0,5.117-1.1278,9.3166-3.3758,12.604-1.645,2.4376-3.9995,4.3867-7.0712,5.8472-1.5177,0.71985-3.3472,1.2526-5.473,1.5878z" fill="#222b00"/>
 <g font-size="103.95037079px" line-height="125%" transform="translate(-47.256026,-334.69739)" font-family="Arial" style="writing-mode:lr-tb;letter-spacing:0px;text-anchor:middle;word-spacing:0px;text-align:center;" font-stretch="normal" font-variant="normal" font-weight="normal" font-style="normal" fill="#222b00">
  <path d="m67.256,385.57,2.3348-7.2075c5.3802,1.895,9.2885,3.5361,11.725,4.9234-0.64294-6.1246-0.98132-10.337-1.0151-12.638h7.3598c-0.10154,3.35-0.49067,7.5459-1.1674,12.588,3.4853-1.7595,7.4782-3.3837,11.979-4.8727l2.3348,7.2075c-4.2975,1.4213-8.5103,2.3687-12.638,2.8424,2.0641,1.7935,4.9742,4.9912,8.7302,9.5931l-6.0908,4.3144c-1.9626-2.6732-4.2805-6.3107-6.9537-10.913-2.504,4.7712-4.7035,8.4088-6.5984,10.913l-5.9893-4.3144c3.9252-4.8388,6.7338-8.0365,8.4257-9.5931-4.3651-0.84589-8.5103-1.7934-12.435-2.8424"/>
 </g>
 <g font-size="103.95037079px" line-height="125%" transform="matrix(0.96592583,0.25881905,-0.25881905,0.96592583,70.686778,-457.59343)" font-family="Arial" style="writing-mode:lr-tb;letter-spacing:0px;text-anchor:middle;word-spacing:0px;text-align:center;" font-stretch="normal" font-variant="normal" font-weight="normal" font-style="normal" fill="#222b00">
  <path d="m508.94,385.57,2.3348-7.2075c5.3802,1.895,9.2885,3.5361,11.725,4.9234-0.64294-6.1246-0.98132-10.337-1.0151-12.638h7.3598c-0.10154,3.35-0.49067,7.5459-1.1674,12.588,3.4853-1.7595,7.4782-3.3837,11.979-4.8727l2.3348,7.2075c-4.2975,1.4213-8.5103,2.3687-12.638,2.8424,2.0641,1.7935,4.9742,4.9912,8.7302,9.5931l-6.0908,4.3144c-1.9626-2.6732-4.2805-6.3107-6.9537-10.913-2.504,4.7712-4.7035,8.4088-6.5984,10.913l-5.9893-4.3144c3.9252-4.8388,6.7338-8.0365,8.4257-9.5931-4.3651-0.84589-8.5103-1.7934-12.435-2.8424"/>
 </g>
</svg>
